<svg fill="none" height="440" viewBox="0 0 1012 440" width="1012" xmlns="http://www.w3.org/2000/svg"><path d="m0 0h1012v440h-1012z" fill="#fff"/><path d="m0 187h1012v253h-1012z" fill="#815cff" fill-opacity=".05"/><circle cx="306" cy="72" fill="#fff" r="59" stroke="#000" stroke-width="2"/><path d="m285.129 74.084v7.416h3.192v-16.584h-3.192v6.648h-5.904v-6.648h-3.168v16.584h3.168v-7.416zm12.141-5.64c-3.768 0-6 2.712-6 6.696 0 4.176 2.232 6.72 5.976 6.72s5.976-2.712 5.976-6.72c0-4.152-2.208-6.696-5.952-6.696zm0 2.328c1.776 0 2.712 1.344 2.712 4.368s-.936 4.392-2.736 4.392-2.736-1.344-2.736-4.392c0-3 .96-4.368 2.76-4.368zm22.296-2.328c-1.68 0-2.856.816-3.816 2.136-.48-1.344-1.584-2.136-3.072-2.136-1.608 0-2.76.744-3.672 2.016l-.24-1.656h-2.664v12.696h3.072v-8.832c.696-1.176 1.344-1.92 2.424-1.92.744 0 1.392.456 1.392 2.04v8.712h3.072v-8.832c.696-1.176 1.344-1.92 2.4-1.92.768 0 1.392.456 1.392 2.04v8.712h3.072v-9.192c0-2.4-1.344-3.864-3.36-3.864zm17.343 6.408c0-4.008-2.04-6.408-5.592-6.408-3.6 0-5.64 2.928-5.64 6.792 0 4.008 2.112 6.624 6.048 6.624 1.92 0 3.456-.696 4.704-1.704l-1.272-1.752c-1.104.768-2.04 1.128-3.168 1.128-1.68 0-2.904-.84-3.12-3.432h7.968c.024-.336.072-.84.072-1.248zm-3.048-.744h-4.992c.168-2.52 1.08-3.48 2.52-3.48 1.728 0 2.472 1.248 2.472 3.336z" fill="#000"/><circle cx="506" cy="72" fill="#fff" r="59" stroke="#000" stroke-width="2"/><path d="m490.981 81.5v-16.584h-2.88v7.776c0 2.352.288 4.752.432 5.664l-5.784-13.44h-4.008v16.584h2.88v-6.768c0-3.072-.264-5.184-.432-6.648l5.688 13.416zm14.205-6.648c0-4.008-2.04-6.408-5.592-6.408-3.6 0-5.64 2.928-5.64 6.792 0 4.008 2.112 6.624 6.048 6.624 1.92 0 3.456-.696 4.704-1.704l-1.272-1.752c-1.104.768-2.04 1.128-3.168 1.128-1.68 0-2.904-.84-3.12-3.432h7.968c.024-.336.072-.84.072-1.248zm-3.048-.744h-4.992c.168-2.52 1.08-3.48 2.52-3.48 1.728 0 2.472 1.248 2.472 3.336zm18.618 7.392 2.76-12.696h-2.952l-1.896 10.44-2.016-10.44h-3.144l-2.208 10.44-1.776-10.44h-3.072l2.808 12.696h3.768l1.968-9.96 1.92 9.96zm8.889-13.056c-2.952 0-4.896 1.584-4.896 3.696 0 1.872 1.152 3.12 3.768 3.84 2.376.672 2.88 1.008 2.88 2.112 0 .888-.888 1.488-2.28 1.488-1.272 0-2.448-.504-3.408-1.272l-1.56 1.752c1.176 1.056 2.88 1.8 5.064 1.8 2.904 0 5.352-1.392 5.352-4.032 0-2.256-1.464-3.312-4.056-4.008-2.16-.6-2.664-.984-2.664-1.824 0-.768.696-1.272 1.992-1.272 1.056 0 2.064.36 3.12 1.08l1.2-1.848c-1.2-.936-2.688-1.512-4.512-1.512z" fill="#000"/><circle cx="706" cy="72" fill="#fff" r="59" stroke="#000" stroke-width="2"/><path d="m676.992 64.916h-4.896v16.584h3.168v-5.784h1.944c3.744 0 6.504-1.704 6.504-5.52 0-3.576-2.544-5.28-6.72-5.28zm-.024 8.424h-1.704v-6.096h1.704c2.16 0 3.432.864 3.432 2.952 0 2.424-1.32 3.144-3.432 3.144zm15.476-4.872c-1.488 0-2.712 1.008-3.312 2.832l-.288-2.496h-2.664v12.696h3.072v-6.768c.48-2.136 1.272-3.264 2.808-3.264.432 0 .744.048 1.128.144l.528-2.976c-.408-.12-.816-.168-1.272-.168zm8.131-.024c-3.768 0-6 2.712-6 6.696 0 4.176 2.232 6.72 5.976 6.72s5.976-2.712 5.976-6.72c0-4.152-2.208-6.696-5.952-6.696zm0 2.328c1.776 0 2.712 1.344 2.712 4.368s-.936 4.392-2.736 4.392-2.736-1.344-2.736-4.392c0-3 .96-4.368 2.76-4.368zm14.088-7.392c-3.456 0-4.896 1.752-4.896 4.08v1.344h-1.968v2.208h1.968v10.488h3.072v-10.488h4.008v10.488h3.072v-12.696h-7.08v-1.296c0-1.2.456-1.776 2.112-1.776.984 0 1.896.24 2.664.6l.936-2.04c-1.032-.504-2.28-.912-3.888-.912zm11.899 15.024v-15.024l-3.072.336v14.904c0 2.112 1.08 3.24 2.976 3.24.792 0 1.56-.168 2.184-.432l-.648-2.16c-.216.072-.48.12-.72.12-.504 0-.72-.288-.72-.984zm14.307-3.552c0-4.008-2.04-6.408-5.592-6.408-3.6 0-5.64 2.928-5.64 6.792 0 4.008 2.112 6.624 6.048 6.624 1.92 0 3.456-.696 4.704-1.704l-1.272-1.752c-1.104.768-2.04 1.128-3.168 1.128-1.68 0-2.904-.84-3.12-3.432h7.968c.024-.336.072-.84.072-1.248zm-3.048-.744h-4.992c.168-2.52 1.08-3.48 2.52-3.48 1.728 0 2.472 1.248 2.472 3.336z" fill="#000"/><circle cx="306" cy="304" fill="#fff" r="58" stroke="#00a2ff" stroke-width="4"/><path d="m285.129 306.084v7.416h3.192v-16.584h-3.192v6.648h-5.904v-6.648h-3.168v16.584h3.168v-7.416zm12.141-5.64c-3.768 0-6 2.712-6 6.696 0 4.176 2.232 6.72 5.976 6.72s5.976-2.712 5.976-6.72c0-4.152-2.208-6.696-5.952-6.696zm0 2.328c1.776 0 2.712 1.344 2.712 4.368s-.936 4.392-2.736 4.392-2.736-1.344-2.736-4.392c0-3 .96-4.368 2.76-4.368zm22.296-2.328c-1.68 0-2.856.816-3.816 2.136-.48-1.344-1.584-2.136-3.072-2.136-1.608 0-2.76.744-3.672 2.016l-.24-1.656h-2.664v12.696h3.072v-8.832c.696-1.176 1.344-1.92 2.424-1.92.744 0 1.392.456 1.392 2.04v8.712h3.072v-8.832c.696-1.176 1.344-1.92 2.4-1.92.768 0 1.392.456 1.392 2.04v8.712h3.072v-9.192c0-2.4-1.344-3.864-3.36-3.864zm17.343 6.408c0-4.008-2.04-6.408-5.592-6.408-3.6 0-5.64 2.928-5.64 6.792 0 4.008 2.112 6.624 6.048 6.624 1.92 0 3.456-.696 4.704-1.704l-1.272-1.752c-1.104.768-2.04 1.128-3.168 1.128-1.68 0-2.904-.84-3.12-3.432h7.968c.024-.336.072-.84.072-1.248zm-3.048-.744h-4.992c.168-2.52 1.08-3.48 2.52-3.48 1.728 0 2.472 1.248 2.472 3.336z" fill="#00a2ff"/><circle cx="506" cy="304" fill="#fff" r="59" stroke="#000" stroke-width="2"/><path d="m490.981 313.5v-16.584h-2.88v7.776c0 2.352.288 4.752.432 5.664l-5.784-13.44h-4.008v16.584h2.88v-6.768c0-3.072-.264-5.184-.432-6.648l5.688 13.416zm14.205-6.648c0-4.008-2.04-6.408-5.592-6.408-3.6 0-5.64 2.928-5.64 6.792 0 4.008 2.112 6.624 6.048 6.624 1.92 0 3.456-.696 4.704-1.704l-1.272-1.752c-1.104.768-2.04 1.128-3.168 1.128-1.68 0-2.904-.84-3.12-3.432h7.968c.024-.336.072-.84.072-1.248zm-3.048-.744h-4.992c.168-2.52 1.08-3.48 2.52-3.48 1.728 0 2.472 1.248 2.472 3.336zm18.618 7.392 2.76-12.696h-2.952l-1.896 10.44-2.016-10.44h-3.144l-2.208 10.44-1.776-10.44h-3.072l2.808 12.696h3.768l1.968-9.96 1.92 9.96zm8.889-13.056c-2.952 0-4.896 1.584-4.896 3.696 0 1.872 1.152 3.12 3.768 3.84 2.376.672 2.88 1.008 2.88 2.112 0 .888-.888 1.488-2.28 1.488-1.272 0-2.448-.504-3.408-1.272l-1.56 1.752c1.176 1.056 2.88 1.8 5.064 1.8 2.904 0 5.352-1.392 5.352-4.032 0-2.256-1.464-3.312-4.056-4.008-2.16-.6-2.664-.984-2.664-1.824 0-.768.696-1.272 1.992-1.272 1.056 0 2.064.36 3.12 1.08l1.2-1.848c-1.2-.936-2.688-1.512-4.512-1.512z" fill="#000"/><circle cx="706" cy="304" fill="#fff" r="59" stroke="#000" stroke-width="2"/><path d="m676.992 296.916h-4.896v16.584h3.168v-5.784h1.944c3.744 0 6.504-1.704 6.504-5.52 0-3.576-2.544-5.28-6.72-5.28zm-.024 8.424h-1.704v-6.096h1.704c2.16 0 3.432.864 3.432 2.952 0 2.424-1.32 3.144-3.432 3.144zm15.476-4.872c-1.488 0-2.712 1.008-3.312 2.832l-.288-2.496h-2.664v12.696h3.072v-6.768c.48-2.136 1.272-3.264 2.808-3.264.432 0 .744.048 1.128.144l.528-2.976c-.408-.12-.816-.168-1.272-.168zm8.131-.024c-3.768 0-6 2.712-6 6.696 0 4.176 2.232 6.72 5.976 6.72s5.976-2.712 5.976-6.72c0-4.152-2.208-6.696-5.952-6.696zm0 2.328c1.776 0 2.712 1.344 2.712 4.368s-.936 4.392-2.736 4.392-2.736-1.344-2.736-4.392c0-3 .96-4.368 2.76-4.368zm14.088-7.392c-3.456 0-4.896 1.752-4.896 4.08v1.344h-1.968v2.208h1.968v10.488h3.072v-10.488h4.008v10.488h3.072v-12.696h-7.08v-1.296c0-1.2.456-1.776 2.112-1.776.984 0 1.896.24 2.664.6l.936-2.04c-1.032-.504-2.28-.912-3.888-.912zm11.899 15.024v-15.024l-3.072.336v14.904c0 2.112 1.08 3.24 2.976 3.24.792 0 1.56-.168 2.184-.432l-.648-2.16c-.216.072-.48.12-.72.12-.504 0-.72-.288-.72-.984zm14.307-3.552c0-4.008-2.04-6.408-5.592-6.408-3.6 0-5.64 2.928-5.64 6.792 0 4.008 2.112 6.624 6.048 6.624 1.92 0 3.456-.696 4.704-1.704l-1.272-1.752c-1.104.768-2.04 1.128-3.168 1.128-1.68 0-2.904-.84-3.12-3.432h7.968c.024-.336.072-.84.072-1.248zm-3.048-.744h-4.992c.168-2.52 1.08-3.48 2.52-3.48 1.728 0 2.472 1.248 2.472 3.336z" fill="#000"/><path d="m63.024 297.416h-4.08v16.584h4.512c3.96 0 8.064-1.656 8.064-8.376 0-6.864-4.128-8.208-8.496-8.208zm-.912 2.376h1.464c2.448 0 4.608.84 4.608 5.832 0 4.896-2.04 6-4.512 6h-1.56zm21.4481 10.848v-5.328c0-2.808-1.488-4.368-4.872-4.368-1.44 0-3.048.312-4.608.912l.72 2.088c1.272-.432 2.496-.672 3.36-.672 1.632 0 2.376.552 2.376 2.208v.72h-1.584c-3.696 0-5.784 1.488-5.784 4.248 0 2.304 1.56 3.912 4.104 3.912 1.512 0 2.904-.552 3.792-1.896.504 1.224 1.416 1.728 2.808 1.848l.648-2.04c-.624-.24-.96-.6-.96-1.632zm-5.472 1.488c-1.176 0-1.8-.696-1.8-1.92 0-1.488.984-2.208 2.976-2.208h1.272v2.568c-.576 1.008-1.368 1.56-2.448 1.56zm15.4536-11.16c-1.488 0-2.712 1.008-3.312 2.832l-.288-2.496h-2.664v12.696h3.072v-6.768c.48-2.136 1.272-3.264 2.808-3.264.432 0 .744.048 1.128.144l.528-2.976c-.408-.12-.816-.168-1.272-.168zm6.2533 13.032v-18.12l-3.072.336v17.784zm3.384-7.104 4.224-5.592h-3.24l-4.248 5.76 4.368 6.936h3.528zm28.18 7.104-1.296-16.584h-4.128l-2.784 11.616-2.952-11.616h-4.08l-1.32 16.584h3.072l.408-6.84c.144-2.376.192-4.656.096-6.888l3.216 11.928h3l3.024-11.904c-.048 1.752.072 4.32.216 6.768l.432 6.936zm8.306-13.056c-3.768 0-6 2.712-6 6.696 0 4.176 2.232 6.72 5.976 6.72s5.976-2.712 5.976-6.72c0-4.152-2.208-6.696-5.952-6.696zm0 2.328c1.776 0 2.712 1.344 2.712 4.368s-.936 4.392-2.736 4.392-2.736-1.344-2.736-4.392c0-3 .96-4.368 2.76-4.368zm19.511-7.056-3.072-.336v6.432c-.792-.792-1.848-1.368-3.144-1.368-3.216 0-5.16 2.808-5.16 6.72 0 4.032 1.656 6.696 4.824 6.696 1.632 0 2.856-.816 3.624-1.968l.216 1.608h2.712zm-5.688 15.816c-1.512 0-2.448-1.128-2.448-4.392 0-3.048 1.056-4.392 2.664-4.392 1.032 0 1.728.528 2.4 1.344v5.808c-.72 1.08-1.488 1.632-2.616 1.632zm19.557-4.68c0-4.008-2.04-6.408-5.592-6.408-3.6 0-5.64 2.928-5.64 6.792 0 4.008 2.112 6.624 6.048 6.624 1.92 0 3.456-.696 4.704-1.704l-1.272-1.752c-1.104.768-2.04 1.128-3.168 1.128-1.68 0-2.904-.84-3.12-3.432h7.968c.024-.336.072-.84.072-1.248zm-3.048-.744h-4.992c.168-2.52 1.08-3.48 2.52-3.48 1.728 0 2.472 1.248 2.472 3.336z" fill="#7b61ff"/><path d="m266.65 257-11.653-19.939-11.441 20.061zm7.35-130c-.675-1.883-.675-1.883-.675-1.882-.001 0-.001 0-.001 0-.001 0-.001 0-.002 0-.001.001-.002.001-.003.002-.003 0-.006.002-.01.003-.007.003-.018.007-.03.011-.025.01-.06.023-.105.039-.089.034-.216.083-.378.148-.324.129-.791.323-1.379.586l1.632 3.652c.537-.24.954-.413 1.232-.524.139-.055.243-.096.309-.121.033-.012.057-.021.072-.026.007-.003.012-.005.014-.006h.001-.001-.001c0 .001 0 .001-.675-1.882zm-6.151.663c-1.034.552-2.183 1.204-3.419 1.961l2.09 3.41c1.165-.713 2.246-1.326 3.215-1.844zm-6.73 4.119c-1.028.712-2.092 1.488-3.18 2.332l2.452 3.16c1.028-.797 2.033-1.53 3.005-2.203zm-6.226 4.83c-.964.836-1.938 1.724-2.913 2.668l2.782 2.874c.92-.89 1.84-1.73 2.751-2.519zm-5.672 5.489c-.872.943-1.739 1.931-2.595 2.967l3.084 2.548c.807-.977 1.625-1.909 2.448-2.798zm-5.024 6.083c-.766 1.042-1.518 2.125-2.252 3.251l3.352 2.183c.691-1.061 1.4-2.083 2.122-3.065zm-4.312 6.62c-.642 1.121-1.264 2.279-1.863 3.475l3.577 1.791c.565-1.129 1.151-2.221 1.757-3.277zm-3.529 7.05c-.513 1.185-1.003 2.405-1.466 3.66l3.752 1.385c.438-1.186.901-2.338 1.385-3.457zm-2.732 7.392c-.381 1.233-.738 2.497-1.066 3.792l3.877.984c.311-1.228.649-2.426 1.01-3.593zm-1.939 7.631c-.254 1.265-.483 2.557-.683 3.877l3.955.6c.191-1.257.408-2.486.65-3.688zm-1.183 7.775c-.134 1.275-.242 2.573-.324 3.897l3.993.245c.078-1.266.181-2.507.309-3.723zm-.482 7.802c-.013.656-.02 1.317-.02 1.984h4c0-.641.006-1.275.019-1.903zm-.02 1.984c0 .723.008 1.438.023 2.148l3.999-.088c-.014-.68-.022-1.366-.022-2.06zm.212 6.409c.098 1.448.228 2.865.389 4.252l3.974-.462c-.154-1.322-.278-2.675-.372-4.059zm.993 8.5c.242 1.437.518 2.839.825 4.206l3.903-.878c-.292-1.296-.554-2.627-.784-3.993zm1.883 8.362c.402 1.407.837 2.774 1.302 4.101l3.775-1.324c-.439-1.252-.85-2.543-1.23-3.874zm2.847 8.111c.568 1.35 1.168 2.655 1.795 3.915l3.582-1.781c-.59-1.186-1.155-2.414-1.69-3.686zm3.837 7.71c.736 1.268 1.498 2.484 2.281 3.652l3.322-2.228c-.736-1.097-1.452-2.24-2.143-3.432zm4.794 7.148c.897 1.167 1.812 2.276 2.739 3.33l3.005-2.639c-.87-.991-1.73-2.034-2.573-3.13zm5.683 6.475c1.045 1.045 2.094 2.027 3.136 2.947l2.646-3.001c-.982-.865-1.969-1.789-2.951-2.773zm6.457 5.695c1.188.921 2.354 1.764 3.482 2.532l2.251-3.307c-1.063-.724-2.162-1.517-3.28-2.385z" fill="#000"/></svg>