<svg width="1012" height="451" viewBox="0 0 1012 451" fill="none" xmlns="http://www.w3.org/2000/svg">
<rect width="1012" height="451" fill="white"/>
<path d="M463 314.5L443.307 326.564L463.601 337.586L463 314.5ZM284 304C282.11 304.653 282.11 304.654 282.11 304.654C282.11 304.654 282.11 304.654 282.11 304.654C282.11 304.654 282.11 304.654 282.11 304.654C282.11 304.655 282.11 304.655 282.11 304.656C282.111 304.656 282.111 304.657 282.112 304.659C282.112 304.661 282.113 304.664 282.115 304.668C282.117 304.675 282.121 304.684 282.125 304.697C282.133 304.721 282.146 304.755 282.161 304.799C282.193 304.886 282.239 305.012 282.3 305.173C282.423 305.497 282.606 305.965 282.853 306.562L286.548 305.028C286.317 304.472 286.15 304.043 286.041 303.757C285.987 303.614 285.948 303.507 285.923 303.438C285.91 303.404 285.902 303.379 285.896 303.363C285.893 303.355 285.892 303.35 285.891 303.347C285.89 303.346 285.89 303.345 285.89 303.345C285.89 303.345 285.89 303.345 285.89 303.345C285.89 303.345 285.89 303.346 285.89 303.346C285.89 303.346 285.89 303.346 285.89 303.346C285.89 303.346 285.89 303.346 285.89 303.346C285.89 303.346 285.89 303.347 284 304ZM284.517 310.259C285.032 311.327 285.635 312.521 286.334 313.82L289.856 311.925C289.187 310.681 288.611 309.539 288.12 308.522L284.517 310.259ZM288.303 317.304C288.948 318.394 289.65 319.531 290.41 320.705L293.768 318.532C293.038 317.403 292.364 316.311 291.744 315.265L288.303 317.304ZM292.659 324.034C293.401 325.088 294.188 326.162 295.02 327.252L298.198 324.823C297.398 323.776 296.642 322.743 295.929 321.73L292.659 324.034ZM297.507 330.377C298.338 331.381 299.208 332.391 300.118 333.405L303.095 330.734C302.222 329.761 301.386 328.79 300.588 327.826L297.507 330.377ZM302.848 336.329C303.762 337.269 304.711 338.208 305.696 339.142L308.449 336.24C307.504 335.344 306.593 334.443 305.717 333.541L302.848 336.329ZM308.657 341.838C309.648 342.703 310.672 343.562 311.729 344.41L314.233 341.291C313.22 340.478 312.239 339.655 311.288 338.825L308.657 341.838ZM314.907 346.854C315.969 347.635 317.062 348.405 318.185 349.161L320.418 345.842C319.342 345.118 318.295 344.381 317.278 343.632L314.907 346.854ZM321.548 351.321C322.67 352.009 323.821 352.682 325.001 353.338L326.945 349.843C325.815 349.214 324.713 348.57 323.638 347.911L321.548 351.321ZM328.54 355.21C329.72 355.802 330.926 356.377 332.16 356.933L333.803 353.285C332.621 352.753 331.465 352.202 330.335 351.635L328.54 355.21ZM335.858 358.506C337.076 358.994 338.319 359.464 339.587 359.914L340.923 356.143C339.707 355.712 338.515 355.262 337.347 354.793L335.858 358.506ZM343.378 361.171C344.638 361.562 345.922 361.932 347.229 362.281L348.26 358.416C347.004 358.081 345.771 357.725 344.561 357.35L343.378 361.171ZM351.117 363.238C352.394 363.527 353.692 363.795 355.012 364.042L355.748 360.11C354.477 359.872 353.227 359.614 351.998 359.336L351.117 363.238ZM358.957 364.705C360.258 364.9 361.58 365.074 362.921 365.227L363.374 361.253C362.079 361.105 360.804 360.937 359.549 360.749L358.957 364.705ZM366.872 365.609C368.186 365.714 369.518 365.798 370.869 365.861L371.056 361.866C369.749 361.805 368.46 361.723 367.19 361.622L366.872 365.609ZM374.835 365.984C375.504 365.995 376.178 366 376.856 366V362C376.199 362 375.545 361.995 374.896 361.985L374.835 365.984ZM376.856 366C377.549 366 378.238 365.995 378.922 365.984L378.858 361.984C378.196 361.995 377.528 362 376.856 362V366ZM383.006 365.853C384.386 365.787 385.745 365.698 387.085 365.588L386.757 361.602C385.463 361.708 384.148 361.794 382.813 361.858L383.006 365.853ZM391.157 365.182C392.535 365.019 393.891 364.834 395.225 364.627L394.612 360.674C393.326 360.874 392.019 361.052 390.689 361.209L391.157 365.182ZM399.27 363.92C400.633 363.655 401.971 363.366 403.286 363.056L402.367 359.163C401.104 359.461 399.817 359.739 398.506 359.994L399.27 363.92ZM407.265 362.032C408.602 361.658 409.914 361.261 411.199 360.843L409.962 357.039C408.73 357.44 407.472 357.821 406.188 358.179L407.265 362.032ZM415.081 359.488C416.382 359.002 417.656 358.494 418.901 357.965L417.338 354.283C416.147 354.789 414.928 355.275 413.681 355.741L415.081 359.488ZM422.65 356.275C423.906 355.674 425.132 355.053 426.328 354.414L424.442 350.886C423.299 351.498 422.127 352.092 420.925 352.666L422.65 356.275ZM429.918 352.388C431.114 351.676 432.278 350.946 433.409 350.201L431.209 346.86C430.128 347.572 429.016 348.27 427.873 348.95L429.918 352.388ZM436.795 347.86C437.92 347.043 439.01 346.212 440.066 345.37L437.572 342.242C436.562 343.048 435.52 343.842 434.445 344.623L436.795 347.86ZM443.231 342.726C444.282 341.808 445.294 340.881 446.27 339.948L443.506 337.057C442.572 337.949 441.603 338.837 440.599 339.715L443.231 342.726ZM449.175 337.046C450.145 336.033 451.074 335.019 451.963 334.006L448.956 331.367C448.105 332.337 447.216 333.309 446.287 334.278L449.175 337.046ZM454.604 330.864C455.488 329.765 456.325 328.675 457.119 327.599L453.899 325.226C453.138 326.258 452.335 327.303 451.488 328.356L454.604 330.864ZM459.486 324.242C460.28 323.063 461.02 321.91 461.708 320.791L458.3 318.696C457.64 319.77 456.931 320.876 456.169 322.006L459.486 324.242Z" fill="black"/>
<path d="M706 314.5L686.307 326.564L706.601 337.586L706 314.5ZM527 304C525.11 304.653 525.11 304.654 525.11 304.654C525.11 304.654 525.11 304.654 525.11 304.654C525.11 304.654 525.11 304.654 525.11 304.654C525.11 304.655 525.11 304.655 525.11 304.656C525.111 304.656 525.111 304.657 525.112 304.659C525.112 304.661 525.113 304.664 525.115 304.668C525.117 304.675 525.121 304.684 525.125 304.697C525.133 304.721 525.146 304.755 525.161 304.799C525.193 304.886 525.239 305.012 525.3 305.173C525.423 305.497 525.606 305.965 525.853 306.562L529.548 305.028C529.317 304.472 529.15 304.043 529.041 303.757C528.987 303.614 528.948 303.507 528.923 303.438C528.91 303.404 528.902 303.379 528.896 303.363C528.893 303.355 528.892 303.35 528.891 303.347C528.89 303.346 528.89 303.345 528.89 303.345C528.89 303.345 528.89 303.345 528.89 303.345C528.89 303.345 528.89 303.346 528.89 303.346C528.89 303.346 528.89 303.346 528.89 303.346C528.89 303.346 528.89 303.346 528.89 303.346C528.89 303.346 528.89 303.347 527 304ZM527.517 310.259C528.032 311.327 528.635 312.521 529.334 313.82L532.856 311.925C532.187 310.681 531.611 309.539 531.12 308.522L527.517 310.259ZM531.303 317.304C531.948 318.394 532.65 319.531 533.41 320.705L536.768 318.532C536.038 317.403 535.364 316.311 534.744 315.265L531.303 317.304ZM535.659 324.034C536.401 325.088 537.188 326.162 538.02 327.252L541.198 324.823C540.398 323.776 539.642 322.743 538.929 321.73L535.659 324.034ZM540.507 330.377C541.338 331.381 542.208 332.391 543.118 333.405L546.095 330.734C545.222 329.761 544.386 328.79 543.588 327.826L540.507 330.377ZM545.848 336.329C546.762 337.269 547.711 338.208 548.696 339.142L551.449 336.24C550.504 335.344 549.593 334.443 548.717 333.541L545.848 336.329ZM551.657 341.838C552.648 342.703 553.672 343.562 554.729 344.41L557.233 341.291C556.22 340.478 555.239 339.655 554.288 338.825L551.657 341.838ZM557.907 346.854C558.969 347.635 560.062 348.405 561.185 349.161L563.418 345.842C562.342 345.118 561.295 344.381 560.278 343.632L557.907 346.854ZM564.548 351.321C565.67 352.009 566.821 352.682 568.001 353.338L569.945 349.843C568.815 349.214 567.713 348.57 566.638 347.911L564.548 351.321ZM571.54 355.21C572.72 355.802 573.926 356.377 575.16 356.933L576.803 353.285C575.621 352.753 574.465 352.202 573.335 351.635L571.54 355.21ZM578.858 358.506C580.076 358.994 581.319 359.464 582.587 359.914L583.923 356.143C582.707 355.712 581.515 355.262 580.347 354.793L578.858 358.506ZM586.378 361.171C587.638 361.562 588.922 361.932 590.229 362.281L591.26 358.416C590.004 358.081 588.771 357.725 587.561 357.35L586.378 361.171ZM594.117 363.238C595.394 363.527 596.692 363.795 598.012 364.042L598.748 360.11C597.477 359.872 596.227 359.614 594.998 359.336L594.117 363.238ZM601.957 364.705C603.258 364.9 604.58 365.074 605.921 365.227L606.374 361.253C605.079 361.105 603.804 360.937 602.549 360.749L601.957 364.705ZM609.872 365.609C611.186 365.714 612.518 365.798 613.869 365.861L614.056 361.866C612.749 361.805 611.46 361.723 610.19 361.622L609.872 365.609ZM617.835 365.984C618.504 365.995 619.178 366 619.856 366V362C619.199 362 618.545 361.995 617.896 361.985L617.835 365.984ZM619.856 366C620.549 366 621.238 365.995 621.922 365.984L621.858 361.984C621.196 361.995 620.528 362 619.856 362V366ZM626.006 365.853C627.386 365.787 628.745 365.698 630.085 365.588L629.757 361.602C628.463 361.708 627.148 361.794 625.813 361.858L626.006 365.853ZM634.157 365.182C635.535 365.019 636.891 364.834 638.225 364.627L637.612 360.674C636.326 360.874 635.019 361.052 633.689 361.209L634.157 365.182ZM642.27 363.92C643.633 363.655 644.971 363.366 646.286 363.056L645.367 359.163C644.104 359.461 642.817 359.739 641.506 359.994L642.27 363.92ZM650.265 362.032C651.602 361.658 652.914 361.261 654.199 360.843L652.962 357.039C651.73 357.44 650.472 357.821 649.188 358.179L650.265 362.032ZM658.081 359.488C659.382 359.002 660.656 358.494 661.901 357.965L660.338 354.283C659.147 354.789 657.928 355.275 656.681 355.741L658.081 359.488ZM665.65 356.275C666.906 355.674 668.132 355.053 669.328 354.414L667.442 350.886C666.299 351.498 665.127 352.092 663.925 352.666L665.65 356.275ZM672.918 352.388C674.114 351.676 675.278 350.946 676.409 350.201L674.209 346.86C673.128 347.572 672.016 348.27 670.873 348.95L672.918 352.388ZM679.795 347.86C680.92 347.043 682.01 346.212 683.066 345.37L680.572 342.242C679.562 343.048 678.52 343.842 677.445 344.623L679.795 347.86ZM686.231 342.726C687.282 341.808 688.294 340.881 689.27 339.948L686.506 337.057C685.572 337.949 684.603 338.837 683.599 339.715L686.231 342.726ZM692.175 337.046C693.145 336.033 694.074 335.019 694.963 334.006L691.956 331.367C691.105 332.337 690.216 333.309 689.287 334.278L692.175 337.046ZM697.604 330.864C698.488 329.765 699.325 328.675 700.119 327.599L696.899 325.226C696.138 326.258 695.335 327.303 694.488 328.356L697.604 330.864ZM702.486 324.242C703.28 323.063 704.02 321.91 704.708 320.791L701.3 318.696C700.64 319.77 699.931 320.876 699.169 322.006L702.486 324.242Z" fill="black"/>
<path d="M742 327.625L721.433 338.128L740.812 350.688L742 327.625ZM254 304C252.155 304.773 252.155 304.773 252.155 304.773C252.155 304.773 252.155 304.773 252.155 304.773C252.155 304.773 252.156 304.773 252.156 304.773C252.156 304.774 252.156 304.774 252.156 304.774C252.156 304.775 252.157 304.776 252.157 304.777C252.158 304.779 252.159 304.782 252.16 304.785C252.163 304.791 252.167 304.8 252.172 304.811C252.181 304.833 252.195 304.865 252.212 304.906C252.248 304.989 252.3 305.108 252.369 305.264C252.507 305.575 252.713 306.029 252.991 306.618L256.609 304.911C256.344 304.351 256.151 303.924 256.024 303.639C255.961 303.497 255.915 303.391 255.885 303.322C255.87 303.287 255.859 303.262 255.853 303.246C255.849 303.238 255.847 303.233 255.846 303.23C255.845 303.228 255.845 303.227 255.844 303.227C255.844 303.226 255.844 303.226 255.844 303.227C255.844 303.227 255.844 303.227 255.844 303.227C255.845 303.227 255.845 303.227 255.845 303.227C255.845 303.227 255.845 303.227 255.845 303.227C255.845 303.227 255.845 303.227 254 304ZM254.792 310.248C255.343 311.312 255.985 312.516 256.722 313.847L260.221 311.909C259.503 310.612 258.878 309.441 258.344 308.409L254.792 310.248ZM258.712 317.338C259.345 318.42 260.029 319.56 260.763 320.752L264.169 318.656C263.451 317.488 262.782 316.373 262.163 315.316L258.712 317.338ZM262.892 324.134C263.594 325.223 264.333 326.348 265.111 327.504L268.43 325.272C267.667 324.137 266.943 323.035 266.255 321.967L262.892 324.134ZM267.407 330.847C268.146 331.901 268.915 332.977 269.713 334.073L272.946 331.718C272.162 330.642 271.408 329.586 270.683 328.551L267.407 330.847ZM272.128 337.324C272.915 338.363 273.727 339.418 274.566 340.487L277.712 338.016C276.888 336.966 276.09 335.93 275.317 334.91L272.128 337.324ZM277.076 343.626C277.907 344.647 278.762 345.679 279.64 346.72L282.698 344.142C281.835 343.118 280.995 342.104 280.178 341.101L277.076 343.626ZM282.248 349.76C283.117 350.755 284.007 351.758 284.919 352.767L287.887 350.086C286.991 349.094 286.116 348.108 285.262 347.13L282.248 349.76ZM287.63 355.718C288.531 356.683 289.452 357.653 290.393 358.626L293.27 355.847C292.345 354.889 291.439 353.936 290.553 352.987L287.63 355.718ZM293.212 361.496C294.143 362.427 295.091 363.362 296.058 364.298L298.841 361.425C297.89 360.504 296.957 359.585 296.042 358.669L293.212 361.496ZM298.99 367.091C299.946 367.987 300.919 368.885 301.909 369.783L304.596 366.82C303.622 365.937 302.665 365.054 301.725 364.173L298.99 367.091ZM304.931 372.479C305.919 373.346 306.923 374.213 307.943 375.08L310.533 372.031C309.529 371.179 308.541 370.326 307.569 369.472L304.931 372.479ZM311.025 377.655C312.054 378.501 313.098 379.345 314.158 380.189L316.648 377.058C315.605 376.228 314.577 375.397 313.565 374.565L311.025 377.655ZM317.293 382.641C318.354 383.457 319.429 384.271 320.519 385.083L322.907 381.874C321.834 381.075 320.776 380.274 319.733 379.472L317.293 382.641ZM323.735 387.438C324.81 388.212 325.9 388.983 327.003 389.752L329.289 386.469C328.203 385.713 327.131 384.953 326.073 384.192L323.735 387.438ZM330.349 392.043C331.438 392.775 332.539 393.504 333.654 394.23L335.836 390.877C334.738 390.163 333.654 389.445 332.583 388.724L330.349 392.043ZM337.039 396.395C338.17 397.106 339.314 397.813 340.471 398.516L342.547 395.097C341.408 394.405 340.281 393.709 339.168 393.009L337.039 396.395ZM343.882 400.552C345.032 401.226 346.194 401.896 347.37 402.561L349.34 399.081C348.183 398.425 347.038 397.766 345.906 397.102L343.882 400.552ZM350.888 404.517C352.043 405.149 353.211 405.775 354.391 406.396L356.255 402.857C355.093 402.245 353.943 401.628 352.805 401.007L350.888 404.517ZM357.966 408.246C359.156 408.849 360.357 409.448 361.57 410.042L363.327 406.448C362.132 405.864 360.949 405.274 359.777 404.679L357.966 408.246ZM365.151 411.76C366.356 412.328 367.572 412.89 368.8 413.446L370.451 409.803C369.241 409.255 368.043 408.701 366.855 408.141L365.151 411.76ZM372.493 415.087C373.697 415.612 374.912 416.131 376.138 416.644L377.683 412.954C376.475 412.448 375.277 411.937 374.091 411.42L372.493 415.087ZM379.847 418.166C381.094 418.667 382.352 419.163 383.621 419.652L385.06 415.92C383.809 415.437 382.568 414.949 381.339 414.454L379.847 418.166ZM387.327 421.051C388.569 421.51 389.82 421.963 391.082 422.41L392.417 418.639C391.173 418.198 389.938 417.752 388.714 417.299L387.327 421.051ZM394.899 423.731C396.156 424.156 397.423 424.576 398.699 424.989L399.93 421.183C398.671 420.775 397.421 420.362 396.182 419.942L394.899 423.731ZM402.487 426.186C403.759 426.579 405.041 426.965 406.333 427.345L407.462 423.508C406.187 423.133 404.922 422.751 403.667 422.364L402.487 426.186ZM410.237 428.466C411.497 428.818 412.766 429.165 414.044 429.505L415.073 425.639C413.811 425.304 412.558 424.962 411.315 424.614L410.237 428.466ZM417.906 430.506C419.202 430.833 420.508 431.154 421.822 431.468L422.752 427.577C421.454 427.267 420.165 426.95 418.885 426.627L417.906 430.506ZM425.742 432.378C427.022 432.667 428.31 432.949 429.607 433.225L430.44 429.313C429.159 429.04 427.886 428.761 426.622 428.476L425.742 432.378ZM433.524 434.034C434.838 434.297 436.161 434.553 437.492 434.803L438.229 430.871C436.914 430.624 435.607 430.371 434.309 430.111L433.524 434.034ZM441.429 435.516C442.723 435.743 444.024 435.963 445.334 436.177L445.979 432.23C444.684 432.018 443.398 431.8 442.119 431.576L441.429 435.516ZM449.288 436.799C450.614 437 451.947 437.194 453.29 437.382L453.843 433.42C452.516 433.235 451.197 433.043 449.887 432.844L449.288 436.799ZM457.252 437.912C458.554 438.079 459.863 438.24 461.18 438.394L461.645 434.421C460.343 434.269 459.048 434.11 457.761 433.945L457.252 437.912ZM465.153 438.838C466.485 438.979 467.825 439.114 469.172 439.242L469.551 435.26C468.218 435.133 466.893 435 465.575 434.86L465.153 438.838ZM473.173 439.6C474.478 439.71 475.789 439.814 477.108 439.912L477.403 435.923C476.098 435.826 474.8 435.723 473.509 435.615L473.173 439.6ZM481.086 440.185C482.419 440.27 483.758 440.348 485.106 440.42L485.319 436.426C483.985 436.355 482.659 436.277 481.34 436.193L481.086 440.185ZM489.162 440.616C490.465 440.672 491.775 440.723 493.091 440.767L493.225 436.769C491.921 436.725 490.625 436.676 489.335 436.62L489.162 440.616ZM497.058 440.88C498.387 440.912 499.723 440.938 501.065 440.957L501.122 436.957C499.793 436.938 498.47 436.913 497.154 436.882L497.058 440.88ZM505.112 440.995C505.79 440.998 506.469 441 507.15 441V437C506.475 437 505.802 436.998 505.131 436.995L505.112 440.995ZM507.15 441C507.83 441 508.508 440.998 509.184 440.995L509.165 436.995C508.495 436.998 507.823 437 507.15 437V441ZM513.22 440.957C514.559 440.938 515.891 440.913 517.216 440.881L517.12 436.882C515.808 436.913 514.489 436.938 513.163 436.957L513.22 440.957ZM521.193 440.767C522.549 440.722 523.898 440.67 525.24 440.611L525.066 436.615C523.737 436.673 522.402 436.724 521.059 436.769L521.193 440.767ZM529.243 440.416C530.57 440.345 531.891 440.268 533.204 440.184L532.949 436.192C531.649 436.275 530.343 436.352 529.029 436.422L529.243 440.416ZM537.246 439.904C538.588 439.804 539.923 439.698 541.25 439.585L540.91 435.599C539.597 435.711 538.277 435.817 536.949 435.915L537.246 439.904ZM545.208 439.227C546.556 439.098 547.896 438.962 549.229 438.819L548.803 434.842C547.485 434.983 546.16 435.117 544.826 435.245L545.208 439.227ZM553.224 438.369C554.548 438.213 555.863 438.049 557.171 437.88L556.657 433.913C555.364 434.081 554.063 434.242 552.754 434.397L553.224 438.369ZM561.175 437.337C562.509 437.149 563.835 436.953 565.152 436.751L564.546 432.797C563.244 432.997 561.934 433.19 560.615 433.377L561.175 437.337ZM569.079 436.125C570.418 435.904 571.748 435.676 573.068 435.441L572.368 431.503C571.063 431.735 569.749 431.96 568.427 432.179L569.079 436.125ZM577.018 434.714C578.328 434.464 579.63 434.208 580.923 433.945L580.126 430.025C578.849 430.285 577.564 430.538 576.269 430.784L577.018 434.714ZM584.889 433.113C586.202 432.828 587.506 432.537 588.8 432.24L587.904 428.342C586.626 428.635 585.339 428.923 584.043 429.203L584.889 433.113ZM592.695 431.318C594.011 430.998 595.317 430.671 596.614 430.337L595.617 426.463C594.337 426.793 593.048 427.116 591.749 427.432L592.695 431.318ZM600.475 429.315C601.779 428.961 603.073 428.6 604.357 428.233L603.257 424.387C601.99 424.75 600.713 425.106 599.427 425.455L600.475 429.315ZM608.218 427.099C609.498 426.714 610.769 426.322 612.029 425.923L610.823 422.109C609.58 422.502 608.328 422.889 607.065 423.269L608.218 427.099ZM615.882 424.675C617.156 424.252 618.419 423.823 619.672 423.388L618.359 419.609C617.124 420.039 615.878 420.462 614.622 420.878L615.882 424.675ZM623.465 422.039C624.734 421.577 625.991 421.11 627.238 420.635L625.816 416.897C624.587 417.364 623.348 417.825 622.098 418.28L623.465 422.039ZM630.963 419.187C632.224 418.686 633.474 418.179 634.712 417.666L633.18 413.971C631.96 414.477 630.729 414.976 629.487 415.47L630.963 419.187ZM638.393 416.108C639.637 415.57 640.869 415.026 642.09 414.476L640.447 410.829C639.245 411.37 638.031 411.906 636.805 412.436L638.393 416.108ZM645.736 412.8C646.958 412.227 648.167 411.648 649.364 411.064L647.61 407.469C646.431 408.044 645.24 408.614 644.037 409.178L645.736 412.8ZM652.969 409.269C654.169 408.66 655.355 408.046 656.53 407.427L654.663 403.889C653.508 404.498 652.339 405.103 651.159 405.702L652.969 409.269ZM660.086 405.514C661.263 404.869 662.427 404.219 663.578 403.564L661.6 400.087C660.467 400.732 659.322 401.372 658.163 402.006L660.086 405.514ZM667.078 401.534C668.233 400.852 669.374 400.165 670.501 399.474L668.411 396.064C667.302 396.744 666.18 397.419 665.044 398.09L667.078 401.534ZM673.938 397.329C675.07 396.61 676.188 395.886 677.292 395.158L675.091 391.818C674.005 392.534 672.905 393.246 671.792 393.953L673.938 397.329ZM680.657 392.9C681.764 392.143 682.858 391.383 683.937 390.619L681.626 387.355C680.565 388.105 679.49 388.853 678.4 389.598L680.657 392.9ZM687.225 388.25C688.308 387.455 689.377 386.657 690.43 385.857L688.01 382.672C686.975 383.459 685.924 384.243 684.859 385.025L687.225 388.25ZM693.632 383.381C694.691 382.547 695.734 381.712 696.761 380.875L694.235 377.774C693.225 378.597 692.2 379.418 691.159 380.237L693.632 383.381ZM699.87 378.297C700.903 377.425 701.92 376.552 702.92 375.678L700.288 372.666C699.305 373.525 698.306 374.383 697.29 375.24L699.87 378.297ZM705.926 373.005C706.933 372.093 707.923 371.182 708.894 370.272L706.159 367.353C705.204 368.247 704.232 369.143 703.243 370.038L705.926 373.005ZM711.79 367.511C712.77 366.56 713.731 365.611 714.673 364.664L711.838 361.843C710.912 362.773 709.967 363.706 709.005 364.64L711.79 367.511ZM717.481 361.792C718.421 360.813 719.341 359.838 720.242 358.866L717.309 356.147C716.424 357.101 715.52 358.059 714.596 359.021L717.481 361.792ZM722.963 355.879C723.866 354.868 724.749 353.863 725.611 352.864L722.582 350.251C721.736 351.232 720.869 352.219 719.981 353.212L722.963 355.879ZM728.213 349.791C729.088 348.739 729.94 347.694 730.769 346.659L727.647 344.159C726.833 345.175 725.997 346.2 725.137 347.234L728.213 349.791ZM733.255 343.496C734.086 342.418 734.892 341.352 735.672 340.3L732.46 337.917C731.694 338.95 730.903 339.995 730.087 341.053L733.255 343.496ZM738.048 337.033C738.849 335.909 739.62 334.804 740.362 333.718L737.061 331.461C736.333 332.525 735.576 333.609 734.791 334.711L738.048 337.033Z" fill="black"/>
<path d="M549 137.5L568.693 125.436L548.399 114.414L549 137.5ZM728 148C729.89 147.347 729.89 147.346 729.89 147.346C729.89 147.346 729.89 147.346 729.89 147.346C729.89 147.346 729.89 147.346 729.89 147.346C729.89 147.345 729.89 147.345 729.89 147.344C729.889 147.344 729.889 147.343 729.888 147.341C729.888 147.339 729.887 147.336 729.885 147.332C729.883 147.325 729.879 147.316 729.875 147.303C729.867 147.279 729.854 147.245 729.839 147.201C729.807 147.114 729.761 146.988 729.7 146.827C729.577 146.503 729.394 146.035 729.147 145.438L725.452 146.972C725.683 147.528 725.85 147.957 725.959 148.243C726.013 148.386 726.052 148.493 726.077 148.562C726.09 148.596 726.098 148.621 726.104 148.637C726.107 148.645 726.108 148.65 726.109 148.653C726.11 148.654 726.11 148.655 726.11 148.655C726.11 148.655 726.11 148.655 726.11 148.655C726.11 148.655 726.11 148.654 726.11 148.654C726.11 148.654 726.11 148.654 726.11 148.654C726.11 148.654 726.11 148.654 726.11 148.654C726.11 148.654 726.11 148.653 728 148ZM727.483 141.741C726.968 140.673 726.365 139.479 725.666 138.18L722.144 140.075C722.813 141.319 723.389 142.461 723.88 143.478L727.483 141.741ZM723.697 134.696C723.052 133.606 722.35 132.469 721.59 131.295L718.232 133.468C718.962 134.597 719.636 135.689 720.256 136.735L723.697 134.696ZM719.341 127.966C718.599 126.912 717.812 125.838 716.98 124.748L713.802 127.177C714.602 128.224 715.358 129.257 716.071 130.27L719.341 127.966ZM714.493 121.623C713.662 120.619 712.792 119.609 711.882 118.595L708.905 121.266C709.778 122.239 710.614 123.21 711.412 124.174L714.493 121.623ZM709.152 115.671C708.238 114.731 707.289 113.792 706.304 112.858L703.551 115.76C704.496 116.656 705.407 117.557 706.283 118.459L709.152 115.671ZM703.343 110.162C702.352 109.297 701.328 108.438 700.271 107.59L697.767 110.709C698.78 111.522 699.761 112.345 700.712 113.175L703.343 110.162ZM697.093 105.146C696.031 104.365 694.938 103.595 693.815 102.839L691.582 106.158C692.658 106.882 693.705 107.619 694.722 108.368L697.093 105.146ZM690.452 100.679C689.33 99.9909 688.179 99.3177 686.999 98.6616L685.055 102.157C686.185 102.786 687.287 103.43 688.362 104.089L690.452 100.679ZM683.46 96.7903C682.28 96.198 681.074 95.6231 679.84 95.0674L678.197 98.7145C679.379 99.247 680.535 99.7978 681.665 100.365L683.46 96.7903ZM676.142 93.4942C674.924 93.0056 673.681 92.5358 672.413 92.0864L671.077 95.8567C672.293 96.2878 673.485 96.7383 674.653 97.2067L676.142 93.4942ZM668.622 90.8286C667.362 90.4382 666.078 90.068 664.771 89.7192L663.74 93.584C664.996 93.9192 666.229 94.2748 667.439 94.6495L668.622 90.8286ZM660.883 88.762C659.606 88.4734 658.308 88.205 656.988 87.9581L656.252 91.8899C657.523 92.1277 658.773 92.386 660.002 92.6636L660.883 88.762ZM653.043 87.2947C651.742 87.0999 650.42 86.9256 649.079 86.7729L648.626 90.7473C649.921 90.8947 651.196 91.0628 652.451 91.2506L653.043 87.2947ZM645.128 86.3911C643.814 86.2863 642.482 86.2018 641.131 86.1386L640.944 90.1342C642.251 90.1954 643.54 90.2771 644.81 90.3784L645.128 86.3911ZM637.165 86.0156C636.496 86.0052 635.822 86 635.144 86V90C635.801 90 636.455 90.0051 637.104 90.0151L637.165 86.0156ZM635.144 86C634.451 86 633.762 86.0055 633.078 86.0163L633.142 90.0158C633.804 90.0053 634.472 90 635.144 90V86ZM628.994 86.1466C627.614 86.2131 626.255 86.3019 624.915 86.4119L625.243 90.3985C626.537 90.2921 627.852 90.2063 629.187 90.1419L628.994 86.1466ZM620.843 86.8184C619.465 86.9807 618.109 87.166 616.775 87.3732L617.388 91.3258C618.674 91.1262 619.981 90.9475 621.311 90.7909L620.843 86.8184ZM612.73 88.08C611.367 88.3452 610.029 88.6335 608.714 88.9437L609.633 92.8368C610.896 92.5387 612.183 92.2615 613.494 92.0064L612.73 88.08ZM604.735 89.9683C603.398 90.3421 602.086 90.7388 600.801 91.157L602.038 94.9608C603.27 94.56 604.528 94.1794 605.812 93.8207L604.735 89.9683ZM596.919 92.5121C595.618 92.9982 594.344 93.5064 593.099 94.0348L594.662 97.717C595.853 97.2113 597.072 96.7248 598.319 96.2593L596.919 92.5121ZM589.35 95.7251C588.094 96.3257 586.868 96.9468 585.672 97.5863L587.558 101.114C588.701 100.502 589.873 99.9084 591.075 99.334L589.35 95.7251ZM582.082 99.6123C580.886 100.324 579.722 101.054 578.591 101.799L580.791 105.14C581.872 104.428 582.984 103.73 584.127 103.05L582.082 99.6123ZM575.205 104.14C574.08 104.957 572.99 105.788 571.934 106.63L574.428 109.758C575.438 108.952 576.48 108.158 577.555 107.377L575.205 104.14ZM568.769 109.274C567.718 110.192 566.706 111.119 565.73 112.052L568.494 114.943C569.428 114.051 570.397 113.163 571.401 112.285L568.769 109.274ZM562.825 114.954C561.855 115.967 560.926 116.981 560.037 117.994L563.044 120.633C563.895 119.663 564.784 118.691 565.713 117.722L562.825 114.954ZM557.396 121.136C556.512 122.235 555.675 123.325 554.881 124.401L558.101 126.774C558.862 125.742 559.665 124.697 560.512 123.644L557.396 121.136ZM552.514 127.758C551.72 128.937 550.98 130.09 550.292 131.209L553.7 133.304C554.36 132.23 555.069 131.124 555.831 129.994L552.514 127.758Z" fill="black"/>
<path d="M306 137.5L325.693 125.436L305.399 114.414L306 137.5ZM485 148C486.89 147.347 486.89 147.346 486.89 147.346C486.89 147.346 486.89 147.346 486.89 147.346C486.89 147.346 486.89 147.346 486.89 147.346C486.89 147.345 486.89 147.345 486.89 147.344C486.889 147.344 486.889 147.343 486.888 147.341C486.888 147.339 486.887 147.336 486.885 147.332C486.883 147.325 486.879 147.316 486.875 147.303C486.867 147.279 486.854 147.245 486.839 147.201C486.807 147.114 486.761 146.988 486.7 146.827C486.577 146.503 486.394 146.035 486.147 145.438L482.452 146.972C482.683 147.528 482.85 147.957 482.959 148.243C483.013 148.386 483.052 148.493 483.077 148.562C483.09 148.596 483.098 148.621 483.104 148.637C483.107 148.645 483.108 148.65 483.109 148.653C483.11 148.654 483.11 148.655 483.11 148.655C483.11 148.655 483.11 148.655 483.11 148.655C483.11 148.655 483.11 148.654 483.11 148.654C483.11 148.654 483.11 148.654 483.11 148.654C483.11 148.654 483.11 148.654 483.11 148.654C483.11 148.654 483.11 148.653 485 148ZM484.483 141.741C483.968 140.673 483.365 139.479 482.666 138.18L479.144 140.075C479.813 141.319 480.389 142.461 480.88 143.478L484.483 141.741ZM480.697 134.696C480.052 133.606 479.35 132.469 478.59 131.295L475.232 133.468C475.962 134.597 476.636 135.689 477.256 136.735L480.697 134.696ZM476.341 127.966C475.599 126.912 474.812 125.838 473.98 124.748L470.802 127.177C471.602 128.224 472.358 129.257 473.071 130.27L476.341 127.966ZM471.493 121.623C470.662 120.619 469.792 119.609 468.882 118.595L465.905 121.266C466.778 122.239 467.614 123.21 468.412 124.174L471.493 121.623ZM466.152 115.671C465.238 114.731 464.289 113.792 463.304 112.858L460.551 115.76C461.496 116.656 462.407 117.557 463.283 118.459L466.152 115.671ZM460.343 110.162C459.352 109.297 458.328 108.438 457.271 107.59L454.767 110.709C455.78 111.522 456.761 112.345 457.712 113.175L460.343 110.162ZM454.093 105.146C453.031 104.365 451.938 103.595 450.815 102.839L448.582 106.158C449.658 106.882 450.705 107.619 451.722 108.368L454.093 105.146ZM447.452 100.679C446.33 99.9909 445.179 99.3177 443.999 98.6616L442.055 102.157C443.185 102.786 444.287 103.43 445.362 104.089L447.452 100.679ZM440.46 96.7903C439.28 96.198 438.074 95.6231 436.84 95.0674L435.197 98.7145C436.379 99.247 437.535 99.7978 438.665 100.365L440.46 96.7903ZM433.142 93.4942C431.924 93.0056 430.681 92.5358 429.413 92.0864L428.077 95.8567C429.293 96.2878 430.485 96.7383 431.653 97.2067L433.142 93.4942ZM425.622 90.8286C424.362 90.4382 423.078 90.068 421.771 89.7192L420.74 93.584C421.996 93.9192 423.229 94.2748 424.439 94.6495L425.622 90.8286ZM417.883 88.762C416.606 88.4734 415.308 88.205 413.988 87.9581L413.252 91.8899C414.523 92.1277 415.773 92.386 417.002 92.6636L417.883 88.762ZM410.043 87.2947C408.742 87.0999 407.42 86.9256 406.079 86.7729L405.626 90.7473C406.921 90.8947 408.196 91.0628 409.451 91.2506L410.043 87.2947ZM402.128 86.3911C400.814 86.2863 399.482 86.2018 398.131 86.1386L397.944 90.1342C399.251 90.1954 400.54 90.2771 401.81 90.3784L402.128 86.3911ZM394.165 86.0156C393.496 86.0052 392.822 86 392.144 86V90C392.801 90 393.455 90.0051 394.104 90.0151L394.165 86.0156ZM392.144 86C391.451 86 390.762 86.0055 390.078 86.0163L390.142 90.0158C390.804 90.0053 391.472 90 392.144 90V86ZM385.994 86.1466C384.614 86.2131 383.255 86.3019 381.915 86.4119L382.243 90.3985C383.537 90.2921 384.852 90.2063 386.187 90.1419L385.994 86.1466ZM377.843 86.8184C376.465 86.9807 375.109 87.166 373.775 87.3732L374.388 91.3258C375.674 91.1262 376.981 90.9475 378.311 90.7909L377.843 86.8184ZM369.73 88.08C368.367 88.3452 367.029 88.6335 365.714 88.9437L366.633 92.8368C367.896 92.5387 369.183 92.2615 370.494 92.0064L369.73 88.08ZM361.735 89.9683C360.398 90.3421 359.086 90.7388 357.801 91.157L359.038 94.9608C360.27 94.56 361.528 94.1794 362.812 93.8207L361.735 89.9683ZM353.919 92.5121C352.618 92.9982 351.344 93.5064 350.099 94.0348L351.662 97.717C352.853 97.2113 354.072 96.7248 355.319 96.2593L353.919 92.5121ZM346.35 95.7251C345.094 96.3257 343.868 96.9468 342.672 97.5863L344.558 101.114C345.701 100.502 346.873 99.9084 348.075 99.334L346.35 95.7251ZM339.082 99.6123C337.886 100.324 336.722 101.054 335.591 101.799L337.791 105.14C338.872 104.428 339.984 103.73 341.127 103.05L339.082 99.6123ZM332.205 104.14C331.08 104.957 329.99 105.788 328.934 106.63L331.428 109.758C332.438 108.952 333.48 108.158 334.555 107.377L332.205 104.14ZM325.769 109.274C324.718 110.192 323.706 111.119 322.73 112.052L325.494 114.943C326.428 114.051 327.397 113.163 328.401 112.285L325.769 109.274ZM319.825 114.954C318.855 115.967 317.926 116.981 317.037 117.994L320.044 120.633C320.895 119.663 321.784 118.691 322.713 117.722L319.825 114.954ZM314.396 121.136C313.512 122.235 312.675 123.325 311.881 124.401L315.101 126.774C315.862 125.742 316.665 124.697 317.512 123.644L314.396 121.136ZM309.514 127.758C308.72 128.937 307.98 130.09 307.292 131.209L310.7 133.304C311.36 132.23 312.069 131.124 312.831 129.994L309.514 127.758Z" fill="black"/>
<path d="M270 124.375L290.567 113.872L271.188 101.312L270 124.375ZM758 148C759.845 147.227 759.845 147.227 759.845 147.227C759.845 147.227 759.845 147.227 759.845 147.227C759.845 147.227 759.844 147.227 759.844 147.227C759.844 147.226 759.844 147.226 759.844 147.226C759.844 147.225 759.843 147.224 759.843 147.223C759.842 147.221 759.841 147.218 759.84 147.215C759.837 147.209 759.833 147.2 759.828 147.189C759.819 147.167 759.805 147.135 759.788 147.094C759.752 147.011 759.7 146.892 759.631 146.736C759.493 146.425 759.287 145.971 759.009 145.382L755.391 147.089C755.656 147.649 755.849 148.076 755.976 148.361C756.039 148.503 756.085 148.609 756.115 148.678C756.13 148.713 756.141 148.738 756.147 148.754C756.151 148.762 756.153 148.767 756.154 148.77C756.155 148.772 756.155 148.773 756.156 148.773C756.156 148.774 756.156 148.774 756.156 148.773C756.156 148.773 756.156 148.773 756.156 148.773C756.155 148.773 756.155 148.773 756.155 148.773C756.155 148.773 756.155 148.773 756.155 148.773C756.155 148.773 756.155 148.773 758 148ZM757.208 141.752C756.657 140.688 756.015 139.484 755.278 138.153L751.779 140.091C752.497 141.388 753.122 142.559 753.656 143.591L757.208 141.752ZM753.288 134.662C752.655 133.58 751.971 132.44 751.237 131.248L747.831 133.344C748.549 134.512 749.218 135.627 749.837 136.684L753.288 134.662ZM749.108 127.866C748.406 126.777 747.667 125.652 746.889 124.496L743.57 126.728C744.333 127.863 745.057 128.965 745.745 130.033L749.108 127.866ZM744.593 121.153C743.854 120.099 743.085 119.023 742.287 117.927L739.054 120.282C739.838 121.358 740.592 122.414 741.317 123.449L744.593 121.153ZM739.872 114.676C739.085 113.637 738.273 112.582 737.434 111.513L734.288 113.984C735.112 115.034 735.91 116.07 736.683 117.09L739.872 114.676ZM734.924 108.374C734.093 107.353 733.238 106.321 732.36 105.28L729.302 107.858C730.165 108.882 731.005 109.896 731.822 110.899L734.924 108.374ZM729.752 102.24C728.883 101.245 727.993 100.242 727.081 99.2329L724.113 101.914C725.009 102.906 725.884 103.892 726.738 104.87L729.752 102.24ZM724.37 96.2818C723.469 95.3171 722.548 94.3474 721.607 93.3736L718.73 96.1529C719.655 97.1105 720.561 98.064 721.447 99.0127L724.37 96.2818ZM718.788 90.5039C717.857 89.5725 716.909 88.6382 715.942 87.7017L713.159 90.5747C714.11 91.4958 715.043 92.4148 715.958 93.3308L718.788 90.5039ZM713.01 84.9086C712.054 84.0126 711.081 83.1151 710.091 82.217L707.404 85.1797C708.378 86.0632 709.335 86.946 710.275 87.8274L713.01 84.9086ZM707.069 79.521C706.081 78.6539 705.077 77.7867 704.057 76.92L701.467 79.9686C702.471 80.8213 703.459 81.6745 704.431 82.5275L707.069 79.521ZM700.975 74.345C699.946 73.4993 698.902 72.6546 697.842 71.8114L695.352 74.9421C696.395 75.7718 697.423 76.603 698.435 77.4351L700.975 74.345ZM694.707 69.3586C693.646 68.5427 692.571 67.7287 691.481 66.9171L689.093 70.1258C690.166 70.9246 691.224 71.7256 692.267 72.5285L694.707 69.3586ZM688.265 64.5624C687.19 63.7883 686.1 63.0167 684.997 62.2483L682.711 65.5308C683.797 66.2871 684.869 67.0465 685.927 67.8084L688.265 64.5624ZM681.651 59.9574C680.562 59.225 679.461 58.4959 678.346 57.7703L676.164 61.1229C677.262 61.8372 678.346 62.5549 679.417 63.2758L681.651 59.9574ZM674.961 55.6049C673.83 54.8939 672.686 54.1868 671.529 53.484L669.453 56.903C670.592 57.595 671.719 58.2912 672.832 58.9911L674.961 55.6049ZM668.118 51.4482C666.968 50.7738 665.806 50.1038 664.63 49.4385L662.66 52.9195C663.817 53.5747 664.962 54.2344 666.094 54.8985L668.118 51.4482ZM661.112 47.4826C659.957 46.8515 658.789 46.2251 657.609 45.6036L655.745 49.1426C656.907 49.7547 658.057 50.3717 659.195 50.9932L661.112 47.4826ZM654.034 43.7544C652.844 43.1505 651.643 42.5518 650.43 41.9584L648.673 45.5518C649.868 46.1363 651.051 46.7262 652.223 47.3211L654.034 43.7544ZM646.849 40.2398C645.644 39.6723 644.428 39.1102 643.2 38.5538L641.549 42.1971C642.759 42.7455 643.957 43.2994 645.145 43.8586L646.849 40.2398ZM639.507 36.9129C638.303 36.3884 637.088 35.8695 635.862 35.3563L634.317 39.0459C635.525 39.5517 636.723 40.0632 637.909 40.5801L639.507 36.9129ZM632.153 33.8343C630.906 33.3328 629.648 32.8374 628.379 32.3482L626.94 36.0805C628.191 36.5628 629.432 37.0512 630.661 37.5456L632.153 33.8343ZM624.673 30.9491C623.431 30.4901 622.18 30.0372 620.918 29.5904L619.583 33.3611C620.827 33.8017 622.062 34.2484 623.286 34.7009L624.673 30.9491ZM617.101 28.269C615.844 27.8436 614.577 27.4243 613.301 27.0114L612.07 30.8173C613.329 31.2246 614.579 31.6382 615.818 32.0578L617.101 28.269ZM609.513 25.8142C608.241 25.4213 606.959 25.0348 605.667 24.6548L604.538 28.4921C605.813 28.8671 607.078 29.2485 608.333 29.6361L609.513 25.8142ZM601.763 23.5343C600.503 23.1818 599.234 22.8353 597.956 22.4953L596.927 26.3608C598.189 26.6965 599.442 27.0384 600.685 27.3864L601.763 23.5343ZM594.094 21.4943C592.798 21.1671 591.492 20.8464 590.178 20.5323L589.248 24.4229C590.546 24.733 591.835 25.0496 593.115 25.3726L594.094 21.4943ZM586.258 19.6222C584.978 19.3334 583.69 19.0509 582.393 18.7749L581.56 22.6873C582.841 22.9599 584.114 23.2389 585.378 23.5241L586.258 19.6222ZM578.476 17.9664C577.162 17.7035 575.839 17.4471 574.508 17.1975L573.771 21.129C575.086 21.3756 576.393 21.6289 577.691 21.8887L578.476 17.9664ZM570.571 16.4836C569.277 16.2569 567.976 16.0366 566.666 15.8227L566.021 19.7704C567.316 19.9818 568.602 20.1996 569.881 20.4236L570.571 16.4836ZM562.712 15.2007C561.386 14.9999 560.053 14.8057 558.71 14.6183L558.157 18.5798C559.484 18.7651 560.803 18.9571 562.113 19.1556L562.712 15.2007ZM554.748 14.0876C553.446 13.9206 552.137 13.76 550.82 13.6058L550.355 17.5786C551.657 17.7311 552.952 17.89 554.239 18.0551L554.748 14.0876ZM546.847 13.1625C545.515 13.0212 544.175 12.8865 542.828 12.7584L542.449 16.7405C543.782 16.8672 545.107 17.0004 546.425 17.1402L546.847 13.1625ZM538.827 12.3996C537.522 12.2896 536.211 12.1858 534.892 12.0882L534.597 16.0774C535.902 16.1739 537.2 16.2766 538.491 16.3855L538.827 12.3996ZM530.914 11.8147C529.581 11.7299 528.242 11.6515 526.894 11.5796L526.681 15.574C528.015 15.6451 529.341 15.7227 530.66 15.8066L530.914 11.8147ZM522.838 11.3838C521.535 11.3276 520.225 11.2773 518.909 11.2333L518.775 15.231C520.079 15.2747 521.375 15.3244 522.665 15.3801L522.838 11.3838ZM514.942 11.1196C513.613 11.0879 512.277 11.0624 510.935 11.0432L510.878 15.0428C512.207 15.0618 513.53 15.087 514.846 15.1184L514.942 11.1196ZM506.888 11.0048C506.21 11.0016 505.531 11 504.85 11V15C505.525 15 506.198 15.0016 506.869 15.0048L506.888 11.0048ZM504.85 11C504.17 11 503.492 11.0016 502.816 11.0048L502.835 15.0048C503.505 15.0016 504.177 15 504.85 15V11ZM498.78 11.0431C497.441 11.0621 496.109 11.0875 494.784 11.1191L494.88 15.1179C496.192 15.0867 497.511 15.0615 498.837 15.0427L498.78 11.0431ZM490.807 11.233C489.451 11.2785 488.102 11.3305 486.76 11.3889L486.934 15.3852C488.263 15.3273 489.598 15.2758 490.941 15.2308L490.807 11.233ZM482.757 11.5835C481.43 11.6548 480.109 11.7324 478.796 11.8162L479.051 15.8081C480.351 15.7251 481.657 15.6483 482.971 15.5778L482.757 11.5835ZM474.754 12.0956C473.412 12.1955 472.077 12.302 470.75 12.4149L471.09 16.4005C472.403 16.2888 473.723 16.1834 475.051 16.0846L474.754 12.0956ZM466.792 12.7731C465.444 12.9023 464.104 13.0383 462.771 13.1809L463.197 17.1582C464.515 17.0172 465.84 16.8827 467.174 16.7548L466.792 12.7731ZM458.776 13.6309C457.452 13.7874 456.137 13.9506 454.829 14.1202L455.343 18.087C456.636 17.9193 457.937 17.758 459.246 17.6032L458.776 13.6309ZM450.825 14.6628C449.491 14.8515 448.165 15.0469 446.848 15.2489L447.454 19.2027C448.756 19.003 450.066 18.8099 451.385 18.6234L450.825 14.6628ZM442.921 15.8747C441.582 16.0961 440.252 16.3243 438.932 16.5592L439.632 20.4974C440.937 20.2653 442.251 20.0398 443.573 19.8211L442.921 15.8747ZM434.982 17.2865C433.672 17.5361 432.37 17.7923 431.077 18.0551L431.874 21.975C433.151 21.7155 434.436 21.4624 435.731 21.2158L434.982 17.2865ZM427.111 18.8874C425.798 19.1716 424.494 19.4625 423.2 19.76L424.096 23.6584C425.374 23.3647 426.661 23.0774 427.957 22.7968L427.111 18.8874ZM419.305 20.6817C417.989 21.0021 416.683 21.3293 415.386 21.6632L416.383 25.5369C417.663 25.2074 418.952 24.8844 420.251 24.5682L419.305 20.6817ZM411.525 22.6847C410.221 23.0389 408.927 23.3999 407.643 23.7674L408.743 27.613C410.01 27.2504 411.287 26.8943 412.573 26.5448L411.525 22.6847ZM403.782 24.9009C402.502 25.2864 401.231 25.6785 399.971 26.0769L401.177 29.8908C402.42 29.498 403.672 29.1113 404.935 28.7311L403.782 24.9009ZM396.118 27.325C394.844 27.7477 393.581 28.1768 392.328 28.6122L393.641 32.3905C394.876 31.9613 396.122 31.5382 397.378 31.1216L396.118 27.325ZM388.535 29.961C387.266 30.4225 386.009 30.8904 384.762 31.3646L386.184 35.1033C387.413 34.6361 388.652 34.1749 389.902 33.72L388.535 29.961ZM381.037 32.8126C379.776 33.3135 378.526 33.8208 377.288 34.3342L378.82 38.0292C380.04 37.5234 381.271 37.0237 382.513 36.5301L381.037 32.8126ZM373.607 35.8924C372.363 36.4302 371.131 36.9741 369.91 37.5239L371.553 41.171C372.755 40.6295 373.969 40.0938 375.195 39.5641L373.607 35.8924ZM366.264 39.2002C365.042 39.7732 363.833 40.352 362.636 40.9364L364.39 44.5311C365.569 43.9557 366.76 43.3858 367.963 42.8216L366.264 39.2002ZM359.031 42.7309C357.831 43.3397 356.645 43.954 355.47 44.5734L357.337 48.1113C358.492 47.5016 359.661 46.897 360.841 46.2977L359.031 42.7309ZM351.914 46.486C350.737 47.1311 349.573 47.7813 348.422 48.4363L350.4 51.9128C351.533 51.2683 352.678 50.6285 353.837 49.9936L351.914 46.486ZM344.922 50.466C343.767 51.148 342.626 51.8346 341.499 52.5255L343.589 55.9361C344.698 55.2564 345.82 54.5809 346.956 53.9099L344.922 50.466ZM338.062 54.6709C336.93 55.3904 335.812 56.1141 334.708 56.8416L336.909 60.1815C337.995 59.466 339.095 58.7542 340.208 58.0465L338.062 54.6709ZM331.343 59.0996C330.236 59.8565 329.142 60.617 328.063 61.3807L330.374 64.6455C331.435 63.8945 332.51 63.1467 333.6 62.4024L331.343 59.0996ZM324.775 63.7502C323.692 64.5451 322.623 65.3429 321.57 66.1433L323.99 69.3283C325.025 68.5415 326.076 67.757 327.141 66.9754L324.775 63.7502ZM318.368 68.6194C317.309 69.4527 316.266 70.2882 315.239 71.1253L317.765 74.2261C318.775 73.4032 319.8 72.5819 320.841 71.7627L318.368 68.6194ZM312.13 73.7031C311.097 74.5752 310.08 75.4484 309.08 76.3223L311.712 79.3344C312.695 78.4755 313.694 77.6172 314.71 76.76L312.13 73.7031ZM306.074 78.9955C305.067 79.9067 304.077 80.8179 303.106 81.7285L305.841 84.6474C306.796 83.7525 307.768 82.8571 308.757 81.9616L306.074 78.9955ZM300.21 84.489C299.23 85.4396 298.269 86.3888 297.327 87.3358L300.162 90.1572C301.088 89.2267 302.033 88.294 302.995 87.36L300.21 84.489ZM294.519 90.2081C293.579 91.1867 292.659 92.1622 291.758 93.1336L294.691 95.853C295.576 94.8988 296.48 93.9405 297.404 92.9791L294.519 90.2081ZM289.037 96.1214C288.134 97.1321 287.251 98.1374 286.389 99.1364L289.418 101.749C290.264 100.768 291.131 99.7806 292.019 98.7879L289.037 96.1214ZM283.787 102.209C282.912 103.261 282.06 104.306 281.231 105.341L284.353 107.841C285.167 106.825 286.003 105.8 286.863 104.766L283.787 102.209ZM278.745 108.504C277.914 109.582 277.108 110.648 276.328 111.7L279.54 114.083C280.306 113.05 281.097 112.005 281.913 110.947L278.745 108.504ZM273.952 114.967C273.151 116.091 272.38 117.196 271.638 118.282L274.939 120.539C275.667 119.475 276.424 118.391 277.209 117.289L273.952 114.967Z" fill="black"/>
<circle cx="246" cy="225" r="88" fill="white" stroke="#00A2FF" stroke-width="4"/>
<path d="M211.215 227.64V240H216.535V212.36H211.215V223.44H201.375V212.36H196.095V240H201.375V227.64H211.215ZM231.45 218.24C225.17 218.24 221.45 222.76 221.45 229.4C221.45 236.36 225.17 240.6 231.41 240.6C237.65 240.6 241.37 236.08 241.37 229.4C241.37 222.48 237.69 218.24 231.45 218.24ZM231.45 222.12C234.41 222.12 235.97 224.36 235.97 229.4C235.97 234.44 234.41 236.72 231.41 236.72C228.41 236.72 226.85 234.48 226.85 229.4C226.85 224.4 228.45 222.12 231.45 222.12ZM268.61 218.24C265.81 218.24 263.85 219.6 262.25 221.8C261.45 219.56 259.61 218.24 257.13 218.24C254.45 218.24 252.53 219.48 251.01 221.6L250.61 218.84H246.17V240H251.29V225.28C252.45 223.32 253.53 222.08 255.33 222.08C256.57 222.08 257.65 222.84 257.65 225.48V240H262.77V225.28C263.93 223.32 265.01 222.08 266.77 222.08C268.05 222.08 269.09 222.84 269.09 225.48V240H274.21V224.68C274.21 220.68 271.97 218.24 268.61 218.24ZM297.514 228.92C297.514 222.24 294.114 218.24 288.194 218.24C282.194 218.24 278.794 223.12 278.794 229.56C278.794 236.24 282.314 240.6 288.874 240.6C292.074 240.6 294.634 239.44 296.714 237.76L294.594 234.84C292.754 236.12 291.194 236.72 289.314 236.72C286.514 236.72 284.474 235.32 284.114 231H297.394C297.434 230.44 297.514 229.6 297.514 228.92ZM292.434 227.68H284.114C284.394 223.48 285.914 221.88 288.314 221.88C291.194 221.88 292.434 223.96 292.434 227.44V227.68Z" fill="#00A2FF"/>
<circle cx="506" cy="225" r="89" fill="white" stroke="black" stroke-width="2"/>
<path d="M480.968 240V212.36H476.168V225.32C476.168 229.24 476.648 233.24 476.888 234.76L467.248 212.36H460.568V240H465.368V228.72C465.368 223.6 464.928 220.08 464.648 217.64L474.128 240H480.968ZM504.643 228.92C504.643 222.24 501.243 218.24 495.323 218.24C489.323 218.24 485.923 223.12 485.923 229.56C485.923 236.24 489.443 240.6 496.003 240.6C499.203 240.6 501.763 239.44 503.843 237.76L501.723 234.84C499.883 236.12 498.323 236.72 496.443 236.72C493.643 236.72 491.603 235.32 491.243 231H504.523C504.563 230.44 504.643 229.6 504.643 228.92ZM499.563 227.68H491.243C491.523 223.48 493.043 221.88 495.443 221.88C498.323 221.88 499.563 223.96 499.563 227.44V227.68ZM530.593 240L535.193 218.84H530.273L527.113 236.24L523.753 218.84H518.513L514.833 236.24L511.873 218.84H506.753L511.433 240H517.713L520.993 223.4L524.193 240H530.593ZM545.408 218.24C540.488 218.24 537.248 220.88 537.248 224.4C537.248 227.52 539.168 229.6 543.528 230.8C547.488 231.92 548.328 232.48 548.328 234.32C548.328 235.8 546.848 236.8 544.528 236.8C542.408 236.8 540.448 235.96 538.848 234.68L536.248 237.6C538.208 239.36 541.048 240.6 544.688 240.6C549.528 240.6 553.608 238.28 553.608 233.88C553.608 230.12 551.168 228.36 546.848 227.2C543.248 226.2 542.408 225.56 542.408 224.16C542.408 222.88 543.568 222.04 545.728 222.04C547.488 222.04 549.168 222.64 550.928 223.84L552.928 220.76C550.928 219.2 548.448 218.24 545.408 218.24Z" fill="black"/>
<circle cx="766" cy="225" r="89" fill="white" stroke="black" stroke-width="2"/>
<path d="M717.654 212.36H709.494V240H714.774V230.36H718.014C724.254 230.36 728.854 227.52 728.854 221.16C728.854 215.2 724.614 212.36 717.654 212.36ZM717.614 226.4H714.774V216.24H717.614C721.214 216.24 723.334 217.68 723.334 221.16C723.334 225.2 721.134 226.4 717.614 226.4ZM743.407 218.28C740.927 218.28 738.887 219.96 737.887 223L737.407 218.84H732.967V240H738.087V228.72C738.887 225.16 740.207 223.28 742.767 223.28C743.487 223.28 744.007 223.36 744.647 223.52L745.527 218.56C744.847 218.36 744.167 218.28 743.407 218.28ZM756.958 218.24C750.678 218.24 746.958 222.76 746.958 229.4C746.958 236.36 750.678 240.6 756.918 240.6C763.158 240.6 766.878 236.08 766.878 229.4C766.878 222.48 763.198 218.24 756.958 218.24ZM756.958 222.12C759.918 222.12 761.478 224.36 761.478 229.4C761.478 234.44 759.918 236.72 756.918 236.72C753.918 236.72 752.358 234.48 752.358 229.4C752.358 224.4 753.958 222.12 756.958 222.12ZM780.438 209.8C774.678 209.8 772.278 212.72 772.278 216.6V218.84H768.998V222.52H772.278V240H777.398V222.52H784.078V240H789.198V218.84H777.398V216.68C777.398 214.68 778.158 213.72 780.918 213.72C782.558 213.72 784.078 214.12 785.358 214.72L786.918 211.32C785.198 210.48 783.118 209.8 780.438 209.8ZM800.27 234.84V209.8L795.15 210.36V235.2C795.15 238.72 796.95 240.6 800.11 240.6C801.43 240.6 802.71 240.32 803.75 239.88L802.67 236.28C802.31 236.4 801.87 236.48 801.47 236.48C800.63 236.48 800.27 236 800.27 234.84ZM824.116 228.92C824.116 222.24 820.716 218.24 814.796 218.24C808.796 218.24 805.396 223.12 805.396 229.56C805.396 236.24 808.916 240.6 815.476 240.6C818.676 240.6 821.236 239.44 823.316 237.76L821.196 234.84C819.356 236.12 817.796 236.72 815.916 236.72C813.116 236.72 811.076 235.32 810.716 231H823.996C824.036 230.44 824.116 229.6 824.116 228.92ZM819.036 227.68H810.716C810.996 223.48 812.516 221.88 814.916 221.88C817.796 221.88 819.036 223.96 819.036 227.44V227.68Z" fill="black"/>
</svg>
