<svg fill="none" height="486" viewBox="0 0 1012 486" width="1012" xmlns="http://www.w3.org/2000/svg"><path d="m0 0h1012v486h-1012z" fill="#fff"/><path d="m0 233h1012v253h-1012z" fill="#815cff" fill-opacity=".05"/><g fill="#000"><path d="m536.117 63.4721 22.517-5.1294-15.701-16.9357zm146.354 4.4254c1.661-1.114 1.661-1.1142 1.661-1.1144 0-.0001 0-.0003 0-.0004 0-.0003-.001-.0006-.001-.0009 0-.0006-.001-.0013-.001-.0019-.001-.0014-.002-.0029-.003-.0046-.002-.0032-.005-.0071-.008-.0115-.006-.0089-.014-.0201-.023-.0335-.019-.0268-.044-.0625-.076-.1069-.063-.0887-.154-.2118-.272-.3664-.237-.3092-.588-.7444-1.062-1.2826l-3 2.6454c.412.468.705.833.889 1.0724.091.1197.156.2081.195.2622.019.0271.032.0456.039.0552.003.0048.005.0074.005.0077 0 .0002 0-.0002-.001-.0012 0-.0005 0-.0011-.001-.0019 0-.0004 0-.0008-.001-.0013 0-.0002 0-.0004 0-.0007 0-.0001 0-.0003 0-.0004-.001-.0002-.001-.0004 1.66-1.1143zm-2.835-5.9957c-.934-.8483-2.027-1.7732-3.294-2.7472l-2.438 3.1714c1.179.9057 2.188 1.7602 3.042 2.536zm-6.758-5.2191c-1.108-.7359-2.31-1.4849-3.61-2.237l-2.004 3.4621c1.229.711 2.361 1.4168 3.402 2.1077zm-7.335-4.2549c-1.199-.6082-2.466-1.2126-3.803-1.8079l-1.627 3.6539c1.275.5681 2.481 1.1437 3.621 1.7216zm-7.695-3.4334c-1.265-.4947-2.584-.9789-3.958-1.4493l-1.295 3.7843c1.32.452 2.585.9166 3.796 1.3904zm-7.946-2.7266c-1.301-.3889-2.646-.7646-4.036-1.1249l-1.004 3.872c1.343.3481 2.641.7107 3.895 1.0854zm-8.109-2.1052c-1.328-.2961-2.694-.5779-4.098-.8437l-.745 3.9301c1.363.258 2.687.5311 3.973.8178zm-8.217-1.5589c-1.346-.2131-2.724-.4116-4.134-.5944l-.514 3.9669c1.374.1779 2.714.3711 4.022.5783zm-8.282-1.0751c-1.358-.1394-2.745-.2643-4.16-.3738l-.309 3.9881c1.383.107 2.736.2289 4.061.3648zm-8.333-.6465c-1.359-.0728-2.743-.1317-4.153-.1758l-.125 3.998c1.38.0432 2.735.1009 4.064.1721zm-8.301-.2616c-.698-.0072-1.401-.0108-2.11-.0108v4c.695 0 1.385.0035 2.068.0105zm-2.11-.0108c-.715 0-1.423.0037-2.125.0109l.041 3.9998c.689-.0071 1.383-.0107 2.084-.0107zm-6.34.0994c-1.432.0456-2.837.1064-4.214.1818l.218 3.994c1.347-.0737 2.721-.1332 4.123-.1778zm-8.422.4625c-1.432.1132-2.833.2423-4.203.3864l.418 3.978c1.336-.1404 2.702-.2663 4.1-.3768zm-8.413.8873c-1.431.1908-2.827.3982-4.189.6208l.646 3.9476c1.322-.2162 2.679-.4178 4.072-.6034zm-8.347 1.3681c-1.429.2805-2.815.5779-4.161.8905l.905 3.8963c1.301-.3021 2.642-.59 4.027-.8617zm-8.269 1.9238c-1.414.3838-2.778.7841-4.093 1.1983l1.202 3.8152c1.263-.398 2.576-.7833 3.938-1.1532zm-8.128 2.5649c-1.385.5035-2.709 1.0215-3.974 1.55l1.543 3.6906c1.206-.504 2.471-.999 3.797-1.4812zm-7.878 3.2999c-1.35.6487-2.62 1.3062-3.814 1.9657l1.935 3.5008c1.127-.6225 2.329-1.245 3.611-1.8608zm-7.506 4.1592c-1.301.8308-2.484 1.653-3.558 2.453l2.39 3.2076c.997-.743 2.102-1.5106 3.321-2.2895z" fill-opacity=".25"/><path d="m337.434 63.4721 22.518-5.1294-15.701-16.9357zm146.355 4.4254c1.661-1.114 1.661-1.1142 1.661-1.1144 0-.0001 0-.0003-.001-.0004 0-.0003 0-.0006 0-.0009-.001-.0006-.001-.0013-.001-.0019-.001-.0014-.002-.0029-.003-.0046-.003-.0032-.005-.0071-.008-.0115-.006-.0089-.014-.0201-.023-.0335-.019-.0268-.044-.0625-.076-.1069-.063-.0887-.154-.2118-.273-.3664-.237-.3092-.587-.7444-1.062-1.2826l-3 2.6454c.413.468.705.833.889 1.0724.092.1197.157.2081.196.2622.019.0271.032.0456.039.0552.003.0048.005.0074.005.0077 0 .0002 0-.0002-.001-.0012 0-.0005-.001-.0011-.001-.0019-.001-.0004-.001-.0008-.001-.0013 0-.0002 0-.0004-.001-.0007 0-.0001 0-.0003 0-.0004 0-.0002 0-.0004 1.661-1.1143zm-2.836-5.9957c-.933-.8483-2.026-1.7732-3.294-2.7472l-2.437 3.1714c1.178.9057 2.188 1.7602 3.041 2.536zm-6.757-5.2191c-1.109-.7359-2.311-1.4849-3.611-2.237l-2.003 3.4621c1.229.711 2.361 1.4168 3.402 2.1077zm-7.335-4.2549c-1.2-.6082-2.467-1.2126-3.803-1.8079l-1.628 3.6539c1.276.5681 2.482 1.1437 3.622 1.7216zm-7.695-3.4334c-1.266-.4947-2.584-.9789-3.958-1.4493l-1.296 3.7843c1.32.452 2.585.9166 3.797 1.3904zm-7.946-2.7266c-1.302-.3889-2.647-.7646-4.037-1.1249l-1.003 3.872c1.342.3481 2.64.7107 3.894 1.0854zm-8.109-2.1052c-1.329-.2961-2.695-.5779-4.099-.8437l-.744 3.9301c1.362.258 2.686.5311 3.973.8178zm-8.217-1.5589c-1.346-.2131-2.724-.4116-4.135-.5944l-.514 3.9669c1.374.1779 2.715.3711 4.023.5783zm-8.282-1.0751c-1.358-.1394-2.745-.2643-4.16-.3738l-.309 3.9881c1.383.107 2.736.2289 4.06.3648zm-8.333-.6465c-1.36-.0728-2.744-.1317-4.153-.1758l-.125 3.998c1.38.0432 2.734.1009 4.063.1721zm-8.302-.2616c-.697-.0072-1.4-.0108-2.11-.0108v4c.696 0 1.386.0035 2.069.0105zm-2.11-.0108c-.714 0-1.422.0037-2.124.0109l.041 3.9998c.688-.0071 1.383-.0107 2.083-.0107zm-6.34.0994c-1.432.0456-2.836.1064-4.213.1818l.218 3.994c1.347-.0737 2.721-.1332 4.122-.1778zm-8.421.4625c-1.432.1132-2.833.2423-4.203.3864l.418 3.978c1.336-.1404 2.702-.2663 4.1-.3768zm-8.413.8873c-1.432.1908-2.828.3982-4.189.6208l.646 3.9476c1.321-.2162 2.678-.4178 4.071-.6034zm-8.347 1.3681c-1.429.2805-2.816.5779-4.161.8905l.905 3.8963c1.3-.3021 2.642-.59 4.026-.8617zm-8.27 1.9238c-1.414.3838-2.778.7841-4.093 1.1983l1.202 3.8152c1.264-.398 2.576-.7833 3.939-1.1532zm-8.127 2.5649c-1.386.5035-2.71 1.0215-3.974 1.55l1.542 3.6906c1.206-.504 2.471-.999 3.798-1.4812zm-7.878 3.2999c-1.351.6487-2.621 1.3062-3.814 1.9657l1.935 3.5008c1.126-.6225 2.329-1.245 3.611-1.8608zm-7.506 4.1592c-1.301.8308-2.485 1.653-3.558 2.453l2.389 3.2076c.998-.743 2.102-1.5106 3.322-2.2895z" fill-opacity=".25"/><path d="m308 57.9404 22.854-3.3182-14.3-18.1334zm399 9.9571c1.552-1.2613 1.552-1.2614 1.552-1.2616v-.0002c0-.0002-.001-.0004-.001-.0006 0-.0004 0-.0008-.001-.0013-.001-.0009-.001-.002-.002-.0032-.002-.0023-.005-.0052-.007-.0086-.006-.0068-.013-.0156-.022-.0264-.018-.0217-.043-.0515-.075-.0892-.064-.0754-.156-.1823-.277-.3192-.242-.2738-.6-.6673-1.083-1.1678l-2.88 2.7756c.442.4588.762.8104.966 1.0419.103.1158.177.2016.222.2557.023.0271.039.0463.049.0574.004.0055.007.009.008.0105.001.0007.001.001.001.0007 0-.0002-.001-.0004-.001-.0009 0-.0002 0-.0004 0-.0007-.001-.0001-.001-.0002-.001-.0004 0-.0001 0-.0002 0-.0002 0-.0001 0-.0003 1.552-1.2615zm-2.909-5.7725c-.908-.8266-1.964-1.7493-3.178-2.7534l-2.55 3.0817c1.165.9636 2.173 1.8451 3.035 2.6296zm-6.387-5.305c-1.025-.7843-2.13-1.6025-3.318-2.4495l-2.322 3.2567c1.151.8209 2.22 1.6124 3.209 2.3696zm-6.712-4.792c-1.095-.7321-2.248-1.4804-3.459-2.2423l-2.13 3.386c1.18.7422 2.302 1.4704 3.366 2.1819zm-6.982-4.394c-1.15-.6826-2.345-1.3735-3.588-2.0709l-1.958 3.488c1.215.6817 2.382 1.3565 3.505 2.0226zm-7.164-4.0256c-1.173-.6245-2.384-1.2528-3.632-1.8837l-1.804 3.5701c1.223.6181 2.408 1.2334 3.557 1.8446zm-7.337-3.708c-1.204-.5781-2.441-1.1573-3.71-1.7367l-1.661 3.6387c1.246.5687 2.459 1.1371 3.64 1.704zm-7.438-3.3978c-1.244-.5407-2.517-1.0807-3.819-1.6193l-1.529 3.6962c1.28.5296 2.531 1.0604 3.753 1.5915zm-7.573-3.1352c-1.257-.4955-2.539-.9892-3.847-1.4804l-1.406 3.7446c1.287.4837 2.549.9695 3.786 1.457zm-7.672-2.8829c-1.269-.4543-2.561-.906-3.877-1.3546l-1.291 3.7859c1.296.4421 2.57.8872 3.82 1.3347zm-7.75-2.6442c-1.282-.4169-2.586-.8306-3.91-1.2407l-1.183 3.8211c1.307.4046 2.592.8127 3.857 1.2237zm-7.812-2.4198c-1.299-.3829-2.616-.7622-3.953-1.1374l-1.081 3.8511c1.32.3706 2.621.745 3.902 1.1229zm-7.869-2.2098c-1.317-.3518-2.652-.6997-4.005-1.0433l-.984 3.8769c1.337.3396 2.656.6833 3.957 1.0309zm-7.921-2.0131c-1.322-.3193-2.661-.6344-4.016-.945l-.894 3.8989c1.341.3072 2.664.6187 3.971.9343zm-7.975-1.8289c-1.317-.2865-2.65-.5689-3.998-.8467l-.807 3.9176c1.334.275 2.652.5543 3.955.8377zm-8.031-1.6556c-1.31-.2555-2.634-.5068-3.973-.7537l-.725 3.9337c1.325.2444 2.635.4931 3.932.746zm-8.03-1.4809c-1.322-.23-2.656-.4556-4.005-.6768l-.647 3.9472c1.335.2191 2.657.4426 3.966.6704zm-8.023-1.3165c-1.353-.2087-2.719-.413-4.098-.6126l-.573 3.9588c1.367.1978 2.721.4002 4.061.607zm-8.083-1.1712c-1.337-.1814-2.686-.3584-4.048-.5309l-.503 3.9683c1.35.171 2.688.3465 4.013.5263zm-8.154-1.0328c-1.32-.1556-2.652-.307-3.995-.454l-.435 3.9763c1.332.1458 2.652.2959 3.962.4502zm-8.057-.8817c-1.362-.1377-2.734-.271-4.118-.3996l-.371 3.9828c1.374.1276 2.736.2599 4.086.3965zm-8.121-.7561c-1.344-.1145-2.699-.2248-4.064-.3306l-.309 3.9881c1.355.105 2.7.2144 4.034.3281zm-8.192-.6346c-1.329-.0929-2.668-.1816-4.017-.266l-.25 3.9922c1.339.0838 2.668.1719 3.988.2641zm-8.074-.5054c-1.362-.0755-2.734-.14668-4.115-.21345l-.193 3.99535c1.372.0663 2.734.137 4.086.212zm-8.177-.3958c-1.338-.05548-2.685-.10684-4.041-.15401l-.139 3.99761c1.347.0468 2.685.0979 4.014.153zm-8.135-.28286c-1.366-.03848-2.741-.07273-4.126-.10267l-.086 3.99903c1.375.0298 2.742.0638 4.099.1021zm-8.142-.17697c-1.347-.02074-2.703-.03742-4.066-.04997l-.037 3.9998c1.355.0125 2.703.0291 4.042.0497zm-8.184-.07516c-.69-.00211-1.383-.00317-2.077-.00317v3.99996c.69 0 1.379.0011 2.065.0032zm-2.077-.00317c-.684 0-1.365.00103-2.044.00307l.012 3.99999c.675-.002 1.352-.0031 2.032-.0031zm-6.094.02745c-1.341.01215-2.674.0283-3.998.04838l.06 3.99953c1.317-.0199 2.641-.036 3.975-.0481zm-8.055.12267c-1.353.02906-2.697.06226-4.032.09951l.112 3.99843c1.326-.037 2.661-.07 4.006-.0989zm-8.036.22425c-1.363.04694-2.717.09816-4.062.15355l.165 3.99664c1.335-.0551 2.68-.1059 4.035-.1526zm-8.068.33219c-1.357.06517-2.704.13464-4.042.2083l.22 3.9939c1.328-.0731 2.666-.1421 4.014-.2068zm-8.072.4447c-1.344.0838-2.678.1718-4.003.264l.278 3.9903c1.315-.0915 2.639-.1789 3.974-.262zm-8.054.5614c-1.34.1034-2.669.2112-3.988.3232l.338 3.9857c1.309-.1111 2.628-.2181 3.958-.3208zm-8.038.6833c-1.345.125-2.679.2544-4.002.3881l.402 3.9797c1.312-.1326 2.635-.261 3.97-.385zm-8.024.8114c-1.349.1477-2.685.2998-4.01.4562l.469 3.9724c1.313-.1551 2.639-.3059 3.976-.4523zm-8.011.9463c-1.35.1714-2.688.3473-4.013.5276l.54 3.9635c1.313-.1787 2.638-.3531 3.977-.5229zm-7.997 1.0884c-1.349.1963-2.685.3971-4.008.6024l.613 3.9527c1.31-.2033 2.634-.4023 3.971-.5968zm-7.98 1.2384c-1.347.2223-2.679.4493-3.998.6806l.692 3.9398c1.305-.229 2.624-.4537 3.957-.6739zm-7.961 1.3969c-1.341.2496-2.667.5036-3.978.7621l.774 3.9244c1.297-.2556 2.609-.507 3.936-.754zm-7.935 1.5645c-1.332.2777-2.648.5599-3.948.8464l.86 3.9063c1.286-.2832 2.587-.5622 3.904-.8369zm-7.901 1.7413c-1.32.3069-2.623.6182-3.909.9335l.953 3.8849c1.271-.3115 2.558-.6191 3.862-.9224zm-7.856 1.9276c-1.316.3402-2.614.6846-3.894 1.033l1.051 3.8595c1.263-.3438 2.544-.6838 3.844-1.0198zm-7.797 2.1234c-1.317.3774-2.614.7588-3.891 1.1439l1.155 3.8297c1.259-.3798 2.538-.756 3.838-1.1284zm-7.736 2.3331c-1.31.4156-2.599.835-3.866 1.2577l1.266 3.7944c1.248-.4164 2.518-.8296 3.81-1.2393zm-7.704 2.5712c-1.29.4526-2.557.9084-3.799 1.3669l1.384 3.7527c1.223-.451 2.469-.8996 3.739-1.3452zm-7.584 2.799c-1.288.4994-2.548 1.0014-3.782 1.5052l1.512 3.7032c1.212-.4949 2.451-.9883 3.717-1.4793zm-7.526 3.0735c-1.266.544-2.502 1.0894-3.708 1.6353l1.649 3.6443c1.183-.5354 2.396-1.0706 3.638-1.6045zm-7.382 3.3419c-1.248.5948-2.461 1.1893-3.641 1.7825l1.797 3.5736c1.155-.5806 2.343-1.1628 3.565-1.7455zm-7.246 3.6457c-1.23.653-2.419 1.3031-3.569 1.949l1.958 3.4876c1.123-.6305 2.285-1.2655 3.487-1.9038zm-7.098 3.9885c-1.209.7194-2.369 1.4315-3.481 2.1343l2.137 3.3813c1.082-.6836 2.211-1.377 3.39-2.0781zm-6.902 4.366c-1.178.7927-2.292 1.5699-3.346 2.3283l2.337 3.2464c1.02-.734 2.1-1.4873 3.242-2.2566z" fill-opacity=".25"/><path d="m536.117 290.472 22.517-5.129-15.701-16.936zm146.354 4.425c1.661-1.114 1.661-1.114 1.661-1.114 0-.001-.001-.001-.001-.001 0-.001-.001-.001-.001-.002-.001-.002-.002-.003-.003-.005-.002-.003-.005-.007-.008-.011-.006-.009-.014-.02-.023-.034-.019-.026-.044-.062-.076-.107-.063-.088-.154-.211-.272-.366-.237-.309-.588-.744-1.062-1.283l-3 2.646c.412.468.705.833.889 1.072.091.12.156.208.195.262.019.027.032.046.039.056.003.004.005.007.005.007s0 0-.001-.001c0 0 0-.001-.001-.002 0 0 0-.001-.001-.001v-.001c-.001 0-.001-.001 1.66-1.115zm-2.835-5.995c-.934-.848-2.027-1.773-3.294-2.747l-2.438 3.171c1.179.906 2.188 1.76 3.042 2.536zm-6.758-5.219c-1.108-.736-2.31-1.485-3.61-2.237l-2.004 3.462c1.229.711 2.361 1.417 3.402 2.108zm-7.335-4.255c-1.199-.608-2.466-1.213-3.803-1.808l-1.627 3.654c1.275.568 2.481 1.143 3.621 1.721zm-7.695-3.434c-1.265-.494-2.584-.978-3.958-1.449l-1.295 3.784c1.32.452 2.585.917 3.796 1.391zm-7.946-2.726c-1.301-.389-2.646-.765-4.036-1.125l-1.004 3.872c1.343.348 2.641.711 3.895 1.085zm-8.109-2.105c-1.328-.297-2.694-.578-4.098-.844l-.745 3.93c1.363.258 2.687.531 3.973.818zm-8.217-1.559c-1.346-.213-2.724-.412-4.134-.595l-.514 3.967c1.374.178 2.714.371 4.022.578zm-8.282-1.075c-1.358-.14-2.745-.265-4.16-.374l-.309 3.988c1.383.107 2.736.229 4.061.365zm-8.333-.647c-1.359-.073-2.743-.132-4.153-.176l-.125 3.998c1.38.044 2.735.101 4.064.172zm-8.301-.262c-.698-.007-1.401-.01-2.11-.01v4c.695 0 1.385.003 2.068.01zm-2.11-.01c-.715 0-1.423.003-2.125.011l.041 3.999c.689-.007 1.383-.01 2.084-.01zm-6.34.099c-1.432.046-2.837.107-4.214.182l.218 3.994c1.347-.074 2.721-.133 4.123-.178zm-8.422.463c-1.432.113-2.833.242-4.203.386l.418 3.978c1.336-.14 2.702-.266 4.1-.377zm-8.413.887c-1.431.191-2.827.398-4.189.621l.646 3.947c1.322-.216 2.679-.417 4.072-.603zm-8.347 1.368c-1.429.28-2.815.578-4.161.89l.905 3.897c1.301-.302 2.642-.59 4.027-.862zm-8.269 1.924c-1.414.384-2.778.784-4.093 1.198l1.202 3.815c1.263-.398 2.576-.783 3.938-1.153zm-8.128 2.565c-1.385.503-2.709 1.021-3.974 1.55l1.543 3.69c1.206-.504 2.471-.999 3.797-1.481zm-7.878 3.3c-1.35.648-2.62 1.306-3.814 1.965l1.935 3.501c1.127-.622 2.329-1.245 3.611-1.861zm-7.506 4.159c-1.301.831-2.484 1.653-3.558 2.453l2.39 3.207c.997-.743 2.102-1.51 3.321-2.289z" fill-opacity=".25"/><path d="m337.434 290.472 22.518-5.129-15.701-16.936zm146.355 4.425c1.661-1.114 1.661-1.114 1.661-1.114s0 0-.001 0c0-.001 0-.001 0-.001-.001-.001-.001-.001-.001-.002-.001-.002-.002-.003-.003-.005-.003-.003-.005-.007-.008-.011-.006-.009-.014-.02-.023-.034-.019-.026-.044-.062-.076-.107-.063-.088-.154-.211-.273-.366-.237-.309-.587-.744-1.062-1.283l-3 2.646c.413.468.705.833.889 1.072.092.12.157.208.196.262.019.027.032.046.039.056.003.004.005.007.005.007s0 0-.001-.001c0 0-.001-.001-.001-.002-.001 0-.001-.001-.001-.001s0-.001-.001-.001 0-.001 1.661-1.115zm-2.836-5.995c-.933-.848-2.026-1.773-3.294-2.747l-2.437 3.171c1.178.906 2.188 1.76 3.041 2.536zm-6.757-5.219c-1.109-.736-2.311-1.485-3.611-2.237l-2.003 3.462c1.229.711 2.361 1.417 3.402 2.108zm-7.335-4.255c-1.2-.608-2.467-1.213-3.803-1.808l-1.628 3.654c1.276.568 2.482 1.143 3.622 1.721zm-7.695-3.434c-1.266-.494-2.584-.978-3.958-1.449l-1.296 3.784c1.32.452 2.585.917 3.797 1.391zm-7.946-2.726c-1.302-.389-2.647-.765-4.037-1.125l-1.003 3.872c1.342.348 2.64.711 3.894 1.085zm-8.109-2.105c-1.329-.297-2.695-.578-4.099-.844l-.744 3.93c1.362.258 2.686.531 3.973.818zm-8.217-1.559c-1.346-.213-2.724-.412-4.135-.595l-.514 3.967c1.374.178 2.715.371 4.023.578zm-8.282-1.075c-1.358-.14-2.745-.265-4.16-.374l-.309 3.988c1.383.107 2.736.229 4.06.365zm-8.333-.647c-1.36-.073-2.744-.132-4.153-.176l-.125 3.998c1.38.044 2.734.101 4.063.172zm-8.302-.262c-.697-.007-1.4-.01-2.11-.01v4c.696 0 1.386.003 2.069.01zm-2.11-.01c-.714 0-1.422.003-2.124.011l.041 3.999c.688-.007 1.383-.01 2.083-.01zm-6.34.099c-1.432.046-2.836.107-4.213.182l.218 3.994c1.347-.074 2.721-.133 4.122-.178zm-8.421.463c-1.432.113-2.833.242-4.203.386l.418 3.978c1.336-.14 2.702-.266 4.1-.377zm-8.413.887c-1.432.191-2.828.398-4.189.621l.646 3.947c1.321-.216 2.678-.417 4.071-.603zm-8.347 1.368c-1.429.28-2.816.578-4.161.89l.905 3.897c1.3-.302 2.642-.59 4.026-.862zm-8.27 1.924c-1.414.384-2.778.784-4.093 1.198l1.202 3.815c1.264-.398 2.576-.783 3.939-1.153zm-8.127 2.565c-1.386.503-2.71 1.021-3.974 1.55l1.542 3.69c1.206-.504 2.471-.999 3.798-1.481zm-7.878 3.3c-1.351.648-2.621 1.306-3.814 1.965l1.935 3.501c1.126-.622 2.329-1.245 3.611-1.861zm-7.506 4.159c-1.301.831-2.485 1.653-3.558 2.453l2.389 3.207c.998-.743 2.102-1.51 3.322-2.289z" fill-opacity=".25"/><path d="m308 284.94 22.854-3.318-14.3-18.133zm399 9.957c1.552-1.261 1.552-1.261 1.552-1.261 0-.001-.001-.001-.001-.001s0-.001-.001-.001c-.001-.001-.001-.002-.002-.003-.002-.003-.005-.006-.007-.009-.006-.007-.013-.016-.022-.026-.018-.022-.043-.052-.075-.09-.064-.075-.156-.182-.277-.319-.242-.274-.6-.667-1.083-1.168l-2.88 2.776c.442.459.762.81.966 1.042.103.116.177.201.222.256.023.027.039.046.049.057.004.006.007.009.008.011h.001s-.001 0-.001-.001c-.001 0-.001-.001-.001-.001s0 0 1.552-1.262zm-2.909-5.772c-.908-.827-1.964-1.749-3.178-2.753l-2.55 3.081c1.165.964 2.173 1.845 3.035 2.63zm-6.387-5.305c-1.025-.784-2.13-1.603-3.318-2.45l-2.322 3.257c1.151.821 2.22 1.613 3.209 2.37zm-6.712-4.792c-1.095-.732-2.248-1.48-3.459-2.242l-2.13 3.386c1.18.742 2.302 1.47 3.366 2.182zm-6.982-4.394c-1.15-.683-2.345-1.374-3.588-2.071l-1.958 3.488c1.215.682 2.382 1.357 3.505 2.023zm-7.164-4.026c-1.173-.624-2.384-1.252-3.632-1.883l-1.804 3.57c1.223.618 2.408 1.233 3.557 1.844zm-7.337-3.708c-1.204-.578-2.441-1.157-3.71-1.736l-1.661 3.638c1.246.569 2.459 1.137 3.64 1.704zm-7.438-3.397c-1.244-.541-2.517-1.081-3.819-1.62l-1.529 3.697c1.28.529 2.531 1.06 3.753 1.591zm-7.573-3.136c-1.257-.495-2.539-.989-3.847-1.48l-1.406 3.745c1.287.483 2.549.969 3.786 1.457zm-7.672-2.883c-1.269-.454-2.561-.906-3.877-1.354l-1.291 3.786c1.296.442 2.57.887 3.82 1.334zm-7.75-2.644c-1.282-.417-2.586-.83-3.91-1.24l-1.183 3.821c1.307.404 2.592.812 3.857 1.223zm-7.812-2.42c-1.299-.382-2.616-.762-3.953-1.137l-1.081 3.851c1.32.371 2.621.745 3.902 1.123zm-7.869-2.209c-1.317-.352-2.652-.7-4.005-1.044l-.984 3.877c1.337.34 2.656.684 3.957 1.031zm-7.921-2.013c-1.322-.32-2.661-.635-4.016-.945l-.894 3.898c1.341.308 2.664.619 3.971.935zm-7.975-1.829c-1.317-.287-2.65-.569-3.998-.847l-.807 3.918c1.334.275 2.652.554 3.955.837zm-8.031-1.656c-1.31-.255-2.634-.507-3.973-.754l-.725 3.934c1.325.244 2.635.493 3.932.746zm-8.03-1.481c-1.322-.23-2.656-.455-4.005-.677l-.647 3.948c1.335.219 2.657.442 3.966.67zm-8.023-1.316c-1.353-.209-2.719-.413-4.098-.613l-.573 3.959c1.367.198 2.721.4 4.061.607zm-8.083-1.172c-1.337-.181-2.686-.358-4.048-.53l-.503 3.968c1.35.171 2.688.346 4.013.526zm-8.154-1.032c-1.32-.156-2.652-.307-3.995-.454l-.435 3.976c1.332.146 2.652.296 3.962.45zm-8.057-.882c-1.362-.138-2.734-.271-4.118-.4l-.371 3.983c1.374.128 2.736.26 4.086.397zm-8.121-.756c-1.344-.115-2.699-.225-4.064-.331l-.309 3.988c1.355.105 2.7.215 4.034.328zm-8.192-.635c-1.329-.093-2.668-.181-4.017-.266l-.25 3.992c1.339.084 2.668.172 3.988.265zm-8.074-.505c-1.362-.076-2.734-.147-4.115-.214l-.193 3.996c1.372.066 2.734.137 4.086.212zm-8.177-.396c-1.338-.055-2.685-.107-4.041-.154l-.139 3.998c1.347.047 2.685.098 4.014.153zm-8.135-.283c-1.366-.038-2.741-.072-4.126-.102l-.086 3.999c1.375.029 2.742.063 4.099.102zm-8.142-.177c-1.347-.02-2.703-.037-4.066-.05l-.037 4c1.355.013 2.703.029 4.042.05zm-8.184-.075c-.69-.002-1.383-.003-2.077-.003v4c.69 0 1.379.001 2.065.003zm-2.077-.003c-.684 0-1.365.001-2.044.003l.012 4c.675-.002 1.352-.003 2.032-.003zm-6.094.027c-1.341.013-2.674.029-3.998.049l.06 3.999c1.317-.02 2.641-.036 3.975-.048zm-8.055.123c-1.353.029-2.697.062-4.032.1l.112 3.998c1.326-.037 2.661-.07 4.006-.099zm-8.036.224c-1.363.047-2.717.098-4.062.154l.165 3.996c1.335-.055 2.68-.105 4.035-.152zm-8.068.332c-1.357.066-2.704.135-4.042.209l.22 3.994c1.328-.073 2.666-.142 4.014-.207zm-8.072.445c-1.344.084-2.678.172-4.003.264l.278 3.99c1.315-.091 2.639-.178 3.974-.261zm-8.054.562c-1.34.103-2.669.211-3.988.323l.338 3.985c1.309-.111 2.628-.218 3.958-.32zm-8.038.683c-1.345.125-2.679.254-4.002.388l.402 3.98c1.312-.133 2.635-.261 3.97-.385zm-8.024.811c-1.349.148-2.685.3-4.01.457l.469 3.972c1.313-.155 2.639-.306 3.976-.452zm-8.011.947c-1.35.171-2.688.347-4.013.527l.54 3.964c1.313-.179 2.638-.353 3.977-.523zm-7.997 1.088c-1.349.196-2.685.397-4.008.602l.613 3.953c1.31-.203 2.634-.402 3.971-.597zm-7.98 1.238c-1.347.223-2.679.45-3.998.681l.692 3.94c1.305-.229 2.624-.454 3.957-.674zm-7.961 1.397c-1.341.25-2.667.504-3.978.762l.774 3.925c1.297-.256 2.609-.507 3.936-.754zm-7.935 1.565c-1.332.278-2.648.56-3.948.846l.86 3.907c1.286-.284 2.587-.563 3.904-.837zm-7.901 1.741c-1.32.307-2.623.618-3.909.934l.953 3.885c1.271-.312 2.558-.62 3.862-.923zm-7.856 1.928c-1.316.34-2.614.684-3.894 1.033l1.051 3.859c1.263-.344 2.544-.684 3.844-1.02zm-7.797 2.123c-1.317.377-2.614.759-3.891 1.144l1.155 3.83c1.259-.38 2.538-.756 3.838-1.129zm-7.736 2.333c-1.31.416-2.599.835-3.866 1.258l1.266 3.794c1.248-.416 2.518-.829 3.81-1.239zm-7.704 2.571c-1.29.453-2.557.909-3.799 1.367l1.384 3.753c1.223-.451 2.469-.9 3.739-1.345zm-7.584 2.799c-1.288.5-2.548 1.002-3.782 1.506l1.512 3.703c1.212-.495 2.451-.988 3.717-1.48zm-7.526 3.074c-1.266.544-2.502 1.089-3.708 1.635l1.649 3.645c1.183-.536 2.396-1.071 3.638-1.605zm-7.382 3.342c-1.248.595-2.461 1.189-3.641 1.782l1.797 3.574c1.155-.581 2.343-1.163 3.565-1.746zm-7.246 3.645c-1.23.653-2.419 1.304-3.569 1.949l1.958 3.488c1.123-.63 2.285-1.265 3.487-1.904zm-7.098 3.989c-1.209.719-2.369 1.432-3.481 2.134l2.137 3.382c1.082-.684 2.211-1.377 3.39-2.079zm-6.902 4.366c-1.178.793-2.292 1.57-3.346 2.328l2.337 3.247c1.02-.734 2.1-1.488 3.242-2.257z" fill-opacity=".25"/><path d="m478.883 181.811-22.838 3.429 14.389 18.064zm-146.354-3.811c-1.578 1.229-1.578 1.229-1.578 1.229v.001h.001c.001.001.001.002.002.002.001.002.002.003.003.005.003.003.006.007.009.011.007.009.015.02.026.032.02.026.048.06.083.101.069.084.168.199.296.342.257.287.635.689 1.147 1.184l2.781-2.875c-.442-.427-.753-.76-.948-.977-.097-.109-.165-.188-.205-.237-.02-.024-.034-.04-.04-.048-.003-.004-.005-.006-.005-.006s.001.001.002.002c0 .001.001.001.001.002.001.001.001.001.001.002h.001v.001s.001 0-1.577 1.229zm3.227 5.68c.974.751 2.111 1.565 3.425 2.419l2.179-3.354c-1.224-.796-2.273-1.548-3.163-2.233zm7.001 4.575c1.133.634 2.359 1.278 3.682 1.923l1.753-3.595c-1.255-.612-2.414-1.221-3.481-1.819zm7.46 3.647c1.21.517 2.485 1.029 3.829 1.533l1.404-3.746c-1.288-.483-2.508-.973-3.662-1.466zm7.738 2.906c1.254.412 2.56.816 3.919 1.207l1.108-3.844c-1.312-.378-2.571-.766-3.778-1.163zm7.885 2.276c1.29.324 2.623.637 3.999.938l.852-3.909c-1.335-.291-2.627-.594-3.875-.908zm8.02 1.752c1.31.246 2.656.48 4.038.7l.63-3.95c-1.347-.215-2.657-.442-3.93-.681zm8.087 1.292c1.322.177 2.675.341 4.06.492l.434-3.977c-1.353-.147-2.675-.308-3.965-.48zm8.128.889c1.332.116 2.692.219 4.079.31l.26-3.992c-1.359-.089-2.69-.19-3.994-.303zm8.169.535c1.334.06 2.693.109 4.075.146l.106-3.999c-1.358-.036-2.691-.084-4-.143zm8.139.217c.683.006 1.372.009 2.067.009v-4c-.683 0-1.361-.003-2.033-.009zm2.067.009c.703 0 1.399-.003 2.09-.009l-.035-4c-.679.006-1.364.009-2.055.009zm6.236-.083c1.408-.038 2.789-.089 4.145-.152l-.185-3.995c-1.33.061-2.685.111-4.068.148zm8.286-.386c1.408-.094 2.785-.202 4.134-.321l-.355-3.985c-1.319.118-2.667.223-4.046.315zm8.278-.739c1.412-.159 2.79-.332 4.133-.518l-.548-3.962c-1.31.181-2.654.35-4.033.505zm8.244-1.143c1.409-.234 2.777-.482 4.106-.743l-.771-3.925c-1.29.253-2.619.495-3.99.722zm8.187-1.611c1.402-.321 2.755-.657 4.06-1.005l-1.029-3.865c-1.26.335-2.569.66-3.926.972zm8.078-2.155c1.387-.426 2.713-.865 3.98-1.313l-1.333-3.772c-1.214.43-2.488.851-3.822 1.261zm7.91-2.804c1.368-.556 2.656-1.121 3.866-1.688l-1.697-3.622c-1.147.537-2.371 1.074-3.676 1.605zm7.645-3.593c1.339-.727 2.558-1.448 3.663-2.15l-2.144-3.377c-1.028.653-2.168 1.328-3.428 2.011z" fill-opacity=".25"/><path d="m677.566 181.811-22.838 3.429 14.388 18.064zm-146.355-3.811c-1.578 1.229-1.578 1.229-1.578 1.229s.001 0 .001.001c.001.001.001.002.002.002.001.002.002.003.003.005.003.003.006.007.009.011.007.009.016.02.026.032.021.026.048.06.083.101.07.084.168.199.296.342.257.287.636.689 1.147 1.184l2.781-2.875c-.441-.427-.753-.76-.947-.977-.098-.109-.166-.188-.206-.237-.02-.024-.033-.04-.04-.048-.003-.004-.004-.006-.004-.006s0 .001.001.002.001.001.002.002c0 .001 0 .001.001.002.001 0 .001.001.001.001s0 0-1.578 1.229zm3.227 5.68c.974.751 2.111 1.565 3.425 2.419l2.18-3.354c-1.224-.796-2.274-1.548-3.164-2.233zm7.001 4.575c1.133.634 2.359 1.278 3.683 1.923l1.753-3.595c-1.256-.612-2.415-1.221-3.481-1.819zm7.461 3.647c1.209.517 2.485 1.029 3.829 1.533l1.404-3.746c-1.289-.483-2.509-.973-3.663-1.466zm7.737 2.906c1.255.412 2.561.816 3.92 1.207l1.107-3.844c-1.311-.378-2.57-.766-3.777-1.163zm7.885 2.276c1.291.324 2.623.637 3.999.938l.852-3.909c-1.335-.291-2.626-.594-3.875-.908zm8.021 1.752c1.309.246 2.655.48 4.037.7l.63-3.95c-1.347-.215-2.656-.442-3.93-.681zm8.087 1.292c1.322.177 2.675.341 4.059.492l.434-3.977c-1.353-.147-2.674-.308-3.964-.48zm8.128.889c1.332.116 2.691.219 4.078.31l.261-3.992c-1.359-.089-2.691-.19-3.995-.303zm8.169.535c1.334.06 2.692.109 4.075.146l.105-3.999c-1.358-.036-2.691-.084-4-.143zm8.138.217c.683.006 1.373.009 2.068.009v-4c-.684 0-1.361-.003-2.033-.009zm2.068.009c.702 0 1.399-.003 2.089-.009l-.035-4c-.678.006-1.363.009-2.054.009zm6.235-.083c1.408-.038 2.79-.089 4.145-.152l-.185-3.995c-1.329.061-2.685.111-4.068.148zm8.286-.386c1.408-.094 2.786-.202 4.134-.321l-.355-3.985c-1.318.118-2.667.223-4.046.315zm8.278-.739c1.412-.159 2.79-.332 4.134-.518l-.548-3.962c-1.31.181-2.655.35-4.034.505zm8.244-1.143c1.409-.234 2.778-.482 4.106-.743l-.77-3.925c-1.29.253-2.62.495-3.991.722zm8.187-1.611c1.402-.321 2.755-.657 4.061-1.005l-1.03-3.865c-1.26.335-2.568.66-3.925.972zm8.078-2.155c1.387-.426 2.713-.865 3.981-1.313l-1.334-3.772c-1.214.43-2.487.851-3.821 1.261zm7.91-2.804c1.369-.556 2.656-1.121 3.867-1.688l-1.697-3.622c-1.147.537-2.372 1.074-3.676 1.605zm7.645-3.593c1.34-.727 2.558-1.448 3.664-2.15l-2.145-3.377c-1.028.653-2.168 1.328-3.427 2.011z" fill-opacity=".25"/><path d="m707 186.575-23.033 1.676 12.968 19.11zm-399-8.575c-1.455 1.373-1.455 1.373-1.454 1.373v.001c.001 0 .001.001.002.001 0 .001.001.002.002.003.003.002.005.005.008.008.006.007.014.015.024.025.019.02.046.048.08.082.068.07.166.167.295.293.258.25.639.609 1.151 1.064l2.658-2.989c-.468-.416-.806-.735-1.022-.944-.107-.105-.185-.183-.233-.231-.024-.025-.04-.042-.05-.051-.004-.005-.007-.008-.008-.01-.001 0-.001 0-.001 0s.001.001.001.001.001.001.001.001c.001.001.001.001-1.454 1.373zm3.283 5.476c.949.737 2.05 1.558 3.313 2.449l2.306-3.269c-1.213-.855-2.264-1.639-3.164-2.339zm6.677 4.726c1.067.694 2.217 1.418 3.452 2.166l2.073-3.421c-1.199-.726-2.312-1.427-3.343-2.098zm6.96 4.222c1.126.639 2.31 1.292 3.553 1.955l1.883-3.529c-1.213-.647-2.367-1.283-3.463-1.905zm7.153 3.82c1.171.59 2.387 1.186 3.651 1.787l1.719-3.612c-1.237-.589-2.427-1.172-3.572-1.748zm7.359 3.504c1.185.534 2.406 1.071 3.664 1.609l1.574-3.677c-1.235-.529-2.433-1.055-3.594-1.579zm7.392 3.164c1.234.501 2.501 1.004 3.801 1.506l1.441-3.731c-1.278-.494-2.523-.988-3.736-1.481zm7.538 2.915c1.243.457 2.514.913 3.813 1.368l1.322-3.775c-1.28-.448-2.531-.897-3.754-1.347zm7.636 2.675c1.25.417 2.524.832 3.824 1.245l1.211-3.812c-1.281-.407-2.538-.817-3.769-1.228zm7.704 2.449c1.257.38 2.537.759 3.838 1.134l1.109-3.843c-1.285-.371-2.547-.744-3.788-1.12zm7.752 2.237c1.268.348 2.555.694 3.862 1.037l1.014-3.87c-1.292-.338-2.564-.68-3.815-1.024zm7.792 2.041c1.28.32 2.579.636 3.896.949l.925-3.892c-1.303-.309-2.587-.622-3.853-.938zm7.827 1.86c1.297.293 2.611.583 3.943.869l.841-3.911c-1.318-.283-2.619-.57-3.902-.86zm7.864 1.691c1.317.269 2.652.535 4.002.797l.762-3.927c-1.338-.259-2.659-.522-3.963-.789zm7.903 1.534c1.316.242 2.646.481 3.992.716l.687-3.941c-1.333-.232-2.651-.469-3.954-.709zm7.95 1.388c1.306.215 2.625.427 3.958.636l.617-3.953c-1.322-.206-2.629-.416-3.923-.63zm7.998 1.249c1.296.19 2.604.378 3.924.561l.551-3.962c-1.31-.182-2.607-.367-3.892-.557zm7.919 1.1c1.33.174 2.674.344 4.03.51l.487-3.97c-1.346-.165-2.679-.334-3.999-.507zm7.974.979c1.327.152 2.665.301 4.016.446l.427-3.977c-1.341-.144-2.669-.292-3.986-.443zm8.044.863c1.308.131 2.627.258 3.957.381l.37-3.983c-1.321-.122-2.631-.248-3.93-.378zm7.98.74c1.337.115 2.684.226 4.042.333l.314-3.988c-1.349-.106-2.687-.216-4.014-.33zm8.001.632c1.33.096 2.67.188 4.02.277l.262-3.991c-1.341-.088-2.673-.18-3.994-.276zm8.092.531c1.308.078 2.625.152 3.951.222l.213-3.994c-1.319-.07-2.628-.144-3.927-.221zm7.959.423c1.345.063 2.7.123 4.064.179l.164-3.997c-1.356-.055-2.703-.115-4.04-.178zm8.057.331c1.32.046 2.649.089 3.987.129l.118-3.998c-1.33-.04-2.652-.082-3.965-.129zm8.027.237c1.345.032 2.699.061 4.061.086l.074-4c-1.355-.025-2.701-.053-4.039-.085zm8.023.148c1.328.017 2.665.031 4.01.042l.031-4c-1.338-.011-2.668-.025-3.989-.042zm8.069.063c.681.001 1.364.002 2.048.002v-4c-.681 0-1.36-.001-2.037-.002zm2.048.002c.676 0 1.35 0 2.021-.002l-.01-4c-.668.002-1.338.002-2.011.002zm6.025-.023c1.326-.01 2.644-.024 3.954-.04l-.052-4c-1.303.017-2.614.03-3.933.04zm7.962-.103c1.338-.024 2.668-.052 3.988-.084l-.095-3.999c-1.313.032-2.635.059-3.966.084zm7.941-.189c1.35-.039 2.69-.082 4.021-.129l-.14-3.997c-1.324.046-2.656.089-3.998.128zm7.986-.279c1.339-.055 2.669-.114 3.989-.175l-.187-3.996c-1.312.061-2.634.119-3.966.174zm7.981-.375c1.326-.07 2.642-.144 3.949-.221l-.237-3.993c-1.298.077-2.606.15-3.924.22zm7.964-.472c1.328-.087 2.646-.178 3.953-.272l-.288-3.99c-1.299.094-2.608.184-3.927.271zm7.95-.575c1.335-.105 2.658-.214 3.97-.327l-.342-3.985c-1.304.112-2.618.22-3.943.325zm7.939-.682c1.339-.125 2.666-.253 3.982-.385l-.399-3.98c-1.306.131-2.624.258-3.953.382zm7.93-.797c1.342-.144 2.671-.293 3.989-.445l-.46-3.974c-1.307.151-2.626.299-3.958.443zm7.921-.916c1.343-.166 2.673-.336 3.99-.509l-.523-3.966c-1.306.172-2.626.341-3.958.505zm7.911-1.043c1.342-.188 2.67-.38 3.985-.576l-.59-3.957c-1.303.195-2.62.385-3.95.572zm7.901-1.178c1.338-.211 2.662-.427 3.97-.646l-.66-3.945c-1.297.217-2.609.431-3.935.64zm7.885-1.32c1.332-.236 2.647-.476 3.948-.719l-.736-3.932c-1.288.241-2.591.478-3.91.712zm7.863-1.472c1.322-.262 2.627-.526 3.915-.795l-.816-3.916c-1.275.266-2.566.528-3.874.786zm7.833-1.633c1.308-.287 2.598-.578 3.87-.872l-.901-3.897c-1.258.29-2.534.578-3.827.862zm7.79-1.802c1.31-.319 2.6-.642 3.871-.968l-.992-3.874c-1.256.321-2.531.64-3.826.955zm7.729-1.981c1.314-.354 2.605-.712 3.875-1.072l-1.091-3.848c-1.253.355-2.528.708-3.824 1.057zm7.711-2.187c1.293-.385 2.563-.774 3.809-1.164l-1.197-3.817c-1.228.385-2.48.768-3.755 1.148zm7.642-2.398c1.293-.426 2.56-.855 3.8-1.286l-1.312-3.778c-1.221.423-2.468.846-3.741 1.266zm7.569-2.629c1.277-.466 2.524-.934 3.742-1.403l-1.437-3.733c-1.196.46-2.422.921-3.678 1.38zm7.465-2.875c1.272-.516 2.509-1.032 3.712-1.548l-1.575-3.677c-1.179.506-2.393 1.012-3.642 1.519zm7.391-3.168c1.255-.568 2.468-1.133 3.642-1.696l-1.729-3.607c-1.147.55-2.334 1.103-3.563 1.659zm7.243-3.472c1.239-.63 2.426-1.253 3.565-1.868l-1.901-3.519c-1.109.599-2.267 1.206-3.476 1.821zm7.099-3.839c1.221-.704 2.376-1.394 3.466-2.067l-2.102-3.404c-1.055.652-2.175 1.322-3.362 2.005z" fill-opacity=".25"/><path d="m478.883 408.811-22.838 3.429 14.389 18.064zm-146.354-3.811c-1.578 1.229-1.578 1.229-1.578 1.229v.001h.001c.001.001.001.002.002.002.001.002.002.003.003.005.003.003.006.007.009.011.007.009.015.02.026.032.02.026.048.06.083.101.069.084.168.199.296.342.257.287.635.689 1.147 1.184l2.781-2.875c-.442-.427-.753-.76-.948-.977-.097-.109-.165-.188-.205-.237-.02-.024-.034-.04-.04-.048-.003-.004-.005-.006-.005-.006s.001.001.002.002c0 .001.001.001.001.002.001.001.001.001.001.002h.001v.001s.001 0-1.577 1.229zm3.227 5.68c.974.751 2.111 1.565 3.425 2.419l2.179-3.354c-1.224-.796-2.273-1.548-3.163-2.233zm7.001 4.575c1.133.634 2.359 1.278 3.682 1.923l1.753-3.595c-1.255-.612-2.414-1.221-3.481-1.819zm7.46 3.647c1.21.517 2.485 1.029 3.829 1.533l1.404-3.746c-1.288-.483-2.508-.973-3.662-1.466zm7.738 2.906c1.254.412 2.56.816 3.919 1.207l1.108-3.844c-1.312-.378-2.571-.766-3.778-1.163zm7.885 2.276c1.29.324 2.623.637 3.999.938l.852-3.909c-1.335-.291-2.627-.594-3.875-.908zm8.02 1.752c1.31.246 2.656.48 4.038.7l.63-3.95c-1.347-.215-2.657-.442-3.93-.681zm8.087 1.292c1.322.177 2.675.341 4.06.492l.434-3.977c-1.353-.147-2.675-.308-3.965-.48zm8.128.889c1.332.116 2.692.219 4.079.31l.26-3.992c-1.359-.089-2.69-.19-3.994-.303zm8.169.535c1.334.06 2.693.109 4.075.146l.106-3.999c-1.358-.036-2.691-.084-4-.143zm8.139.217c.683.006 1.372.009 2.067.009v-4c-.683 0-1.361-.003-2.033-.009zm2.067.009c.703 0 1.399-.003 2.09-.009l-.035-4c-.679.006-1.364.009-2.055.009zm6.236-.083c1.408-.038 2.789-.089 4.145-.152l-.185-3.995c-1.33.061-2.685.111-4.068.148zm8.286-.386c1.408-.094 2.785-.202 4.134-.321l-.355-3.985c-1.319.118-2.667.223-4.046.315zm8.278-.739c1.412-.159 2.79-.332 4.133-.518l-.548-3.962c-1.31.181-2.654.35-4.033.505zm8.244-1.143c1.409-.234 2.777-.482 4.106-.743l-.771-3.925c-1.29.253-2.619.495-3.99.722zm8.187-1.611c1.402-.321 2.755-.657 4.06-1.005l-1.029-3.865c-1.26.335-2.569.66-3.926.972zm8.078-2.155c1.387-.426 2.713-.865 3.98-1.313l-1.333-3.772c-1.214.43-2.488.851-3.822 1.261zm7.91-2.804c1.368-.556 2.656-1.121 3.866-1.688l-1.697-3.622c-1.147.537-2.371 1.074-3.676 1.605zm7.645-3.593c1.339-.727 2.558-1.448 3.663-2.15l-2.144-3.377c-1.028.653-2.168 1.328-3.428 2.011z" fill-opacity=".25"/><path d="m677.566 408.811-22.838 3.429 14.388 18.064zm-146.355-3.811c-1.578 1.229-1.578 1.229-1.578 1.229s.001 0 .001.001c.001.001.001.002.002.002.001.002.002.003.003.005.003.003.006.007.009.011.007.009.016.02.026.032.021.026.048.06.083.101.07.084.168.199.296.342.257.287.636.689 1.147 1.184l2.781-2.875c-.441-.427-.753-.76-.947-.977-.098-.109-.166-.188-.206-.237-.02-.024-.033-.04-.04-.048-.003-.004-.004-.006-.004-.006s0 .001.001.002.001.001.002.002c0 .001 0 .001.001.002.001 0 .001.001.001.001s0 0-1.578 1.229zm3.227 5.68c.974.751 2.111 1.565 3.425 2.419l2.18-3.354c-1.224-.796-2.274-1.548-3.164-2.233zm7.001 4.575c1.133.634 2.359 1.278 3.683 1.923l1.753-3.595c-1.256-.612-2.415-1.221-3.481-1.819zm7.461 3.647c1.209.517 2.485 1.029 3.829 1.533l1.404-3.746c-1.289-.483-2.509-.973-3.663-1.466zm7.737 2.906c1.255.412 2.561.816 3.92 1.207l1.107-3.844c-1.311-.378-2.57-.766-3.777-1.163zm7.885 2.276c1.291.324 2.623.637 3.999.938l.852-3.909c-1.335-.291-2.626-.594-3.875-.908zm8.021 1.752c1.309.246 2.655.48 4.037.7l.63-3.95c-1.347-.215-2.656-.442-3.93-.681zm8.087 1.292c1.322.177 2.675.341 4.059.492l.434-3.977c-1.353-.147-2.674-.308-3.964-.48zm8.128.889c1.332.116 2.691.219 4.078.31l.261-3.992c-1.359-.089-2.691-.19-3.995-.303zm8.169.535c1.334.06 2.692.109 4.075.146l.105-3.999c-1.358-.036-2.691-.084-4-.143zm8.138.217c.683.006 1.373.009 2.068.009v-4c-.684 0-1.361-.003-2.033-.009zm2.068.009c.702 0 1.399-.003 2.089-.009l-.035-4c-.678.006-1.363.009-2.054.009zm6.235-.083c1.408-.038 2.79-.089 4.145-.152l-.185-3.995c-1.329.061-2.685.111-4.068.148zm8.286-.386c1.408-.094 2.786-.202 4.134-.321l-.355-3.985c-1.318.118-2.667.223-4.046.315zm8.278-.739c1.412-.159 2.79-.332 4.134-.518l-.548-3.962c-1.31.181-2.655.35-4.034.505zm8.244-1.143c1.409-.234 2.778-.482 4.106-.743l-.77-3.925c-1.29.253-2.62.495-3.991.722zm8.187-1.611c1.402-.321 2.755-.657 4.061-1.005l-1.03-3.865c-1.26.335-2.568.66-3.925.972zm8.078-2.155c1.387-.426 2.713-.865 3.981-1.313l-1.334-3.772c-1.214.43-2.487.851-3.821 1.261zm7.91-2.804c1.369-.556 2.656-1.121 3.867-1.688l-1.697-3.622c-1.147.537-2.372 1.074-3.676 1.605zm7.645-3.593c1.34-.727 2.558-1.448 3.664-2.15l-2.145-3.377c-1.028.653-2.168 1.328-3.427 2.011z" fill-opacity=".25"/><path d="m707 413.576-23.033 1.676 12.968 19.109zm-399-8.575c-1.455 1.372-1.455 1.372-1.454 1.373l.002.002c0 .001.001.002.002.003.003.002.005.005.008.008.006.006.014.014.024.024.019.021.046.048.08.083.068.069.166.167.295.292.258.25.639.609 1.151 1.065l2.658-2.989c-.468-.416-.806-.735-1.022-.945-.107-.105-.185-.182-.233-.231-.024-.024-.04-.041-.05-.051-.004-.005-.007-.008-.008-.009s-.001-.001-.001 0c0 0 .001 0 .001.001h.001v.001c.001 0 .001 0-1.454 1.373zm3.283 5.476c.949.737 2.05 1.557 3.313 2.448l2.306-3.269c-1.213-.855-2.264-1.639-3.164-2.338zm6.677 4.725c1.067.695 2.217 1.419 3.452 2.167l2.073-3.421c-1.199-.726-2.312-1.427-3.343-2.098zm6.96 4.223c1.126.639 2.31 1.291 3.553 1.954l1.883-3.529c-1.213-.647-2.367-1.283-3.463-1.904zm7.153 3.82c1.171.589 2.387 1.185 3.651 1.786l1.719-3.612c-1.237-.588-2.427-1.171-3.572-1.747zm7.359 3.504c1.185.534 2.406 1.07 3.664 1.609l1.574-3.678c-1.235-.528-2.433-1.055-3.594-1.578zm7.392 3.163c1.234.502 2.501 1.004 3.801 1.507l1.441-3.732c-1.278-.494-2.523-.987-3.736-1.48zm7.538 2.915c1.243.457 2.514.914 3.813 1.369l1.322-3.775c-1.28-.449-2.531-.898-3.754-1.348zm7.636 2.675c1.25.417 2.524.832 3.824 1.245l1.211-3.812c-1.281-.407-2.538-.816-3.769-1.227zm7.704 2.449c1.257.381 2.537.759 3.838 1.135l1.109-3.843c-1.285-.371-2.547-.745-3.788-1.12zm7.752 2.238c1.268.348 2.555.694 3.862 1.036l1.014-3.869c-1.292-.339-2.564-.68-3.815-1.024zm7.792 2.041c1.28.319 2.579.635 3.896.948l.925-3.891c-1.303-.31-2.587-.623-3.853-.938zm7.827 1.859c1.297.294 2.611.583 3.943.87l.841-3.911c-1.318-.283-2.619-.57-3.902-.86zm7.864 1.692c1.317.269 2.652.535 4.002.796l.762-3.926c-1.338-.26-2.659-.523-3.963-.79zm7.903 1.534c1.316.242 2.646.48 3.992.715l.687-3.94c-1.333-.233-2.651-.469-3.954-.709zm7.95 1.387c1.306.216 2.625.428 3.958.636l.617-3.952c-1.322-.206-2.629-.417-3.923-.63zm7.998 1.249c1.296.191 2.604.378 3.924.562l.551-3.962c-1.31-.182-2.607-.368-3.892-.557zm7.919 1.1c1.33.174 2.674.344 4.03.511l.487-3.971c-1.346-.165-2.679-.333-3.999-.506zm7.974.979c1.327.153 2.665.301 4.016.446l.427-3.977c-1.341-.144-2.669-.291-3.986-.443zm8.044.864c1.308.13 2.627.257 3.957.381l.37-3.983c-1.321-.123-2.631-.249-3.93-.379zm7.98.74c1.337.114 2.684.225 4.042.332l.314-3.987c-1.349-.107-2.687-.217-4.014-.331zm8.001.631c1.33.096 2.67.189 4.02.278l.262-3.992c-1.341-.088-2.673-.18-3.994-.275zm8.092.532c1.308.077 2.625.151 3.951.222l.213-3.995c-1.319-.07-2.628-.143-3.927-.22zm7.959.422c1.345.064 2.7.123 4.064.179l.164-3.996c-1.356-.056-2.703-.115-4.04-.178zm8.057.331c1.32.047 2.649.09 3.987.129l.118-3.998c-1.33-.039-2.652-.082-3.965-.128zm8.027.237c1.345.032 2.699.061 4.061.086l.074-3.999c-1.355-.025-2.701-.054-4.039-.086zm8.023.148c1.328.018 2.665.032 4.01.042l.031-4c-1.338-.01-2.668-.024-3.989-.041zm8.069.063c.681.002 1.364.003 2.048.003v-4c-.681 0-1.36-.001-2.037-.003zm2.048.003c.676 0 1.35-.001 2.021-.003l-.01-4c-.668.002-1.338.003-2.011.003zm6.025-.023c1.326-.01 2.644-.024 3.954-.041l-.052-4c-1.303.017-2.614.031-3.933.041zm7.962-.104c1.338-.024 2.668-.052 3.988-.083l-.095-3.999c-1.313.031-2.635.059-3.966.083zm7.941-.188c1.35-.04 2.69-.083 4.021-.129l-.14-3.998c-1.324.046-2.656.089-3.998.129zm7.986-.28c1.339-.055 2.669-.113 3.989-.175l-.187-3.996c-1.312.062-2.634.12-3.966.174zm7.981-.374c1.326-.07 2.642-.144 3.949-.222l-.237-3.993c-1.298.077-2.606.151-3.924.22zm7.964-.472c1.328-.088 2.646-.179 3.953-.273l-.288-3.99c-1.299.094-2.608.185-3.927.271zm7.95-.575c1.335-.106 2.658-.215 3.97-.328l-.342-3.985c-1.304.112-2.618.221-3.943.325zm7.939-.683c1.339-.124 2.666-.253 3.982-.385l-.399-3.98c-1.306.131-2.624.259-3.953.382zm7.93-.796c1.342-.145 2.671-.294 3.989-.446l-.46-3.973c-1.307.151-2.626.298-3.958.442zm7.921-.916c1.343-.166 2.673-.336 3.99-.51l-.523-3.966c-1.306.173-2.626.341-3.958.506zm7.911-1.043c1.342-.189 2.67-.381 3.985-.577l-.59-3.956c-1.303.194-2.62.385-3.95.571zm7.901-1.178c1.338-.212 2.662-.427 3.97-.647l-.66-3.945c-1.297.218-2.609.431-3.935.641zm7.885-1.321c1.332-.236 2.647-.475 3.948-.719l-.736-3.932c-1.288.241-2.591.479-3.91.712zm7.863-1.472c1.322-.261 2.627-.526 3.915-.794l-.816-3.916c-1.275.265-2.566.527-3.874.786zm7.833-1.633c1.308-.287 2.598-.578 3.87-.872l-.901-3.897c-1.258.291-2.534.578-3.827.863zm7.79-1.802c1.31-.319 2.6-.641 3.871-.967l-.992-3.875c-1.256.322-2.531.64-3.826.956zm7.729-1.981c1.314-.354 2.605-.711 3.875-1.071l-1.091-3.848c-1.253.355-2.528.707-3.824 1.057zm7.711-2.186c1.293-.386 2.563-.774 3.809-1.165l-1.197-3.817c-1.228.385-2.48.768-3.755 1.148zm7.642-2.398c1.293-.427 2.56-.856 3.8-1.286l-1.312-3.779c-1.221.424-2.468.846-3.741 1.266zm7.569-2.629c1.277-.467 2.524-.935 3.742-1.404l-1.437-3.733c-1.196.461-2.422.921-3.678 1.38zm7.465-2.875c1.272-.517 2.509-1.033 3.712-1.548l-1.575-3.677c-1.179.505-2.393 1.012-3.642 1.518zm7.391-3.168c1.255-.568 2.468-1.134 3.642-1.696l-1.729-3.608c-1.147.55-2.334 1.104-3.563 1.66zm7.243-3.473c1.239-.629 2.426-1.252 3.565-1.867l-1.901-3.52c-1.109.599-2.267 1.207-3.476 1.821zm7.099-3.839c1.221-.703 2.376-1.394 3.466-2.067l-2.102-3.403c-1.055.652-2.175 1.321-3.362 2.005z" fill-opacity=".25"/></g><circle cx="306" cy="118" fill="#fff" r="58" stroke="#00a2ff" stroke-width="4"/><path d="m285.129 120.084v7.416h3.192v-16.584h-3.192v6.648h-5.904v-6.648h-3.168v16.584h3.168v-7.416zm12.141-5.64c-3.768 0-6 2.712-6 6.696 0 4.176 2.232 6.72 5.976 6.72s5.976-2.712 5.976-6.72c0-4.152-2.208-6.696-5.952-6.696zm0 2.328c1.776 0 2.712 1.344 2.712 4.368s-.936 4.392-2.736 4.392-2.736-1.344-2.736-4.392c0-3 .96-4.368 2.76-4.368zm22.296-2.328c-1.68 0-2.856.816-3.816 2.136-.48-1.344-1.584-2.136-3.072-2.136-1.608 0-2.76.744-3.672 2.016l-.24-1.656h-2.664v12.696h3.072v-8.832c.696-1.176 1.344-1.92 2.424-1.92.744 0 1.392.456 1.392 2.04v8.712h3.072v-8.832c.696-1.176 1.344-1.92 2.4-1.92.768 0 1.392.456 1.392 2.04v8.712h3.072v-9.192c0-2.4-1.344-3.864-3.36-3.864zm17.343 6.408c0-4.008-2.04-6.408-5.592-6.408-3.6 0-5.64 2.928-5.64 6.792 0 4.008 2.112 6.624 6.048 6.624 1.92 0 3.456-.696 4.704-1.704l-1.272-1.752c-1.104.768-2.04 1.128-3.168 1.128-1.68 0-2.904-.84-3.12-3.432h7.968c.024-.336.072-.84.072-1.248zm-3.048-.744h-4.992c.168-2.52 1.08-3.48 2.52-3.48 1.728 0 2.472 1.248 2.472 3.336z" fill="#00a2ff"/><circle cx="506" cy="118" fill="#fff" r="59" stroke="#000" stroke-width="2"/><path d="m490.981 127.5v-16.584h-2.88v7.776c0 2.352.288 4.752.432 5.664l-5.784-13.44h-4.008v16.584h2.88v-6.768c0-3.072-.264-5.184-.432-6.648l5.688 13.416zm14.205-6.648c0-4.008-2.04-6.408-5.592-6.408-3.6 0-5.64 2.928-5.64 6.792 0 4.008 2.112 6.624 6.048 6.624 1.92 0 3.456-.696 4.704-1.704l-1.272-1.752c-1.104.768-2.04 1.128-3.168 1.128-1.68 0-2.904-.84-3.12-3.432h7.968c.024-.336.072-.84.072-1.248zm-3.048-.744h-4.992c.168-2.52 1.08-3.48 2.52-3.48 1.728 0 2.472 1.248 2.472 3.336zm18.618 7.392 2.76-12.696h-2.952l-1.896 10.44-2.016-10.44h-3.144l-2.208 10.44-1.776-10.44h-3.072l2.808 12.696h3.768l1.968-9.96 1.92 9.96zm8.889-13.056c-2.952 0-4.896 1.584-4.896 3.696 0 1.872 1.152 3.12 3.768 3.84 2.376.672 2.88 1.008 2.88 2.112 0 .888-.888 1.488-2.28 1.488-1.272 0-2.448-.504-3.408-1.272l-1.56 1.752c1.176 1.056 2.88 1.8 5.064 1.8 2.904 0 5.352-1.392 5.352-4.032 0-2.256-1.464-3.312-4.056-4.008-2.16-.6-2.664-.984-2.664-1.824 0-.768.696-1.272 1.992-1.272 1.056 0 2.064.36 3.12 1.08l1.2-1.848c-1.2-.936-2.688-1.512-4.512-1.512z" fill="#000"/><circle cx="706" cy="118" fill="#fff" r="59" stroke="#000" stroke-width="2"/><path d="m676.992 110.916h-4.896v16.584h3.168v-5.784h1.944c3.744 0 6.504-1.704 6.504-5.52 0-3.576-2.544-5.28-6.72-5.28zm-.024 8.424h-1.704v-6.096h1.704c2.16 0 3.432.864 3.432 2.952 0 2.424-1.32 3.144-3.432 3.144zm15.476-4.872c-1.488 0-2.712 1.008-3.312 2.832l-.288-2.496h-2.664v12.696h3.072v-6.768c.48-2.136 1.272-3.264 2.808-3.264.432 0 .744.048 1.128.144l.528-2.976c-.408-.12-.816-.168-1.272-.168zm8.131-.024c-3.768 0-6 2.712-6 6.696 0 4.176 2.232 6.72 5.976 6.72s5.976-2.712 5.976-6.72c0-4.152-2.208-6.696-5.952-6.696zm0 2.328c1.776 0 2.712 1.344 2.712 4.368s-.936 4.392-2.736 4.392-2.736-1.344-2.736-4.392c0-3 .96-4.368 2.76-4.368zm14.088-7.392c-3.456 0-4.896 1.752-4.896 4.08v1.344h-1.968v2.208h1.968v10.488h3.072v-10.488h4.008v10.488h3.072v-12.696h-7.08v-1.296c0-1.2.456-1.776 2.112-1.776.984 0 1.896.24 2.664.6l.936-2.04c-1.032-.504-2.28-.912-3.888-.912zm11.899 15.024v-15.024l-3.072.336v14.904c0 2.112 1.08 3.24 2.976 3.24.792 0 1.56-.168 2.184-.432l-.648-2.16c-.216.072-.48.12-.72.12-.504 0-.72-.288-.72-.984zm14.307-3.552c0-4.008-2.04-6.408-5.592-6.408-3.6 0-5.64 2.928-5.64 6.792 0 4.008 2.112 6.624 6.048 6.624 1.92 0 3.456-.696 4.704-1.704l-1.272-1.752c-1.104.768-2.04 1.128-3.168 1.128-1.68 0-2.904-.84-3.12-3.432h7.968c.024-.336.072-.84.072-1.248zm-3.048-.744h-4.992c.168-2.52 1.08-3.48 2.52-3.48 1.728 0 2.472 1.248 2.472 3.336z" fill="#000"/><circle cx="306" cy="350" fill="#fff" r="59" stroke="#000" stroke-width="2"/><path d="m285.129 352.084v7.416h3.192v-16.584h-3.192v6.648h-5.904v-6.648h-3.168v16.584h3.168v-7.416zm12.141-5.64c-3.768 0-6 2.712-6 6.696 0 4.176 2.232 6.72 5.976 6.72s5.976-2.712 5.976-6.72c0-4.152-2.208-6.696-5.952-6.696zm0 2.328c1.776 0 2.712 1.344 2.712 4.368s-.936 4.392-2.736 4.392-2.736-1.344-2.736-4.392c0-3 .96-4.368 2.76-4.368zm22.296-2.328c-1.68 0-2.856.816-3.816 2.136-.48-1.344-1.584-2.136-3.072-2.136-1.608 0-2.76.744-3.672 2.016l-.24-1.656h-2.664v12.696h3.072v-8.832c.696-1.176 1.344-1.92 2.424-1.92.744 0 1.392.456 1.392 2.04v8.712h3.072v-8.832c.696-1.176 1.344-1.92 2.4-1.92.768 0 1.392.456 1.392 2.04v8.712h3.072v-9.192c0-2.4-1.344-3.864-3.36-3.864zm17.343 6.408c0-4.008-2.04-6.408-5.592-6.408-3.6 0-5.64 2.928-5.64 6.792 0 4.008 2.112 6.624 6.048 6.624 1.92 0 3.456-.696 4.704-1.704l-1.272-1.752c-1.104.768-2.04 1.128-3.168 1.128-1.68 0-2.904-.84-3.12-3.432h7.968c.024-.336.072-.84.072-1.248zm-3.048-.744h-4.992c.168-2.52 1.08-3.48 2.52-3.48 1.728 0 2.472 1.248 2.472 3.336z" fill="#000"/><circle cx="506" cy="350" fill="#fff" r="59" stroke="#000" stroke-width="2"/><path d="m490.981 359.5v-16.584h-2.88v7.776c0 2.352.288 4.752.432 5.664l-5.784-13.44h-4.008v16.584h2.88v-6.768c0-3.072-.264-5.184-.432-6.648l5.688 13.416zm14.205-6.648c0-4.008-2.04-6.408-5.592-6.408-3.6 0-5.64 2.928-5.64 6.792 0 4.008 2.112 6.624 6.048 6.624 1.92 0 3.456-.696 4.704-1.704l-1.272-1.752c-1.104.768-2.04 1.128-3.168 1.128-1.68 0-2.904-.84-3.12-3.432h7.968c.024-.336.072-.84.072-1.248zm-3.048-.744h-4.992c.168-2.52 1.08-3.48 2.52-3.48 1.728 0 2.472 1.248 2.472 3.336zm18.618 7.392 2.76-12.696h-2.952l-1.896 10.44-2.016-10.44h-3.144l-2.208 10.44-1.776-10.44h-3.072l2.808 12.696h3.768l1.968-9.96 1.92 9.96zm8.889-13.056c-2.952 0-4.896 1.584-4.896 3.696 0 1.872 1.152 3.12 3.768 3.84 2.376.672 2.88 1.008 2.88 2.112 0 .888-.888 1.488-2.28 1.488-1.272 0-2.448-.504-3.408-1.272l-1.56 1.752c1.176 1.056 2.88 1.8 5.064 1.8 2.904 0 5.352-1.392 5.352-4.032 0-2.256-1.464-3.312-4.056-4.008-2.16-.6-2.664-.984-2.664-1.824 0-.768.696-1.272 1.992-1.272 1.056 0 2.064.36 3.12 1.08l1.2-1.848c-1.2-.936-2.688-1.512-4.512-1.512z" fill="#000"/><circle cx="706" cy="350" fill="#fff" r="59" stroke="#000" stroke-width="2"/><path d="m676.992 342.916h-4.896v16.584h3.168v-5.784h1.944c3.744 0 6.504-1.704 6.504-5.52 0-3.576-2.544-5.28-6.72-5.28zm-.024 8.424h-1.704v-6.096h1.704c2.16 0 3.432.864 3.432 2.952 0 2.424-1.32 3.144-3.432 3.144zm15.476-4.872c-1.488 0-2.712 1.008-3.312 2.832l-.288-2.496h-2.664v12.696h3.072v-6.768c.48-2.136 1.272-3.264 2.808-3.264.432 0 .744.048 1.128.144l.528-2.976c-.408-.12-.816-.168-1.272-.168zm8.131-.024c-3.768 0-6 2.712-6 6.696 0 4.176 2.232 6.72 5.976 6.72s5.976-2.712 5.976-6.72c0-4.152-2.208-6.696-5.952-6.696zm0 2.328c1.776 0 2.712 1.344 2.712 4.368s-.936 4.392-2.736 4.392-2.736-1.344-2.736-4.392c0-3 .96-4.368 2.76-4.368zm14.088-7.392c-3.456 0-4.896 1.752-4.896 4.08v1.344h-1.968v2.208h1.968v10.488h3.072v-10.488h4.008v10.488h3.072v-12.696h-7.08v-1.296c0-1.2.456-1.776 2.112-1.776.984 0 1.896.24 2.664.6l.936-2.04c-1.032-.504-2.28-.912-3.888-.912zm11.899 15.024v-15.024l-3.072.336v14.904c0 2.112 1.08 3.24 2.976 3.24.792 0 1.56-.168 2.184-.432l-.648-2.16c-.216.072-.48.12-.72.12-.504 0-.72-.288-.72-.984zm14.307-3.552c0-4.008-2.04-6.408-5.592-6.408-3.6 0-5.64 2.928-5.64 6.792 0 4.008 2.112 6.624 6.048 6.624 1.92 0 3.456-.696 4.704-1.704l-1.272-1.752c-1.104.768-2.04 1.128-3.168 1.128-1.68 0-2.904-.84-3.12-3.432h7.968c.024-.336.072-.84.072-1.248zm-3.048-.744h-4.992c.168-2.52 1.08-3.48 2.52-3.48 1.728 0 2.472 1.248 2.472 3.336z" fill="#000"/><path d="m266.65 303-11.653-19.939-11.441 20.061zm7.35-130c-.675-1.883-.675-1.883-.675-1.882-.001 0-.001 0-.001 0-.001 0-.001 0-.002 0-.001.001-.002.001-.003.002-.003 0-.006.002-.01.003-.007.003-.018.007-.03.011-.025.01-.06.023-.105.039-.089.034-.216.083-.378.148-.324.129-.791.323-1.379.586l1.632 3.652c.537-.24.954-.413 1.232-.524.139-.055.243-.096.309-.121.033-.012.057-.021.072-.026.007-.003.012-.005.014-.006h.001-.001-.001c0 .001 0 .001-.675-1.882zm-6.151.663c-1.034.552-2.183 1.204-3.419 1.961l2.09 3.41c1.165-.713 2.246-1.326 3.215-1.844zm-6.73 4.119c-1.028.712-2.092 1.488-3.18 2.332l2.452 3.16c1.028-.797 2.033-1.53 3.005-2.203zm-6.226 4.83c-.964.836-1.938 1.724-2.913 2.668l2.782 2.874c.92-.89 1.84-1.73 2.751-2.519zm-5.672 5.489c-.872.943-1.739 1.931-2.595 2.967l3.084 2.548c.807-.977 1.625-1.909 2.448-2.798zm-5.024 6.083c-.766 1.042-1.518 2.125-2.252 3.251l3.352 2.183c.691-1.061 1.4-2.083 2.122-3.065zm-4.312 6.62c-.642 1.121-1.264 2.279-1.863 3.475l3.577 1.791c.565-1.129 1.151-2.221 1.757-3.277zm-3.529 7.05c-.513 1.185-1.003 2.405-1.466 3.66l3.752 1.385c.438-1.186.901-2.338 1.385-3.457zm-2.732 7.392c-.381 1.233-.738 2.497-1.066 3.792l3.877.984c.311-1.228.649-2.426 1.01-3.593zm-1.939 7.631c-.254 1.265-.483 2.557-.683 3.877l3.955.6c.191-1.257.408-2.486.65-3.688zm-1.183 7.775c-.134 1.275-.242 2.573-.324 3.897l3.993.245c.078-1.266.181-2.507.309-3.723zm-.482 7.802c-.013.656-.02 1.317-.02 1.984h4c0-.641.006-1.275.019-1.903zm-.02 1.984c0 .723.008 1.438.023 2.148l3.999-.088c-.014-.68-.022-1.366-.022-2.06zm.212 6.409c.098 1.448.228 2.865.389 4.252l3.974-.462c-.154-1.322-.278-2.675-.372-4.059zm.993 8.5c.242 1.437.518 2.839.825 4.206l3.903-.878c-.292-1.296-.554-2.627-.784-3.993zm1.883 8.362c.402 1.407.837 2.774 1.302 4.101l3.775-1.324c-.439-1.252-.85-2.543-1.23-3.874zm2.847 8.111c.568 1.35 1.168 2.655 1.795 3.915l3.582-1.781c-.59-1.186-1.155-2.414-1.69-3.686zm3.837 7.71c.736 1.268 1.498 2.484 2.281 3.652l3.322-2.228c-.736-1.097-1.452-2.24-2.143-3.432zm4.794 7.148c.897 1.167 1.812 2.276 2.739 3.33l3.005-2.639c-.87-.991-1.73-2.034-2.573-3.13zm5.683 6.475c1.045 1.045 2.094 2.027 3.136 2.947l2.646-3.001c-.982-.865-1.969-1.789-2.951-2.773zm6.457 5.695c1.188.921 2.354 1.764 3.482 2.532l2.251-3.307c-1.063-.724-2.162-1.517-3.28-2.385z" fill="#000"/><path d="m468.65 303-11.653-19.939-11.441 20.061zm7.35-130c-.675-1.883-.675-1.883-.675-1.882-.001 0-.001 0-.001 0-.001 0-.001 0-.002 0-.001.001-.002.001-.003.002-.003 0-.006.002-.01.003-.007.003-.018.007-.03.011-.025.01-.06.023-.105.039-.089.034-.216.083-.378.148-.324.129-.791.323-1.379.586l1.632 3.652c.537-.24.954-.413 1.232-.524.139-.055.243-.096.309-.121.033-.012.057-.021.072-.026.007-.003.012-.005.014-.006h.001-.001-.001c0 .001 0 .001-.675-1.882zm-6.151.663c-1.034.552-2.183 1.204-3.419 1.961l2.09 3.41c1.165-.713 2.246-1.326 3.215-1.844zm-6.73 4.119c-1.028.712-2.092 1.488-3.18 2.332l2.452 3.16c1.028-.797 2.033-1.53 3.005-2.203zm-6.226 4.83c-.964.836-1.938 1.724-2.913 2.668l2.782 2.874c.92-.89 1.84-1.73 2.751-2.519zm-5.672 5.489c-.872.943-1.739 1.931-2.595 2.967l3.084 2.548c.807-.977 1.625-1.909 2.448-2.798zm-5.024 6.083c-.766 1.042-1.518 2.125-2.252 3.251l3.352 2.183c.691-1.061 1.4-2.083 2.122-3.065zm-4.312 6.62c-.642 1.121-1.264 2.279-1.863 3.475l3.577 1.791c.565-1.129 1.151-2.221 1.757-3.277zm-3.529 7.05c-.513 1.185-1.003 2.405-1.466 3.66l3.752 1.385c.438-1.186.901-2.338 1.385-3.457zm-2.732 7.392c-.381 1.233-.738 2.497-1.066 3.792l3.877.984c.311-1.228.649-2.426 1.01-3.593zm-1.939 7.631c-.254 1.265-.483 2.557-.683 3.877l3.955.6c.191-1.257.408-2.486.65-3.688zm-1.183 7.775c-.134 1.275-.242 2.573-.324 3.897l3.993.245c.078-1.266.181-2.507.309-3.723zm-.482 7.802c-.013.656-.02 1.317-.02 1.984h4c0-.641.006-1.275.019-1.903zm-.02 1.984c0 .723.008 1.438.023 2.148l3.999-.088c-.014-.68-.022-1.366-.022-2.06zm.212 6.409c.098 1.448.228 2.865.389 4.252l3.974-.462c-.154-1.322-.278-2.675-.372-4.059zm.993 8.5c.242 1.437.518 2.839.825 4.206l3.903-.878c-.292-1.296-.554-2.627-.784-3.993zm1.883 8.362c.402 1.407.837 2.774 1.302 4.101l3.775-1.324c-.439-1.252-.85-2.543-1.23-3.874zm2.847 8.111c.568 1.35 1.168 2.655 1.795 3.915l3.582-1.781c-.59-1.186-1.155-2.414-1.69-3.686zm3.837 7.71c.736 1.268 1.498 2.484 2.281 3.652l3.322-2.228c-.736-1.097-1.452-2.24-2.143-3.432zm4.794 7.148c.897 1.167 1.812 2.276 2.739 3.33l3.005-2.639c-.87-.991-1.73-2.034-2.573-3.13zm5.683 6.475c1.045 1.045 2.094 2.027 3.136 2.947l2.646-3.001c-.982-.865-1.969-1.789-2.951-2.773zm6.457 5.695c1.188.921 2.354 1.764 3.482 2.532l2.251-3.307c-1.063-.724-2.162-1.517-3.28-2.385z" fill="#000"/><path d="m666.65 303-11.653-19.939-11.441 20.061zm7.35-130c-.675-1.883-.675-1.883-.675-1.882-.001 0-.001 0-.001 0-.001 0-.001 0-.002 0-.001.001-.002.001-.003.002-.003 0-.006.002-.01.003-.007.003-.018.007-.03.011-.025.01-.06.023-.105.039-.089.034-.216.083-.378.148-.324.129-.791.323-1.379.586l1.632 3.652c.537-.24.954-.413 1.232-.524.139-.055.243-.096.309-.121.033-.012.057-.021.072-.026.007-.003.012-.005.014-.006h.001-.001-.001c0 .001 0 .001-.675-1.882zm-6.151.663c-1.034.552-2.183 1.204-3.419 1.961l2.09 3.41c1.165-.713 2.246-1.326 3.215-1.844zm-6.73 4.119c-1.028.712-2.092 1.488-3.18 2.332l2.452 3.16c1.028-.797 2.033-1.53 3.005-2.203zm-6.226 4.83c-.964.836-1.938 1.724-2.913 2.668l2.782 2.874c.92-.89 1.84-1.73 2.751-2.519zm-5.672 5.489c-.872.943-1.739 1.931-2.595 2.967l3.084 2.548c.807-.977 1.625-1.909 2.448-2.798zm-5.024 6.083c-.766 1.042-1.518 2.125-2.252 3.251l3.352 2.183c.691-1.061 1.4-2.083 2.122-3.065zm-4.312 6.62c-.642 1.121-1.264 2.279-1.863 3.475l3.577 1.791c.565-1.129 1.151-2.221 1.757-3.277zm-3.529 7.05c-.513 1.185-1.003 2.405-1.466 3.66l3.752 1.385c.438-1.186.901-2.338 1.385-3.457zm-2.732 7.392c-.381 1.233-.738 2.497-1.066 3.792l3.877.984c.311-1.228.649-2.426 1.01-3.593zm-1.939 7.631c-.254 1.265-.483 2.557-.683 3.877l3.955.6c.191-1.257.408-2.486.65-3.688zm-1.183 7.775c-.134 1.275-.242 2.573-.324 3.897l3.993.245c.078-1.266.181-2.507.309-3.723zm-.482 7.802c-.013.656-.02 1.317-.02 1.984h4c0-.641.006-1.275.019-1.903zm-.02 1.984c0 .723.008 1.438.023 2.148l3.999-.088c-.014-.68-.022-1.366-.022-2.06zm.212 6.409c.098 1.448.228 2.865.389 4.252l3.974-.462c-.154-1.322-.278-2.675-.372-4.059zm.993 8.5c.242 1.437.518 2.839.825 4.206l3.903-.878c-.292-1.296-.554-2.627-.784-3.993zm1.883 8.362c.402 1.407.837 2.774 1.302 4.101l3.775-1.324c-.439-1.252-.85-2.543-1.23-3.874zm2.847 8.111c.568 1.35 1.168 2.655 1.795 3.915l3.582-1.781c-.59-1.186-1.155-2.414-1.69-3.686zm3.837 7.71c.736 1.268 1.498 2.484 2.281 3.652l3.322-2.228c-.736-1.097-1.452-2.24-2.143-3.432zm4.794 7.148c.897 1.167 1.812 2.276 2.739 3.33l3.005-2.639c-.87-.991-1.73-2.034-2.573-3.13zm5.683 6.475c1.045 1.045 2.094 2.027 3.136 2.947l2.646-3.001c-.982-.865-1.969-1.789-2.951-2.773zm6.457 5.695c1.188.921 2.354 1.764 3.482 2.532l2.251-3.307c-1.063-.724-2.162-1.517-3.28-2.385z" fill="#000"/><path d="m345.35 173 11.653 19.939 11.441-20.061zm-7.35 130c.675 1.883.675 1.883.675 1.882h.001.002c.001-.001.002-.001.003-.002.003 0 .006-.002.01-.003.007-.003.018-.007.03-.011.025-.01.06-.023.105-.039.089-.034.216-.083.378-.148.324-.129.791-.323 1.379-.586l-1.632-3.652c-.537.24-.954.413-1.232.524-.139.055-.243.096-.309.121-.033.012-.057.021-.072.026-.007.003-.012.005-.014.006-.001 0-.001 0-.001 0h.001.001c0-.001 0-.001.675 1.882zm6.151-.663c1.034-.552 2.183-1.204 3.419-1.961l-2.09-3.41c-1.165.713-2.246 1.326-3.215 1.844zm6.73-4.119c1.028-.712 2.092-1.488 3.18-2.332l-2.452-3.16c-1.028.797-2.033 1.53-3.005 2.203zm6.226-4.83c.964-.836 1.938-1.724 2.913-2.668l-2.782-2.874c-.92.89-1.84 1.73-2.751 2.519zm5.672-5.489c.872-.943 1.739-1.931 2.595-2.967l-3.084-2.548c-.807.977-1.625 1.909-2.448 2.798zm5.024-6.083c.766-1.042 1.518-2.125 2.252-3.251l-3.352-2.183c-.691 1.061-1.4 2.083-2.122 3.065zm4.312-6.62c.642-1.121 1.264-2.279 1.863-3.475l-3.577-1.791c-.565 1.129-1.151 2.221-1.757 3.277zm3.529-7.05c.513-1.185 1.003-2.405 1.466-3.66l-3.752-1.385c-.438 1.186-.901 2.338-1.385 3.457zm2.732-7.392c.381-1.233.738-2.497 1.066-3.792l-3.877-.984c-.311 1.228-.649 2.426-1.01 3.593zm1.939-7.631c.254-1.265.483-2.557.683-3.877l-3.955-.6c-.191 1.257-.408 2.486-.65 3.688zm1.183-7.775c.134-1.275.242-2.573.324-3.897l-3.993-.245c-.078 1.266-.181 2.507-.309 3.723zm.482-7.802c.013-.656.02-1.317.02-1.984h-4c0 .641-.006 1.275-.019 1.903zm.02-1.984c0-.723-.008-1.438-.023-2.148l-3.999.088c.014.68.022 1.366.022 2.06zm-.212-6.409c-.098-1.448-.228-2.865-.389-4.252l-3.974.462c.154 1.322.278 2.675.372 4.059zm-.993-8.5c-.242-1.437-.518-2.839-.825-4.206l-3.903.878c.292 1.296.554 2.627.784 3.993zm-1.883-8.362c-.402-1.407-.837-2.774-1.302-4.101l-3.775 1.324c.439 1.252.85 2.543 1.23 3.874zm-2.847-8.111c-.568-1.35-1.168-2.655-1.795-3.915l-3.582 1.781c.59 1.186 1.155 2.414 1.69 3.686zm-3.837-7.71c-.736-1.268-1.498-2.484-2.281-3.652l-3.322 2.228c.736 1.097 1.452 2.24 2.143 3.432zm-4.794-7.148c-.897-1.167-1.812-2.276-2.739-3.33l-3.005 2.639c.87.991 1.73 2.034 2.573 3.13zm-5.683-6.475c-1.045-1.045-2.094-2.027-3.136-2.947l-2.646 3.001c.982.865 1.969 1.789 2.951 2.773zm-6.457-5.695c-1.188-.921-2.354-1.764-3.482-2.532l-2.251 3.307c1.063.724 2.162 1.517 3.28 2.385z" fill="#000"/><path d="m547.35 173 11.653 19.939 11.441-20.061zm-7.35 130c.675 1.883.675 1.883.675 1.882h.001.002c.001-.001.002-.001.003-.002.003 0 .006-.002.01-.003.007-.003.018-.007.03-.011.025-.01.06-.023.105-.039.089-.034.216-.083.378-.148.324-.129.791-.323 1.379-.586l-1.632-3.652c-.537.24-.954.413-1.232.524-.139.055-.243.096-.309.121-.033.012-.057.021-.072.026-.007.003-.012.005-.014.006-.001 0-.001 0-.001 0h.001.001c0-.001 0-.001.675 1.882zm6.151-.663c1.034-.552 2.183-1.204 3.419-1.961l-2.09-3.41c-1.165.713-2.246 1.326-3.215 1.844zm6.73-4.119c1.028-.712 2.092-1.488 3.18-2.332l-2.452-3.16c-1.028.797-2.033 1.53-3.005 2.203zm6.226-4.83c.964-.836 1.938-1.724 2.913-2.668l-2.782-2.874c-.92.89-1.84 1.73-2.751 2.519zm5.672-5.489c.872-.943 1.739-1.931 2.595-2.967l-3.084-2.548c-.807.977-1.625 1.909-2.448 2.798zm5.024-6.083c.766-1.042 1.518-2.125 2.252-3.251l-3.352-2.183c-.691 1.061-1.4 2.083-2.122 3.065zm4.312-6.62c.642-1.121 1.264-2.279 1.863-3.475l-3.577-1.791c-.565 1.129-1.151 2.221-1.757 3.277zm3.529-7.05c.513-1.185 1.003-2.405 1.466-3.66l-3.752-1.385c-.438 1.186-.901 2.338-1.385 3.457zm2.732-7.392c.381-1.233.738-2.497 1.066-3.792l-3.877-.984c-.311 1.228-.649 2.426-1.01 3.593zm1.939-7.631c.254-1.265.483-2.557.683-3.877l-3.955-.6c-.191 1.257-.408 2.486-.65 3.688zm1.183-7.775c.134-1.275.242-2.573.324-3.897l-3.993-.245c-.078 1.266-.181 2.507-.309 3.723zm.482-7.802c.013-.656.02-1.317.02-1.984h-4c0 .641-.006 1.275-.019 1.903zm.02-1.984c0-.723-.008-1.438-.023-2.148l-3.999.088c.014.68.022 1.366.022 2.06zm-.212-6.409c-.098-1.448-.228-2.865-.389-4.252l-3.974.462c.154 1.322.278 2.675.372 4.059zm-.993-8.5c-.242-1.437-.518-2.839-.825-4.206l-3.903.878c.292 1.296.554 2.627.784 3.993zm-1.883-8.362c-.402-1.407-.837-2.774-1.302-4.101l-3.775 1.324c.439 1.252.85 2.543 1.23 3.874zm-2.847-8.111c-.568-1.35-1.168-2.655-1.795-3.915l-3.582 1.781c.59 1.186 1.155 2.414 1.69 3.686zm-3.837-7.71c-.736-1.268-1.498-2.484-2.281-3.652l-3.322 2.228c.736 1.097 1.452 2.24 2.143 3.432zm-4.794-7.148c-.897-1.167-1.812-2.276-2.739-3.33l-3.005 2.639c.87.991 1.73 2.034 2.573 3.13zm-5.683-6.475c-1.045-1.045-2.094-2.027-3.136-2.947l-2.646 3.001c.982.865 1.969 1.789 2.951 2.773zm-6.457-5.695c-1.188-.921-2.354-1.764-3.482-2.532l-2.251 3.307c1.063.724 2.162 1.517 3.28 2.385z" fill="#000"/><path d="m745.35 173 11.653 19.939 11.441-20.061zm-7.35 130c.675 1.883.675 1.883.675 1.882h.001.002c.001-.001.002-.001.003-.002.003 0 .006-.002.01-.003.007-.003.018-.007.03-.011.025-.01.06-.023.105-.039.089-.034.216-.083.378-.148.324-.129.791-.323 1.379-.586l-1.632-3.652c-.537.24-.954.413-1.232.524-.139.055-.243.096-.309.121-.033.012-.057.021-.072.026-.007.003-.012.005-.014.006-.001 0-.001 0-.001 0h.001.001c0-.001 0-.001.675 1.882zm6.151-.663c1.034-.552 2.183-1.204 3.419-1.961l-2.09-3.41c-1.165.713-2.246 1.326-3.215 1.844zm6.73-4.119c1.028-.712 2.092-1.488 3.18-2.332l-2.452-3.16c-1.028.797-2.033 1.53-3.005 2.203zm6.226-4.83c.964-.836 1.938-1.724 2.913-2.668l-2.782-2.874c-.92.89-1.84 1.73-2.751 2.519zm5.672-5.489c.872-.943 1.739-1.931 2.595-2.967l-3.084-2.548c-.807.977-1.625 1.909-2.448 2.798zm5.024-6.083c.766-1.042 1.518-2.125 2.252-3.251l-3.352-2.183c-.691 1.061-1.4 2.083-2.122 3.065zm4.312-6.62c.642-1.121 1.264-2.279 1.863-3.475l-3.577-1.791c-.565 1.129-1.151 2.221-1.757 3.277zm3.529-7.05c.513-1.185 1.003-2.405 1.466-3.66l-3.752-1.385c-.438 1.186-.901 2.338-1.385 3.457zm2.732-7.392c.381-1.233.738-2.497 1.066-3.792l-3.877-.984c-.311 1.228-.649 2.426-1.01 3.593zm1.939-7.631c.254-1.265.483-2.557.683-3.877l-3.955-.6c-.191 1.257-.408 2.486-.65 3.688zm1.183-7.775c.134-1.275.242-2.573.324-3.897l-3.993-.245c-.078 1.266-.181 2.507-.309 3.723zm.482-7.802c.013-.656.02-1.317.02-1.984h-4c0 .641-.006 1.275-.019 1.903zm.02-1.984c0-.723-.008-1.438-.023-2.148l-3.999.088c.014.68.022 1.366.022 2.06zm-.212-6.409c-.098-1.448-.228-2.865-.389-4.252l-3.974.462c.154 1.322.278 2.675.372 4.059zm-.993-8.5c-.242-1.437-.518-2.839-.825-4.206l-3.903.878c.292 1.296.554 2.627.784 3.993zm-1.883-8.362c-.402-1.407-.837-2.774-1.302-4.101l-3.775 1.324c.439 1.252.85 2.543 1.23 3.874zm-2.847-8.111c-.568-1.35-1.168-2.655-1.795-3.915l-3.582 1.781c.59 1.186 1.155 2.414 1.69 3.686zm-3.837-7.71c-.736-1.268-1.498-2.484-2.281-3.652l-3.322 2.228c.736 1.097 1.452 2.24 2.143 3.432zm-4.794-7.148c-.897-1.167-1.812-2.276-2.739-3.33l-3.005 2.639c.87.991 1.73 2.034 2.573 3.13zm-5.683-6.475c-1.045-1.045-2.094-2.027-3.136-2.947l-2.646 3.001c.982.865 1.969 1.789 2.951 2.773zm-6.457-5.695c-1.188-.921-2.354-1.764-3.482-2.532l-2.251 3.307c1.063.724 2.162 1.517 3.28 2.385z" fill="#000"/><path d="m63.024 343.416h-4.08v16.584h4.512c3.96 0 8.064-1.656 8.064-8.376 0-6.864-4.128-8.208-8.496-8.208zm-.912 2.376h1.464c2.448 0 4.608.84 4.608 5.832 0 4.896-2.04 6-4.512 6h-1.56zm21.4481 10.848v-5.328c0-2.808-1.488-4.368-4.872-4.368-1.44 0-3.048.312-4.608.912l.72 2.088c1.272-.432 2.496-.672 3.36-.672 1.632 0 2.376.552 2.376 2.208v.72h-1.584c-3.696 0-5.784 1.488-5.784 4.248 0 2.304 1.56 3.912 4.104 3.912 1.512 0 2.904-.552 3.792-1.896.504 1.224 1.416 1.728 2.808 1.848l.648-2.04c-.624-.24-.96-.6-.96-1.632zm-5.472 1.488c-1.176 0-1.8-.696-1.8-1.92 0-1.488.984-2.208 2.976-2.208h1.272v2.568c-.576 1.008-1.368 1.56-2.448 1.56zm15.4536-11.16c-1.488 0-2.712 1.008-3.312 2.832l-.288-2.496h-2.664v12.696h3.072v-6.768c.48-2.136 1.272-3.264 2.808-3.264.432 0 .744.048 1.128.144l.528-2.976c-.408-.12-.816-.168-1.272-.168zm6.2533 13.032v-18.12l-3.072.336v17.784zm3.384-7.104 4.224-5.592h-3.24l-4.248 5.76 4.368 6.936h3.528zm28.18 7.104-1.296-16.584h-4.128l-2.784 11.616-2.952-11.616h-4.08l-1.32 16.584h3.072l.408-6.84c.144-2.376.192-4.656.096-6.888l3.216 11.928h3l3.024-11.904c-.048 1.752.072 4.32.216 6.768l.432 6.936zm8.306-13.056c-3.768 0-6 2.712-6 6.696 0 4.176 2.232 6.72 5.976 6.72s5.976-2.712 5.976-6.72c0-4.152-2.208-6.696-5.952-6.696zm0 2.328c1.776 0 2.712 1.344 2.712 4.368s-.936 4.392-2.736 4.392-2.736-1.344-2.736-4.392c0-3 .96-4.368 2.76-4.368zm19.511-7.056-3.072-.336v6.432c-.792-.792-1.848-1.368-3.144-1.368-3.216 0-5.16 2.808-5.16 6.72 0 4.032 1.656 6.696 4.824 6.696 1.632 0 2.856-.816 3.624-1.968l.216 1.608h2.712zm-5.688 15.816c-1.512 0-2.448-1.128-2.448-4.392 0-3.048 1.056-4.392 2.664-4.392 1.032 0 1.728.528 2.4 1.344v5.808c-.72 1.08-1.488 1.632-2.616 1.632zm19.557-4.68c0-4.008-2.04-6.408-5.592-6.408-3.6 0-5.64 2.928-5.64 6.792 0 4.008 2.112 6.624 6.048 6.624 1.92 0 3.456-.696 4.704-1.704l-1.272-1.752c-1.104.768-2.04 1.128-3.168 1.128-1.68 0-2.904-.84-3.12-3.432h7.968c.024-.336.072-.84.072-1.248zm-3.048-.744h-4.992c.168-2.52 1.08-3.48 2.52-3.48 1.728 0 2.472 1.248 2.472 3.336z" fill="#7b61ff"/></svg>