<svg width="1012" height="440" viewBox="0 0 1012 440" fill="none" xmlns="http://www.w3.org/2000/svg">
<rect width="1012" height="440" fill="white"/>
<rect y="187" width="1012" height="253" fill="#815CFF" fill-opacity="0.05"/>
<circle cx="306" cy="72" r="59" fill="white" stroke="black" stroke-width="2"/>
<path d="M285.129 74.084V81.5H288.321V64.916H285.129V71.564H279.225V64.916H276.057V81.5H279.225V74.084H285.129ZM297.27 68.444C293.502 68.444 291.27 71.156 291.27 75.14C291.27 79.316 293.502 81.86 297.246 81.86C300.99 81.86 303.222 79.148 303.222 75.14C303.222 70.988 301.014 68.444 297.27 68.444ZM297.27 70.772C299.046 70.772 299.982 72.116 299.982 75.14C299.982 78.164 299.046 79.532 297.246 79.532C295.446 79.532 294.51 78.188 294.51 75.14C294.51 72.14 295.47 70.772 297.27 70.772ZM319.566 68.444C317.886 68.444 316.71 69.26 315.75 70.58C315.27 69.236 314.166 68.444 312.678 68.444C311.07 68.444 309.918 69.188 309.006 70.46L308.766 68.804H306.102V81.5H309.174V72.668C309.87 71.492 310.518 70.748 311.598 70.748C312.342 70.748 312.99 71.204 312.99 72.788V81.5H316.062V72.668C316.758 71.492 317.406 70.748 318.462 70.748C319.23 70.748 319.854 71.204 319.854 72.788V81.5H322.926V72.308C322.926 69.908 321.582 68.444 319.566 68.444ZM336.909 74.852C336.909 70.844 334.869 68.444 331.317 68.444C327.717 68.444 325.677 71.372 325.677 75.236C325.677 79.244 327.789 81.86 331.725 81.86C333.645 81.86 335.181 81.164 336.429 80.156L335.157 78.404C334.053 79.172 333.117 79.532 331.989 79.532C330.309 79.532 329.085 78.692 328.869 76.1H336.837C336.861 75.764 336.909 75.26 336.909 74.852ZM333.861 74.108H328.869C329.037 71.588 329.949 70.628 331.389 70.628C333.117 70.628 333.861 71.876 333.861 73.964V74.108Z" fill="black"/>
<circle cx="506" cy="72" r="59" fill="white" stroke="black" stroke-width="2"/>
<path d="M490.981 81.5V64.916H488.101V72.692C488.101 75.044 488.389 77.444 488.533 78.356L482.749 64.916H478.741V81.5H481.621V74.732C481.621 71.66 481.357 69.548 481.189 68.084L486.877 81.5H490.981ZM505.186 74.852C505.186 70.844 503.146 68.444 499.594 68.444C495.994 68.444 493.954 71.372 493.954 75.236C493.954 79.244 496.066 81.86 500.002 81.86C501.922 81.86 503.458 81.164 504.706 80.156L503.434 78.404C502.33 79.172 501.394 79.532 500.266 79.532C498.586 79.532 497.362 78.692 497.146 76.1H505.114C505.138 75.764 505.186 75.26 505.186 74.852ZM502.138 74.108H497.146C497.314 71.588 498.226 70.628 499.666 70.628C501.394 70.628 502.138 71.876 502.138 73.964V74.108ZM520.756 81.5L523.516 68.804H520.564L518.668 79.244L516.652 68.804H513.508L511.3 79.244L509.524 68.804H506.452L509.26 81.5H513.028L514.996 71.54L516.916 81.5H520.756ZM529.645 68.444C526.693 68.444 524.749 70.028 524.749 72.14C524.749 74.012 525.901 75.26 528.517 75.98C530.893 76.652 531.397 76.988 531.397 78.092C531.397 78.98 530.509 79.58 529.117 79.58C527.845 79.58 526.669 79.076 525.709 78.308L524.149 80.06C525.325 81.116 527.029 81.86 529.213 81.86C532.117 81.86 534.565 80.468 534.565 77.828C534.565 75.572 533.101 74.516 530.509 73.82C528.349 73.22 527.845 72.836 527.845 71.996C527.845 71.228 528.541 70.724 529.837 70.724C530.893 70.724 531.901 71.084 532.957 71.804L534.157 69.956C532.957 69.02 531.469 68.444 529.645 68.444Z" fill="black"/>
<circle cx="706" cy="72" r="59" fill="white" stroke="black" stroke-width="2"/>
<path d="M676.992 64.916H672.096V81.5H675.264V75.716H677.208C680.952 75.716 683.712 74.012 683.712 70.196C683.712 66.62 681.168 64.916 676.992 64.916ZM676.968 73.34H675.264V67.244H676.968C679.128 67.244 680.4 68.108 680.4 70.196C680.4 72.62 679.08 73.34 676.968 73.34ZM692.444 68.468C690.956 68.468 689.732 69.476 689.132 71.3L688.844 68.804H686.18V81.5H689.252V74.732C689.732 72.596 690.524 71.468 692.06 71.468C692.492 71.468 692.804 71.516 693.188 71.612L693.716 68.636C693.308 68.516 692.9 68.468 692.444 68.468ZM700.575 68.444C696.807 68.444 694.575 71.156 694.575 75.14C694.575 79.316 696.807 81.86 700.551 81.86C704.295 81.86 706.527 79.148 706.527 75.14C706.527 70.988 704.319 68.444 700.575 68.444ZM700.575 70.772C702.351 70.772 703.287 72.116 703.287 75.14C703.287 78.164 702.351 79.532 700.551 79.532C698.751 79.532 697.815 78.188 697.815 75.14C697.815 72.14 698.775 70.772 700.575 70.772ZM714.663 63.38C711.207 63.38 709.767 65.132 709.767 67.46V68.804H707.799V71.012H709.767V81.5H712.839V71.012H716.847V81.5H719.919V68.804H712.839V67.508C712.839 66.308 713.295 65.732 714.951 65.732C715.935 65.732 716.847 65.972 717.615 66.332L718.551 64.292C717.519 63.788 716.271 63.38 714.663 63.38ZM726.562 78.404V63.38L723.49 63.716V78.62C723.49 80.732 724.57 81.86 726.466 81.86C727.258 81.86 728.026 81.692 728.65 81.428L728.002 79.268C727.786 79.34 727.522 79.388 727.282 79.388C726.778 79.388 726.562 79.1 726.562 78.404ZM740.869 74.852C740.869 70.844 738.829 68.444 735.277 68.444C731.677 68.444 729.637 71.372 729.637 75.236C729.637 79.244 731.749 81.86 735.685 81.86C737.605 81.86 739.141 81.164 740.389 80.156L739.117 78.404C738.013 79.172 737.077 79.532 735.949 79.532C734.269 79.532 733.045 78.692 732.829 76.1H740.797C740.821 75.764 740.869 75.26 740.869 74.852ZM737.821 74.108H732.829C732.997 71.588 733.909 70.628 735.349 70.628C737.077 70.628 737.821 71.876 737.821 73.964V74.108Z" fill="black"/>
<circle cx="306" cy="304" r="58" fill="white" stroke="#00A2FF" stroke-width="4"/>
<path d="M285.129 306.084V313.5H288.321V296.916H285.129V303.564H279.225V296.916H276.057V313.5H279.225V306.084H285.129ZM297.27 300.444C293.502 300.444 291.27 303.156 291.27 307.14C291.27 311.316 293.502 313.86 297.246 313.86C300.99 313.86 303.222 311.148 303.222 307.14C303.222 302.988 301.014 300.444 297.27 300.444ZM297.27 302.772C299.046 302.772 299.982 304.116 299.982 307.14C299.982 310.164 299.046 311.532 297.246 311.532C295.446 311.532 294.51 310.188 294.51 307.14C294.51 304.14 295.47 302.772 297.27 302.772ZM319.566 300.444C317.886 300.444 316.71 301.26 315.75 302.58C315.27 301.236 314.166 300.444 312.678 300.444C311.07 300.444 309.918 301.188 309.006 302.46L308.766 300.804H306.102V313.5H309.174V304.668C309.87 303.492 310.518 302.748 311.598 302.748C312.342 302.748 312.99 303.204 312.99 304.788V313.5H316.062V304.668C316.758 303.492 317.406 302.748 318.462 302.748C319.23 302.748 319.854 303.204 319.854 304.788V313.5H322.926V304.308C322.926 301.908 321.582 300.444 319.566 300.444ZM336.909 306.852C336.909 302.844 334.869 300.444 331.317 300.444C327.717 300.444 325.677 303.372 325.677 307.236C325.677 311.244 327.789 313.86 331.725 313.86C333.645 313.86 335.181 313.164 336.429 312.156L335.157 310.404C334.053 311.172 333.117 311.532 331.989 311.532C330.309 311.532 329.085 310.692 328.869 308.1H336.837C336.861 307.764 336.909 307.26 336.909 306.852ZM333.861 306.108H328.869C329.037 303.588 329.949 302.628 331.389 302.628C333.117 302.628 333.861 303.876 333.861 305.964V306.108Z" fill="#00A2FF"/>
<circle cx="506" cy="304" r="59" fill="white" stroke="black" stroke-width="2"/>
<path d="M490.981 313.5V296.916H488.101V304.692C488.101 307.044 488.389 309.444 488.533 310.356L482.749 296.916H478.741V313.5H481.621V306.732C481.621 303.66 481.357 301.548 481.189 300.084L486.877 313.5H490.981ZM505.186 306.852C505.186 302.844 503.146 300.444 499.594 300.444C495.994 300.444 493.954 303.372 493.954 307.236C493.954 311.244 496.066 313.86 500.002 313.86C501.922 313.86 503.458 313.164 504.706 312.156L503.434 310.404C502.33 311.172 501.394 311.532 500.266 311.532C498.586 311.532 497.362 310.692 497.146 308.1H505.114C505.138 307.764 505.186 307.26 505.186 306.852ZM502.138 306.108H497.146C497.314 303.588 498.226 302.628 499.666 302.628C501.394 302.628 502.138 303.876 502.138 305.964V306.108ZM520.756 313.5L523.516 300.804H520.564L518.668 311.244L516.652 300.804H513.508L511.3 311.244L509.524 300.804H506.452L509.26 313.5H513.028L514.996 303.54L516.916 313.5H520.756ZM529.645 300.444C526.693 300.444 524.749 302.028 524.749 304.14C524.749 306.012 525.901 307.26 528.517 307.98C530.893 308.652 531.397 308.988 531.397 310.092C531.397 310.98 530.509 311.58 529.117 311.58C527.845 311.58 526.669 311.076 525.709 310.308L524.149 312.06C525.325 313.116 527.029 313.86 529.213 313.86C532.117 313.86 534.565 312.468 534.565 309.828C534.565 307.572 533.101 306.516 530.509 305.82C528.349 305.22 527.845 304.836 527.845 303.996C527.845 303.228 528.541 302.724 529.837 302.724C530.893 302.724 531.901 303.084 532.957 303.804L534.157 301.956C532.957 301.02 531.469 300.444 529.645 300.444Z" fill="black"/>
<circle cx="706" cy="304" r="59" fill="white" stroke="black" stroke-width="2"/>
<path d="M676.992 296.916H672.096V313.5H675.264V307.716H677.208C680.952 307.716 683.712 306.012 683.712 302.196C683.712 298.62 681.168 296.916 676.992 296.916ZM676.968 305.34H675.264V299.244H676.968C679.128 299.244 680.4 300.108 680.4 302.196C680.4 304.62 679.08 305.34 676.968 305.34ZM692.444 300.468C690.956 300.468 689.732 301.476 689.132 303.3L688.844 300.804H686.18V313.5H689.252V306.732C689.732 304.596 690.524 303.468 692.06 303.468C692.492 303.468 692.804 303.516 693.188 303.612L693.716 300.636C693.308 300.516 692.9 300.468 692.444 300.468ZM700.575 300.444C696.807 300.444 694.575 303.156 694.575 307.14C694.575 311.316 696.807 313.86 700.551 313.86C704.295 313.86 706.527 311.148 706.527 307.14C706.527 302.988 704.319 300.444 700.575 300.444ZM700.575 302.772C702.351 302.772 703.287 304.116 703.287 307.14C703.287 310.164 702.351 311.532 700.551 311.532C698.751 311.532 697.815 310.188 697.815 307.14C697.815 304.14 698.775 302.772 700.575 302.772ZM714.663 295.38C711.207 295.38 709.767 297.132 709.767 299.46V300.804H707.799V303.012H709.767V313.5H712.839V303.012H716.847V313.5H719.919V300.804H712.839V299.508C712.839 298.308 713.295 297.732 714.951 297.732C715.935 297.732 716.847 297.972 717.615 298.332L718.551 296.292C717.519 295.788 716.271 295.38 714.663 295.38ZM726.562 310.404V295.38L723.49 295.716V310.62C723.49 312.732 724.57 313.86 726.466 313.86C727.258 313.86 728.026 313.692 728.65 313.428L728.002 311.268C727.786 311.34 727.522 311.388 727.282 311.388C726.778 311.388 726.562 311.1 726.562 310.404ZM740.869 306.852C740.869 302.844 738.829 300.444 735.277 300.444C731.677 300.444 729.637 303.372 729.637 307.236C729.637 311.244 731.749 313.86 735.685 313.86C737.605 313.86 739.141 313.164 740.389 312.156L739.117 310.404C738.013 311.172 737.077 311.532 735.949 311.532C734.269 311.532 733.045 310.692 732.829 308.1H740.797C740.821 307.764 740.869 307.26 740.869 306.852ZM737.821 306.108H732.829C732.997 303.588 733.909 302.628 735.349 302.628C737.077 302.628 737.821 303.876 737.821 305.964V306.108Z" fill="black"/>
<path d="M63.024 297.416H58.944V314H63.456C67.416 314 71.52 312.344 71.52 305.624C71.52 298.76 67.392 297.416 63.024 297.416ZM62.112 299.792H63.576C66.024 299.792 68.184 300.632 68.184 305.624C68.184 310.52 66.144 311.624 63.672 311.624H62.112V299.792ZM83.5601 310.64V305.312C83.5601 302.504 82.0721 300.944 78.6881 300.944C77.2481 300.944 75.6401 301.256 74.0801 301.856L74.8001 303.944C76.0721 303.512 77.2961 303.272 78.1601 303.272C79.7921 303.272 80.5361 303.824 80.5361 305.48V306.2H78.9521C75.2561 306.2 73.1681 307.688 73.1681 310.448C73.1681 312.752 74.7281 314.36 77.2721 314.36C78.7841 314.36 80.1761 313.808 81.0641 312.464C81.5681 313.688 82.4801 314.192 83.8721 314.312L84.5201 312.272C83.8961 312.032 83.5601 311.672 83.5601 310.64ZM78.0881 312.128C76.9121 312.128 76.2881 311.432 76.2881 310.208C76.2881 308.72 77.2721 308 79.2641 308H80.5361V310.568C79.9601 311.576 79.1681 312.128 78.0881 312.128ZM93.5417 300.968C92.0537 300.968 90.8297 301.976 90.2297 303.8L89.9417 301.304H87.2777V314H90.3497V307.232C90.8297 305.096 91.6217 303.968 93.1577 303.968C93.5897 303.968 93.9017 304.016 94.2857 304.112L94.8137 301.136C94.4057 301.016 93.9977 300.968 93.5417 300.968ZM99.795 314V295.88L96.723 296.216V314H99.795ZM103.179 306.896L107.403 301.304H104.163L99.915 307.064L104.283 314H107.811L103.179 306.896ZM131.359 314L130.063 297.416H125.935L123.151 309.032L120.199 297.416H116.119L114.799 314H117.871L118.279 307.16C118.423 304.784 118.471 302.504 118.375 300.272L121.591 312.2H124.591L127.615 300.296C127.567 302.048 127.687 304.616 127.831 307.064L128.263 314H131.359ZM139.665 300.944C135.897 300.944 133.665 303.656 133.665 307.64C133.665 311.816 135.897 314.36 139.641 314.36C143.385 314.36 145.617 311.648 145.617 307.64C145.617 303.488 143.409 300.944 139.665 300.944ZM139.665 303.272C141.441 303.272 142.377 304.616 142.377 307.64C142.377 310.664 141.441 312.032 139.641 312.032C137.841 312.032 136.905 310.688 136.905 307.64C136.905 304.64 137.865 303.272 139.665 303.272ZM159.176 296.216L156.104 295.88V302.312C155.312 301.52 154.256 300.944 152.96 300.944C149.744 300.944 147.8 303.752 147.8 307.664C147.8 311.696 149.456 314.36 152.624 314.36C154.256 314.36 155.48 313.544 156.248 312.392L156.464 314H159.176V296.216ZM153.488 312.032C151.976 312.032 151.04 310.904 151.04 307.64C151.04 304.592 152.096 303.248 153.704 303.248C154.736 303.248 155.432 303.776 156.104 304.592V310.4C155.384 311.48 154.616 312.032 153.488 312.032ZM173.045 307.352C173.045 303.344 171.005 300.944 167.453 300.944C163.853 300.944 161.813 303.872 161.813 307.736C161.813 311.744 163.925 314.36 167.861 314.36C169.781 314.36 171.317 313.664 172.565 312.656L171.293 310.904C170.189 311.672 169.253 312.032 168.125 312.032C166.445 312.032 165.221 311.192 165.005 308.6H172.973C172.997 308.264 173.045 307.76 173.045 307.352ZM169.997 306.608H165.005C165.173 304.088 166.085 303.128 167.525 303.128C169.253 303.128 169.997 304.376 169.997 306.464V306.608Z" fill="#7B61FF"/>
<path d="M266.65 257L254.997 237.061L243.556 257.122L266.65 257ZM274 127C273.325 125.117 273.325 125.117 273.325 125.118C273.324 125.118 273.324 125.118 273.324 125.118C273.324 125.118 273.324 125.118 273.324 125.118C273.323 125.118 273.323 125.118 273.322 125.118C273.321 125.119 273.32 125.119 273.319 125.12C273.316 125.12 273.313 125.122 273.309 125.123C273.302 125.126 273.291 125.13 273.279 125.134C273.254 125.144 273.219 125.157 273.174 125.173C273.085 125.207 272.958 125.256 272.796 125.321C272.472 125.45 272.005 125.644 271.417 125.907L273.049 129.559C273.586 129.319 274.003 129.146 274.281 129.035C274.42 128.98 274.524 128.939 274.59 128.914C274.623 128.902 274.647 128.893 274.662 128.888C274.669 128.885 274.674 128.883 274.676 128.882C274.677 128.882 274.677 128.882 274.677 128.882C274.677 128.882 274.677 128.882 274.677 128.882C274.677 128.882 274.676 128.882 274.676 128.882C274.676 128.882 274.676 128.882 274.676 128.882C274.676 128.882 274.675 128.882 274.675 128.882C274.675 128.883 274.675 128.883 274 127ZM267.849 127.663C266.815 128.215 265.666 128.867 264.43 129.624L266.52 133.034C267.685 132.321 268.766 131.708 269.735 131.19L267.849 127.663ZM261.119 131.782C260.091 132.494 259.027 133.27 257.939 134.114L260.391 137.274C261.419 136.477 262.424 135.744 263.396 135.071L261.119 131.782ZM254.893 136.612C253.929 137.448 252.955 138.336 251.98 139.28L254.762 142.154C255.682 141.264 256.602 140.424 257.513 139.635L254.893 136.612ZM249.221 142.101C248.349 143.044 247.482 144.032 246.626 145.068L249.71 147.616C250.517 146.639 251.335 145.707 252.158 144.818L249.221 142.101ZM244.197 148.184C243.431 149.226 242.679 150.309 241.945 151.435L245.297 153.618C245.988 152.557 246.697 151.535 247.419 150.553L244.197 148.184ZM239.885 154.804C239.243 155.925 238.621 157.083 238.022 158.279L241.599 160.07C242.164 158.941 242.75 157.849 243.356 156.793L239.885 154.804ZM236.356 161.854C235.843 163.039 235.353 164.259 234.89 165.514L238.642 166.899C239.08 165.713 239.543 164.561 240.027 163.442L236.356 161.854ZM233.624 169.246C233.243 170.479 232.886 171.743 232.558 173.038L236.435 174.022C236.746 172.794 237.084 171.596 237.445 170.429L233.624 169.246ZM231.685 176.877C231.431 178.142 231.202 179.434 231.002 180.754L234.957 181.354C235.148 180.097 235.365 178.868 235.607 177.666L231.685 176.877ZM230.502 184.652C230.368 185.927 230.26 187.225 230.178 188.549L234.171 188.794C234.249 187.528 234.352 186.287 234.48 185.071L230.502 184.652ZM230.02 192.454C230.007 193.11 230 193.771 230 194.438L234 194.438C234 193.797 234.006 193.163 234.019 192.535L230.02 192.454ZM230 194.438C230 195.161 230.008 195.876 230.023 196.586L234.022 196.498C234.008 195.818 234 195.132 234 194.438L230 194.438ZM230.212 200.847C230.31 202.295 230.44 203.712 230.601 205.099L234.575 204.637C234.421 203.315 234.297 201.962 234.203 200.578L230.212 200.847ZM231.205 209.347C231.447 210.784 231.723 212.186 232.03 213.553L235.933 212.675C235.641 211.379 235.379 210.048 235.149 208.682L231.205 209.347ZM233.088 217.709C233.49 219.116 233.925 220.483 234.39 221.81L238.165 220.486C237.726 219.234 237.315 217.943 236.935 216.612L233.088 217.709ZM235.935 225.82C236.503 227.17 237.103 228.475 237.73 229.735L241.312 227.954C240.722 226.768 240.157 225.54 239.622 224.268L235.935 225.82ZM239.772 233.53C240.508 234.798 241.27 236.014 242.053 237.182L245.375 234.954C244.639 233.857 243.923 232.714 243.232 231.522L239.772 233.53ZM244.566 240.678C245.463 241.845 246.378 242.954 247.305 244.008L250.31 241.369C249.44 240.378 248.58 239.335 247.737 238.239L244.566 240.678ZM250.249 247.153C251.294 248.198 252.343 249.18 253.385 250.1L256.031 247.099C255.049 246.234 254.062 245.31 253.08 244.326L250.249 247.153ZM256.706 252.848C257.894 253.769 259.06 254.612 260.188 255.38L262.439 252.073C261.376 251.349 260.277 250.556 259.159 249.688L256.706 252.848Z" fill="black"/>
</svg>
