<svg width="1012" height="376" viewBox="0 0 1012 376" fill="none" xmlns="http://www.w3.org/2000/svg">
<rect width="1012" height="376" fill="white"/>
<circle cx="246" cy="223" r="89" fill="white" stroke="black" stroke-width="2"/>
<path d="M211.215 225.64V238H216.535V210.36H211.215V221.44H201.375V210.36H196.095V238H201.375V225.64H211.215ZM231.45 216.24C225.17 216.24 221.45 220.76 221.45 227.4C221.45 234.36 225.17 238.6 231.41 238.6C237.65 238.6 241.37 234.08 241.37 227.4C241.37 220.48 237.69 216.24 231.45 216.24ZM231.45 220.12C234.41 220.12 235.97 222.36 235.97 227.4C235.97 232.44 234.41 234.72 231.41 234.72C228.41 234.72 226.85 232.48 226.85 227.4C226.85 222.4 228.45 220.12 231.45 220.12ZM268.61 216.24C265.81 216.24 263.85 217.6 262.25 219.8C261.45 217.56 259.61 216.24 257.13 216.24C254.45 216.24 252.53 217.48 251.01 219.6L250.61 216.84H246.17V238H251.29V223.28C252.45 221.32 253.53 220.08 255.33 220.08C256.57 220.08 257.65 220.84 257.65 223.48V238H262.77V223.28C263.93 221.32 265.01 220.08 266.77 220.08C268.05 220.08 269.09 220.84 269.09 223.48V238H274.21V222.68C274.21 218.68 271.97 216.24 268.61 216.24ZM297.514 226.92C297.514 220.24 294.114 216.24 288.194 216.24C282.194 216.24 278.794 221.12 278.794 227.56C278.794 234.24 282.314 238.6 288.874 238.6C292.074 238.6 294.634 237.44 296.714 235.76L294.594 232.84C292.754 234.12 291.194 234.72 289.314 234.72C286.514 234.72 284.474 233.32 284.114 229H297.394C297.434 228.44 297.514 227.6 297.514 226.92ZM292.434 225.68H284.114C284.394 221.48 285.914 219.88 288.314 219.88C291.194 219.88 292.434 221.96 292.434 225.44V225.68Z" fill="black"/>
<circle cx="506" cy="223" r="88" fill="white" stroke="#00A2FF" stroke-width="4"/>
<path d="M480.968 238V210.36H476.168V223.32C476.168 227.24 476.648 231.24 476.888 232.76L467.248 210.36H460.568V238H465.368V226.72C465.368 221.6 464.928 218.08 464.648 215.64L474.128 238H480.968ZM504.643 226.92C504.643 220.24 501.243 216.24 495.323 216.24C489.323 216.24 485.923 221.12 485.923 227.56C485.923 234.24 489.443 238.6 496.003 238.6C499.203 238.6 501.763 237.44 503.843 235.76L501.723 232.84C499.883 234.12 498.323 234.72 496.443 234.72C493.643 234.72 491.603 233.32 491.243 229H504.523C504.563 228.44 504.643 227.6 504.643 226.92ZM499.563 225.68H491.243C491.523 221.48 493.043 219.88 495.443 219.88C498.323 219.88 499.563 221.96 499.563 225.44V225.68ZM530.593 238L535.193 216.84H530.273L527.113 234.24L523.753 216.84H518.513L514.833 234.24L511.873 216.84H506.753L511.433 238H517.713L520.993 221.4L524.193 238H530.593ZM545.408 216.24C540.488 216.24 537.248 218.88 537.248 222.4C537.248 225.52 539.168 227.6 543.528 228.8C547.488 229.92 548.328 230.48 548.328 232.32C548.328 233.8 546.848 234.8 544.528 234.8C542.408 234.8 540.448 233.96 538.848 232.68L536.248 235.6C538.208 237.36 541.048 238.6 544.688 238.6C549.528 238.6 553.608 236.28 553.608 231.88C553.608 228.12 551.168 226.36 546.848 225.2C543.248 224.2 542.408 223.56 542.408 222.16C542.408 220.88 543.568 220.04 545.728 220.04C547.488 220.04 549.168 220.64 550.928 221.84L552.928 218.76C550.928 217.2 548.448 216.24 545.408 216.24Z" fill="#00A2FF"/>
<circle cx="766" cy="223" r="89" fill="white" stroke="black" stroke-width="2"/>
<path d="M717.654 210.36H709.494V238H714.774V228.36H718.014C724.254 228.36 728.854 225.52 728.854 219.16C728.854 213.2 724.614 210.36 717.654 210.36ZM717.614 224.4H714.774V214.24H717.614C721.214 214.24 723.334 215.68 723.334 219.16C723.334 223.2 721.134 224.4 717.614 224.4ZM743.407 216.28C740.927 216.28 738.887 217.96 737.887 221L737.407 216.84H732.967V238H738.087V226.72C738.887 223.16 740.207 221.28 742.767 221.28C743.487 221.28 744.007 221.36 744.647 221.52L745.527 216.56C744.847 216.36 744.167 216.28 743.407 216.28ZM756.958 216.24C750.678 216.24 746.958 220.76 746.958 227.4C746.958 234.36 750.678 238.6 756.918 238.6C763.158 238.6 766.878 234.08 766.878 227.4C766.878 220.48 763.198 216.24 756.958 216.24ZM756.958 220.12C759.918 220.12 761.478 222.36 761.478 227.4C761.478 232.44 759.918 234.72 756.918 234.72C753.918 234.72 752.358 232.48 752.358 227.4C752.358 222.4 753.958 220.12 756.958 220.12ZM780.438 207.8C774.678 207.8 772.278 210.72 772.278 214.6V216.84H768.998V220.52H772.278V238H777.398V220.52H784.078V238H789.198V216.84H777.398V214.68C777.398 212.68 778.158 211.72 780.918 211.72C782.558 211.72 784.078 212.12 785.358 212.72L786.918 209.32C785.198 208.48 783.118 207.8 780.438 207.8ZM800.27 232.84V207.8L795.15 208.36V233.2C795.15 236.72 796.95 238.6 800.11 238.6C801.43 238.6 802.71 238.32 803.75 237.88L802.67 234.28C802.31 234.4 801.87 234.48 801.47 234.48C800.63 234.48 800.27 234 800.27 232.84ZM824.116 226.92C824.116 220.24 820.716 216.24 814.796 216.24C808.796 216.24 805.396 221.12 805.396 227.56C805.396 234.24 808.916 238.6 815.476 238.6C818.676 238.6 821.236 237.44 823.316 235.76L821.196 232.84C819.356 234.12 817.796 234.72 815.916 234.72C813.116 234.72 811.076 233.32 810.716 229H823.996C824.036 228.44 824.116 227.6 824.116 226.92ZM819.036 225.68H810.716C810.996 221.48 812.516 219.88 814.916 219.88C817.796 219.88 819.036 221.96 819.036 225.44V225.68Z" fill="black"/>
<path d="M387.576 40.0133C388.298 40.0133 388.987 39.8821 389.644 39.6195C390.311 39.3569 390.99 38.985 391.679 38.5036L393.648 41.2769C392.86 41.9552 391.919 42.4968 390.825 42.9015C389.731 43.2954 388.588 43.4923 387.396 43.4923C385.602 43.4923 384.048 43.1149 382.735 42.36C381.433 41.6051 380.432 40.5439 379.732 39.1764C379.043 37.8089 378.698 36.2226 378.698 34.4174C378.698 32.6232 379.048 31.026 379.749 29.6256C380.46 28.2144 381.477 27.1149 382.801 26.3272C384.125 25.5285 385.678 25.1292 387.461 25.1292C388.698 25.1292 389.819 25.3043 390.825 25.6544C391.843 26.0044 392.778 26.535 393.632 27.2462L391.712 29.9046C390.366 28.9856 388.993 28.5262 387.593 28.5262C386.247 28.5262 385.186 29.0075 384.409 29.9703C383.643 30.933 383.26 32.4154 383.26 34.4174C383.26 36.3757 383.643 37.7979 384.409 38.6841C385.186 39.5703 386.242 40.0133 387.576 40.0133ZM402.849 37.6667C402.849 38.5856 403.03 39.2421 403.391 39.6359C403.752 40.0297 404.299 40.2267 405.032 40.2267C405.699 40.2267 406.356 40.0243 407.001 39.6195C407.658 39.2147 408.188 38.6896 408.593 38.0441V25.6215H412.925V43H409.151L408.921 40.8667C408.309 41.7091 407.521 42.36 406.558 42.8195C405.595 43.268 404.578 43.4923 403.506 43.4923C401.854 43.4923 400.607 43.0274 399.764 42.0974C398.933 41.1675 398.517 39.8656 398.517 38.1918V25.6215H402.849V37.6667ZM430.939 25.1456C431.464 25.1456 431.94 25.1894 432.367 25.2769C432.804 25.3535 433.236 25.4684 433.663 25.6215L432.892 32.399H430.004V29.0021C428.899 29.0896 427.93 29.5874 427.099 30.4954C426.278 31.4034 425.627 32.6342 425.146 34.1877V39.9969H428.609V43H418.369V39.9969H420.814V28.6082H418.369V25.6215H424.112L424.916 29.6092C425.562 28.1104 426.366 26.9945 427.329 26.2615C428.302 25.5176 429.506 25.1456 430.939 25.1456ZM450.626 25.1456C451.152 25.1456 451.627 25.1894 452.054 25.2769C452.492 25.3535 452.924 25.4684 453.351 25.6215L452.579 32.399H449.691V29.0021C448.586 29.0896 447.618 29.5874 446.786 30.4954C445.966 31.4034 445.315 32.6342 444.834 34.1877V39.9969H448.296V43H438.056V39.9969H440.501V28.6082H438.056V25.6215H443.8L444.604 29.6092C445.249 28.1104 446.053 26.9945 447.016 26.2615C447.99 25.5176 449.193 25.1456 450.626 25.1456ZM461.272 35.6318C461.392 37.1962 461.852 38.3559 462.65 39.1108C463.46 39.8656 464.494 40.2431 465.752 40.2431C466.55 40.2431 467.316 40.1173 468.049 39.8656C468.782 39.614 469.521 39.2421 470.265 38.7497L472.07 41.2277C471.227 41.9388 470.243 42.4968 469.116 42.9015C467.989 43.2954 466.775 43.4923 465.473 43.4923C463.624 43.4923 462.049 43.1094 460.747 42.3436C459.456 41.5778 458.477 40.5056 457.809 39.1272C457.153 37.7487 456.825 36.1515 456.825 34.3354C456.825 32.5959 457.147 31.0315 457.793 29.6421C458.449 28.2417 459.39 27.1422 460.615 26.3436C461.852 25.534 463.307 25.1292 464.981 25.1292C466.556 25.1292 467.929 25.4793 469.1 26.1795C470.27 26.8797 471.173 27.8916 471.807 29.2154C472.442 30.5282 472.759 32.0927 472.759 33.9087C472.759 34.5323 472.732 35.1067 472.677 35.6318H461.272ZM464.997 28.1815C463.914 28.1815 463.039 28.5699 462.371 29.3467C461.715 30.1125 461.332 31.2831 461.223 32.8585H468.542C468.52 31.3597 468.208 30.2055 467.606 29.3959C467.015 28.5863 466.146 28.1815 464.997 28.1815ZM477.267 43V25.6215H481.041L481.353 27.7713C482.097 26.8961 482.934 26.2397 483.864 25.8021C484.794 25.3535 485.795 25.1292 486.867 25.1292C488.421 25.1292 489.608 25.5778 490.428 26.4749C491.26 27.372 491.675 28.641 491.675 30.2821V43H487.343V31.9723C487.343 31.0533 487.283 30.3422 487.162 29.839C487.053 29.3248 486.845 28.9528 486.539 28.7231C486.243 28.4824 485.806 28.3621 485.226 28.3621C483.957 28.3621 482.748 29.1333 481.599 30.6759V43H477.267ZM511.954 42.0318C511.275 42.4803 510.471 42.8359 509.541 43.0985C508.622 43.361 507.649 43.4923 506.62 43.4923C505.231 43.4923 504.055 43.2462 503.092 42.7538C502.14 42.2615 501.424 41.5668 500.942 40.6697C500.461 39.7617 500.22 38.6896 500.22 37.4533V28.6903H496.446V25.6215H500.22V21.7979L504.552 21.2728V25.6215H510.296L509.853 28.6903H504.552V37.4369C504.552 38.345 504.771 39.0068 505.209 39.4226C505.647 39.8274 506.352 40.0297 507.326 40.0297C508.442 40.0297 509.487 39.7672 510.46 39.2421L511.954 42.0318ZM536.461 27.7221H550.606V31.1846H536.461V27.7221ZM536.461 34.401H550.606V37.8472H536.461V34.401ZM578.363 24.1446C578.812 27.5579 579.036 30.6595 579.036 33.4492V43H575.13V20.3046H580.841L587.454 39.1272C587.006 36.0749 586.781 33.0116 586.781 29.9374V20.3046H590.687V43H585.042L578.363 24.1446ZM599.084 35.6318C599.205 37.1962 599.664 38.3559 600.463 39.1108C601.272 39.8656 602.306 40.2431 603.564 40.2431C604.363 40.2431 605.129 40.1173 605.862 39.8656C606.595 39.614 607.333 39.2421 608.077 38.7497L609.882 41.2277C609.04 41.9388 608.055 42.4968 606.928 42.9015C605.802 43.2954 604.587 43.4923 603.285 43.4923C601.436 43.4923 599.861 43.1094 598.559 42.3436C597.268 41.5778 596.289 40.5056 595.622 39.1272C594.965 37.7487 594.637 36.1515 594.637 34.3354C594.637 32.5959 594.96 31.0315 595.605 29.6421C596.262 28.2417 597.203 27.1422 598.428 26.3436C599.664 25.534 601.119 25.1292 602.793 25.1292C604.368 25.1292 605.741 25.4793 606.912 26.1795C608.083 26.8797 608.985 27.8916 609.62 29.2154C610.254 30.5282 610.572 32.0927 610.572 33.9087C610.572 34.5323 610.544 35.1067 610.489 35.6318H599.084ZM602.809 28.1815C601.726 28.1815 600.851 28.5699 600.184 29.3467C599.527 30.1125 599.145 31.2831 599.035 32.8585H606.354C606.332 31.3597 606.02 30.2055 605.419 29.3959C604.828 28.5863 603.958 28.1815 602.809 28.1815ZM631.851 25.6215L629.192 43H624.105L622.349 30.9385L620.479 43H615.49L612.716 25.6215H616.786L618.296 40.3087L620.446 27.8205H624.433L626.403 40.3087L627.945 25.6215H631.851ZM641.38 40.2923C642.42 40.2923 643.24 40.1173 643.842 39.7672C644.455 39.4062 644.761 38.9029 644.761 38.2574C644.761 37.8089 644.657 37.4424 644.449 37.1579C644.241 36.8735 643.842 36.6055 643.251 36.3538C642.671 36.0913 641.791 35.8014 640.609 35.4841C639.406 35.1778 638.399 34.8168 637.59 34.401C636.78 33.9744 636.151 33.4274 635.702 32.76C635.254 32.0817 635.03 31.2503 635.03 30.2656C635.03 29.2591 635.314 28.3675 635.883 27.5908C636.463 26.814 637.294 26.2123 638.377 25.7856C639.471 25.348 640.762 25.1292 642.25 25.1292C644.898 25.1292 647.157 25.8075 649.028 27.1641L647.255 29.8062C645.669 28.7997 644.033 28.2964 642.349 28.2964C640.401 28.2964 639.428 28.8544 639.428 29.9703C639.428 30.3532 639.542 30.6704 639.772 30.9221C640.013 31.1737 640.423 31.4144 641.003 31.6441C641.594 31.8738 642.496 32.1583 643.711 32.4974C644.958 32.8475 645.975 33.2304 646.763 33.6462C647.562 34.0619 648.18 34.6144 648.617 35.3036C649.066 35.9928 649.29 36.8735 649.29 37.9456C649.29 39.1491 648.929 40.172 648.207 41.0144C647.496 41.8458 646.544 42.4694 645.352 42.8851C644.159 43.2899 642.841 43.4923 641.397 43.4923C639.821 43.4923 638.416 43.268 637.179 42.8195C635.943 42.3709 634.876 41.7528 633.979 40.9651L636.228 38.4379C636.939 39.0068 637.732 39.4609 638.607 39.8C639.482 40.1282 640.407 40.2923 641.38 40.2923Z" fill="#815CFF"/>
<path d="M463 312.5L443.307 324.564L463.601 335.586L463 312.5ZM284 302C282.11 302.653 282.11 302.654 282.11 302.654C282.11 302.654 282.11 302.654 282.11 302.654C282.11 302.654 282.11 302.654 282.11 302.654C282.11 302.655 282.11 302.655 282.11 302.656C282.111 302.656 282.111 302.657 282.112 302.659C282.112 302.661 282.113 302.664 282.115 302.668C282.117 302.675 282.121 302.684 282.125 302.697C282.133 302.721 282.146 302.755 282.161 302.799C282.193 302.886 282.239 303.012 282.3 303.173C282.423 303.497 282.606 303.965 282.853 304.562L286.548 303.028C286.317 302.472 286.15 302.043 286.041 301.757C285.987 301.614 285.948 301.507 285.923 301.438C285.91 301.404 285.902 301.379 285.896 301.363C285.893 301.355 285.892 301.35 285.891 301.347C285.89 301.346 285.89 301.345 285.89 301.345C285.89 301.345 285.89 301.345 285.89 301.345C285.89 301.345 285.89 301.346 285.89 301.346C285.89 301.346 285.89 301.346 285.89 301.346C285.89 301.346 285.89 301.346 285.89 301.346C285.89 301.346 285.89 301.347 284 302ZM284.517 308.259C285.032 309.327 285.635 310.521 286.334 311.82L289.856 309.925C289.187 308.681 288.611 307.539 288.12 306.522L284.517 308.259ZM288.303 315.304C288.948 316.394 289.65 317.531 290.41 318.705L293.768 316.532C293.038 315.403 292.364 314.311 291.744 313.265L288.303 315.304ZM292.659 322.034C293.401 323.088 294.188 324.162 295.02 325.252L298.198 322.823C297.398 321.776 296.642 320.743 295.929 319.73L292.659 322.034ZM297.507 328.377C298.338 329.381 299.208 330.391 300.118 331.405L303.095 328.734C302.222 327.761 301.386 326.79 300.588 325.826L297.507 328.377ZM302.848 334.329C303.762 335.269 304.711 336.208 305.696 337.142L308.449 334.24C307.504 333.344 306.593 332.443 305.717 331.541L302.848 334.329ZM308.657 339.838C309.648 340.703 310.672 341.562 311.729 342.41L314.233 339.291C313.22 338.478 312.239 337.655 311.288 336.825L308.657 339.838ZM314.907 344.854C315.969 345.635 317.062 346.405 318.185 347.161L320.418 343.842C319.342 343.118 318.295 342.381 317.278 341.632L314.907 344.854ZM321.548 349.321C322.67 350.009 323.821 350.682 325.001 351.338L326.945 347.843C325.815 347.214 324.713 346.57 323.638 345.911L321.548 349.321ZM328.54 353.21C329.72 353.802 330.926 354.377 332.16 354.933L333.803 351.285C332.621 350.753 331.465 350.202 330.335 349.635L328.54 353.21ZM335.858 356.506C337.076 356.994 338.319 357.464 339.587 357.914L340.923 354.143C339.707 353.712 338.515 353.262 337.347 352.793L335.858 356.506ZM343.378 359.171C344.638 359.562 345.922 359.932 347.229 360.281L348.26 356.416C347.004 356.081 345.771 355.725 344.561 355.35L343.378 359.171ZM351.117 361.238C352.394 361.527 353.692 361.795 355.012 362.042L355.748 358.11C354.477 357.872 353.227 357.614 351.998 357.336L351.117 361.238ZM358.957 362.705C360.258 362.9 361.58 363.074 362.921 363.227L363.374 359.253C362.079 359.105 360.804 358.937 359.549 358.749L358.957 362.705ZM366.872 363.609C368.186 363.714 369.518 363.798 370.869 363.861L371.056 359.866C369.749 359.805 368.46 359.723 367.19 359.622L366.872 363.609ZM374.835 363.984C375.504 363.995 376.178 364 376.856 364V360C376.199 360 375.545 359.995 374.896 359.985L374.835 363.984ZM376.856 364C377.549 364 378.238 363.995 378.922 363.984L378.858 359.984C378.196 359.995 377.528 360 376.856 360V364ZM383.006 363.853C384.386 363.787 385.745 363.698 387.085 363.588L386.757 359.602C385.463 359.708 384.148 359.794 382.813 359.858L383.006 363.853ZM391.157 363.182C392.535 363.019 393.891 362.834 395.225 362.627L394.612 358.674C393.326 358.874 392.019 359.052 390.689 359.209L391.157 363.182ZM399.27 361.92C400.633 361.655 401.971 361.366 403.286 361.056L402.367 357.163C401.104 357.461 399.817 357.739 398.506 357.994L399.27 361.92ZM407.265 360.032C408.602 359.658 409.914 359.261 411.199 358.843L409.962 355.039C408.73 355.44 407.472 355.821 406.188 356.179L407.265 360.032ZM415.081 357.488C416.382 357.002 417.656 356.494 418.901 355.965L417.338 352.283C416.147 352.789 414.928 353.275 413.681 353.741L415.081 357.488ZM422.65 354.275C423.906 353.674 425.132 353.053 426.328 352.414L424.442 348.886C423.299 349.498 422.127 350.092 420.925 350.666L422.65 354.275ZM429.918 350.388C431.114 349.676 432.278 348.946 433.409 348.201L431.209 344.86C430.128 345.572 429.016 346.27 427.873 346.95L429.918 350.388ZM436.795 345.86C437.92 345.043 439.01 344.212 440.066 343.37L437.572 340.242C436.562 341.048 435.52 341.842 434.445 342.623L436.795 345.86ZM443.231 340.726C444.282 339.808 445.294 338.881 446.27 337.948L443.506 335.057C442.572 335.949 441.603 336.837 440.599 337.715L443.231 340.726ZM449.175 335.046C450.145 334.033 451.074 333.019 451.963 332.006L448.956 329.367C448.105 330.337 447.216 331.309 446.287 332.278L449.175 335.046ZM454.604 328.864C455.488 327.765 456.325 326.675 457.119 325.599L453.899 323.226C453.138 324.258 452.335 325.303 451.488 326.356L454.604 328.864ZM459.486 322.242C460.28 321.063 461.02 319.91 461.708 318.791L458.3 316.696C457.64 317.77 456.931 318.876 456.169 320.006L459.486 322.242Z" fill="black"/>
</svg>
