<svg fill="none" height="441" viewBox="0 0 1012 441" width="1012" xmlns="http://www.w3.org/2000/svg"><path d="m0 0h1012v441h-1012z" fill="#fff"/><path d="m0 188h1012v253h-1012z" fill="#815cff" fill-opacity=".05"/><circle cx="306" cy="73" fill="#fff" r="58" stroke="#00a2ff" stroke-width="4"/><path d="m285.129 75.084v7.416h3.192v-16.584h-3.192v6.648h-5.904v-6.648h-3.168v16.584h3.168v-7.416zm12.141-5.64c-3.768 0-6 2.712-6 6.696 0 4.176 2.232 6.72 5.976 6.72s5.976-2.712 5.976-6.72c0-4.152-2.208-6.696-5.952-6.696zm0 2.328c1.776 0 2.712 1.344 2.712 4.368s-.936 4.392-2.736 4.392-2.736-1.344-2.736-4.392c0-3 .96-4.368 2.76-4.368zm22.296-2.328c-1.68 0-2.856.816-3.816 2.136-.48-1.344-1.584-2.136-3.072-2.136-1.608 0-2.76.744-3.672 2.016l-.24-1.656h-2.664v12.696h3.072v-8.832c.696-1.176 1.344-1.92 2.424-1.92.744 0 1.392.456 1.392 2.04v8.712h3.072v-8.832c.696-1.176 1.344-1.92 2.4-1.92.768 0 1.392.456 1.392 2.04v8.712h3.072v-9.192c0-2.4-1.344-3.864-3.36-3.864zm17.343 6.408c0-4.008-2.04-6.408-5.592-6.408-3.6 0-5.64 2.928-5.64 6.792 0 4.008 2.112 6.624 6.048 6.624 1.92 0 3.456-.696 4.704-1.704l-1.272-1.752c-1.104.768-2.04 1.128-3.168 1.128-1.68 0-2.904-.84-3.12-3.432h7.968c.024-.336.072-.84.072-1.248zm-3.048-.744h-4.992c.168-2.52 1.08-3.48 2.52-3.48 1.728 0 2.472 1.248 2.472 3.336z" fill="#00a2ff"/><circle cx="506" cy="73" fill="#fff" r="59" stroke="#000" stroke-width="2"/><path d="m490.981 82.5v-16.584h-2.88v7.776c0 2.352.288 4.752.432 5.664l-5.784-13.44h-4.008v16.584h2.88v-6.768c0-3.072-.264-5.184-.432-6.648l5.688 13.416zm14.205-6.648c0-4.008-2.04-6.408-5.592-6.408-3.6 0-5.64 2.928-5.64 6.792 0 4.008 2.112 6.624 6.048 6.624 1.92 0 3.456-.696 4.704-1.704l-1.272-1.752c-1.104.768-2.04 1.128-3.168 1.128-1.68 0-2.904-.84-3.12-3.432h7.968c.024-.336.072-.84.072-1.248zm-3.048-.744h-4.992c.168-2.52 1.08-3.48 2.52-3.48 1.728 0 2.472 1.248 2.472 3.336zm18.618 7.392 2.76-12.696h-2.952l-1.896 10.44-2.016-10.44h-3.144l-2.208 10.44-1.776-10.44h-3.072l2.808 12.696h3.768l1.968-9.96 1.92 9.96zm8.889-13.056c-2.952 0-4.896 1.584-4.896 3.696 0 1.872 1.152 3.12 3.768 3.84 2.376.672 2.88 1.008 2.88 2.112 0 .888-.888 1.488-2.28 1.488-1.272 0-2.448-.504-3.408-1.272l-1.56 1.752c1.176 1.056 2.88 1.8 5.064 1.8 2.904 0 5.352-1.392 5.352-4.032 0-2.256-1.464-3.312-4.056-4.008-2.16-.6-2.664-.984-2.664-1.824 0-.768.696-1.272 1.992-1.272 1.056 0 2.064.36 3.12 1.08l1.2-1.848c-1.2-.936-2.688-1.512-4.512-1.512z" fill="#000"/><circle cx="706" cy="73" fill="#fff" r="59" stroke="#000" stroke-width="2"/><path d="m676.992 65.916h-4.896v16.584h3.168v-5.784h1.944c3.744 0 6.504-1.704 6.504-5.52 0-3.576-2.544-5.28-6.72-5.28zm-.024 8.424h-1.704v-6.096h1.704c2.16 0 3.432.864 3.432 2.952 0 2.424-1.32 3.144-3.432 3.144zm15.476-4.872c-1.488 0-2.712 1.008-3.312 2.832l-.288-2.496h-2.664v12.696h3.072v-6.768c.48-2.136 1.272-3.264 2.808-3.264.432 0 .744.048 1.128.144l.528-2.976c-.408-.12-.816-.168-1.272-.168zm8.131-.024c-3.768 0-6 2.712-6 6.696 0 4.176 2.232 6.72 5.976 6.72s5.976-2.712 5.976-6.72c0-4.152-2.208-6.696-5.952-6.696zm0 2.328c1.776 0 2.712 1.344 2.712 4.368s-.936 4.392-2.736 4.392-2.736-1.344-2.736-4.392c0-3 .96-4.368 2.76-4.368zm14.088-7.392c-3.456 0-4.896 1.752-4.896 4.08v1.344h-1.968v2.208h1.968v10.488h3.072v-10.488h4.008v10.488h3.072v-12.696h-7.08v-1.296c0-1.2.456-1.776 2.112-1.776.984 0 1.896.24 2.664.6l.936-2.04c-1.032-.504-2.28-.912-3.888-.912zm11.899 15.024v-15.024l-3.072.336v14.904c0 2.112 1.08 3.24 2.976 3.24.792 0 1.56-.168 2.184-.432l-.648-2.16c-.216.072-.48.12-.72.12-.504 0-.72-.288-.72-.984zm14.307-3.552c0-4.008-2.04-6.408-5.592-6.408-3.6 0-5.64 2.928-5.64 6.792 0 4.008 2.112 6.624 6.048 6.624 1.92 0 3.456-.696 4.704-1.704l-1.272-1.752c-1.104.768-2.04 1.128-3.168 1.128-1.68 0-2.904-.84-3.12-3.432h7.968c.024-.336.072-.84.072-1.248zm-3.048-.744h-4.992c.168-2.52 1.08-3.48 2.52-3.48 1.728 0 2.472 1.248 2.472 3.336z" fill="#000"/><circle cx="306" cy="305" fill="#fff" r="59" stroke="#000" stroke-width="2"/><path d="m285.129 307.084v7.416h3.192v-16.584h-3.192v6.648h-5.904v-6.648h-3.168v16.584h3.168v-7.416zm12.141-5.64c-3.768 0-6 2.712-6 6.696 0 4.176 2.232 6.72 5.976 6.72s5.976-2.712 5.976-6.72c0-4.152-2.208-6.696-5.952-6.696zm0 2.328c1.776 0 2.712 1.344 2.712 4.368s-.936 4.392-2.736 4.392-2.736-1.344-2.736-4.392c0-3 .96-4.368 2.76-4.368zm22.296-2.328c-1.68 0-2.856.816-3.816 2.136-.48-1.344-1.584-2.136-3.072-2.136-1.608 0-2.76.744-3.672 2.016l-.24-1.656h-2.664v12.696h3.072v-8.832c.696-1.176 1.344-1.92 2.424-1.92.744 0 1.392.456 1.392 2.04v8.712h3.072v-8.832c.696-1.176 1.344-1.92 2.4-1.92.768 0 1.392.456 1.392 2.04v8.712h3.072v-9.192c0-2.4-1.344-3.864-3.36-3.864zm17.343 6.408c0-4.008-2.04-6.408-5.592-6.408-3.6 0-5.64 2.928-5.64 6.792 0 4.008 2.112 6.624 6.048 6.624 1.92 0 3.456-.696 4.704-1.704l-1.272-1.752c-1.104.768-2.04 1.128-3.168 1.128-1.68 0-2.904-.84-3.12-3.432h7.968c.024-.336.072-.84.072-1.248zm-3.048-.744h-4.992c.168-2.52 1.08-3.48 2.52-3.48 1.728 0 2.472 1.248 2.472 3.336z" fill="#000"/><circle cx="506" cy="305" fill="#fff" r="59" stroke="#000" stroke-width="2"/><path d="m490.981 314.5v-16.584h-2.88v7.776c0 2.352.288 4.752.432 5.664l-5.784-13.44h-4.008v16.584h2.88v-6.768c0-3.072-.264-5.184-.432-6.648l5.688 13.416zm14.205-6.648c0-4.008-2.04-6.408-5.592-6.408-3.6 0-5.64 2.928-5.64 6.792 0 4.008 2.112 6.624 6.048 6.624 1.92 0 3.456-.696 4.704-1.704l-1.272-1.752c-1.104.768-2.04 1.128-3.168 1.128-1.68 0-2.904-.84-3.12-3.432h7.968c.024-.336.072-.84.072-1.248zm-3.048-.744h-4.992c.168-2.52 1.08-3.48 2.52-3.48 1.728 0 2.472 1.248 2.472 3.336zm18.618 7.392 2.76-12.696h-2.952l-1.896 10.44-2.016-10.44h-3.144l-2.208 10.44-1.776-10.44h-3.072l2.808 12.696h3.768l1.968-9.96 1.92 9.96zm8.889-13.056c-2.952 0-4.896 1.584-4.896 3.696 0 1.872 1.152 3.12 3.768 3.84 2.376.672 2.88 1.008 2.88 2.112 0 .888-.888 1.488-2.28 1.488-1.272 0-2.448-.504-3.408-1.272l-1.56 1.752c1.176 1.056 2.88 1.8 5.064 1.8 2.904 0 5.352-1.392 5.352-4.032 0-2.256-1.464-3.312-4.056-4.008-2.16-.6-2.664-.984-2.664-1.824 0-.768.696-1.272 1.992-1.272 1.056 0 2.064.36 3.12 1.08l1.2-1.848c-1.2-.936-2.688-1.512-4.512-1.512z" fill="#000"/><circle cx="706" cy="305" fill="#fff" r="59" stroke="#000" stroke-width="2"/><path d="m676.992 297.916h-4.896v16.584h3.168v-5.784h1.944c3.744 0 6.504-1.704 6.504-5.52 0-3.576-2.544-5.28-6.72-5.28zm-.024 8.424h-1.704v-6.096h1.704c2.16 0 3.432.864 3.432 2.952 0 2.424-1.32 3.144-3.432 3.144zm15.476-4.872c-1.488 0-2.712 1.008-3.312 2.832l-.288-2.496h-2.664v12.696h3.072v-6.768c.48-2.136 1.272-3.264 2.808-3.264.432 0 .744.048 1.128.144l.528-2.976c-.408-.12-.816-.168-1.272-.168zm8.131-.024c-3.768 0-6 2.712-6 6.696 0 4.176 2.232 6.72 5.976 6.72s5.976-2.712 5.976-6.72c0-4.152-2.208-6.696-5.952-6.696zm0 2.328c1.776 0 2.712 1.344 2.712 4.368s-.936 4.392-2.736 4.392-2.736-1.344-2.736-4.392c0-3 .96-4.368 2.76-4.368zm14.088-7.392c-3.456 0-4.896 1.752-4.896 4.08v1.344h-1.968v2.208h1.968v10.488h3.072v-10.488h4.008v10.488h3.072v-12.696h-7.08v-1.296c0-1.2.456-1.776 2.112-1.776.984 0 1.896.24 2.664.6l.936-2.04c-1.032-.504-2.28-.912-3.888-.912zm11.899 15.024v-15.024l-3.072.336v14.904c0 2.112 1.08 3.24 2.976 3.24.792 0 1.56-.168 2.184-.432l-.648-2.16c-.216.072-.48.12-.72.12-.504 0-.72-.288-.72-.984zm14.307-3.552c0-4.008-2.04-6.408-5.592-6.408-3.6 0-5.64 2.928-5.64 6.792 0 4.008 2.112 6.624 6.048 6.624 1.92 0 3.456-.696 4.704-1.704l-1.272-1.752c-1.104.768-2.04 1.128-3.168 1.128-1.68 0-2.904-.84-3.12-3.432h7.968c.024-.336.072-.84.072-1.248zm-3.048-.744h-4.992c.168-2.52 1.08-3.48 2.52-3.48 1.728 0 2.472 1.248 2.472 3.336z" fill="#000"/><path d="m63.024 298.416h-4.08v16.584h4.512c3.96 0 8.064-1.656 8.064-8.376 0-6.864-4.128-8.208-8.496-8.208zm-.912 2.376h1.464c2.448 0 4.608.84 4.608 5.832 0 4.896-2.04 6-4.512 6h-1.56zm21.4481 10.848v-5.328c0-2.808-1.488-4.368-4.872-4.368-1.44 0-3.048.312-4.608.912l.72 2.088c1.272-.432 2.496-.672 3.36-.672 1.632 0 2.376.552 2.376 2.208v.72h-1.584c-3.696 0-5.784 1.488-5.784 4.248 0 2.304 1.56 3.912 4.104 3.912 1.512 0 2.904-.552 3.792-1.896.504 1.224 1.416 1.728 2.808 1.848l.648-2.04c-.624-.24-.96-.6-.96-1.632zm-5.472 1.488c-1.176 0-1.8-.696-1.8-1.92 0-1.488.984-2.208 2.976-2.208h1.272v2.568c-.576 1.008-1.368 1.56-2.448 1.56zm15.4536-11.16c-1.488 0-2.712 1.008-3.312 2.832l-.288-2.496h-2.664v12.696h3.072v-6.768c.48-2.136 1.272-3.264 2.808-3.264.432 0 .744.048 1.128.144l.528-2.976c-.408-.12-.816-.168-1.272-.168zm6.2533 13.032v-18.12l-3.072.336v17.784zm3.384-7.104 4.224-5.592h-3.24l-4.248 5.76 4.368 6.936h3.528zm28.18 7.104-1.296-16.584h-4.128l-2.784 11.616-2.952-11.616h-4.08l-1.32 16.584h3.072l.408-6.84c.144-2.376.192-4.656.096-6.888l3.216 11.928h3l3.024-11.904c-.048 1.752.072 4.32.216 6.768l.432 6.936zm8.306-13.056c-3.768 0-6 2.712-6 6.696 0 4.176 2.232 6.72 5.976 6.72s5.976-2.712 5.976-6.72c0-4.152-2.208-6.696-5.952-6.696zm0 2.328c1.776 0 2.712 1.344 2.712 4.368s-.936 4.392-2.736 4.392-2.736-1.344-2.736-4.392c0-3 .96-4.368 2.76-4.368zm19.511-7.056-3.072-.336v6.432c-.792-.792-1.848-1.368-3.144-1.368-3.216 0-5.16 2.808-5.16 6.72 0 4.032 1.656 6.696 4.824 6.696 1.632 0 2.856-.816 3.624-1.968l.216 1.608h2.712zm-5.688 15.816c-1.512 0-2.448-1.128-2.448-4.392 0-3.048 1.056-4.392 2.664-4.392 1.032 0 1.728.528 2.4 1.344v5.808c-.72 1.08-1.488 1.632-2.616 1.632zm19.557-4.68c0-4.008-2.04-6.408-5.592-6.408-3.6 0-5.64 2.928-5.64 6.792 0 4.008 2.112 6.624 6.048 6.624 1.92 0 3.456-.696 4.704-1.704l-1.272-1.752c-1.104.768-2.04 1.128-3.168 1.128-1.68 0-2.904-.84-3.12-3.432h7.968c.024-.336.072-.84.072-1.248zm-3.048-.744h-4.992c.168-2.52 1.08-3.48 2.52-3.48 1.728 0 2.472 1.248 2.472 3.336z" fill="#7b61ff"/></svg>