<svg fill="none" height="451" viewBox="0 0 1012 451" width="1012" xmlns="http://www.w3.org/2000/svg"><path d="m0 0h1012v451h-1012z" fill="#fff"/><g fill="#000"><path d="m463 314.5-19.693 12.064 20.294 11.022zm-179-10.5c-1.89.653-1.89.654-1.89.654v.002c.001 0 .001.001.002.003 0 .002.001.005.003.009.002.007.006.016.01.029.008.024.021.058.036.102.032.087.078.213.139.374.123.324.306.792.553 1.389l3.695-1.534c-.231-.556-.398-.985-.507-1.271-.054-.143-.093-.25-.118-.319-.013-.034-.021-.059-.027-.075-.003-.008-.004-.013-.005-.016-.001-.001-.001-.002-.001-.002v.001s0 .001-1.89.654zm.517 6.259c.515 1.068 1.118 2.262 1.817 3.561l3.522-1.895c-.669-1.244-1.245-2.386-1.736-3.403zm3.786 7.045c.645 1.09 1.347 2.227 2.107 3.401l3.358-2.173c-.73-1.129-1.404-2.221-2.024-3.267zm4.356 6.73c.742 1.054 1.529 2.128 2.361 3.218l3.178-2.429c-.8-1.047-1.556-2.08-2.269-3.093zm4.848 6.343c.831 1.004 1.701 2.014 2.611 3.028l2.977-2.671c-.873-.973-1.709-1.944-2.507-2.908zm5.341 5.952c.914.94 1.863 1.879 2.848 2.813l2.753-2.902c-.945-.896-1.856-1.797-2.732-2.699zm5.809 5.509c.991.865 2.015 1.724 3.072 2.572l2.504-3.119c-1.013-.813-1.994-1.636-2.945-2.466zm6.25 5.016c1.062.781 2.155 1.551 3.278 2.307l2.233-3.319c-1.076-.724-2.123-1.461-3.14-2.21zm6.641 4.467c1.122.688 2.273 1.361 3.453 2.017l1.944-3.495c-1.13-.629-2.232-1.273-3.307-1.932zm6.992 3.889c1.18.592 2.386 1.167 3.62 1.723l1.643-3.648c-1.182-.532-2.338-1.083-3.468-1.65zm7.318 3.296c1.218.488 2.461.958 3.729 1.408l1.336-3.771c-1.216-.431-2.408-.881-3.576-1.35zm7.52 2.665c1.26.391 2.544.761 3.851 1.11l1.031-3.865c-1.256-.335-2.489-.691-3.699-1.066zm7.739 2.067c1.277.289 2.575.557 3.895.804l.736-3.932c-1.271-.238-2.521-.496-3.75-.774zm7.84 1.467c1.301.195 2.623.369 3.964.522l.453-3.974c-1.295-.148-2.57-.316-3.825-.504zm7.915.904c1.314.105 2.646.189 3.997.252l.187-3.995c-1.307-.061-2.596-.143-3.866-.244zm7.963.375c.669.011 1.343.016 2.021.016v-4c-.657 0-1.311-.005-1.96-.015zm2.021.016c.693 0 1.382-.005 2.066-.016l-.064-4c-.662.011-1.33.016-2.002.016zm6.15-.147c1.38-.066 2.739-.155 4.079-.265l-.328-3.986c-1.294.106-2.609.192-3.944.256zm8.151-.671c1.378-.163 2.734-.348 4.068-.555l-.613-3.953c-1.286.2-2.593.378-3.923.535zm8.113-1.262c1.363-.265 2.701-.554 4.016-.864l-.919-3.893c-1.263.298-2.55.576-3.861.831zm7.995-1.888c1.337-.374 2.649-.771 3.934-1.189l-1.237-3.804c-1.232.401-2.49.782-3.774 1.14zm7.816-2.544c1.301-.486 2.575-.994 3.82-1.523l-1.563-3.682c-1.191.506-2.41.992-3.657 1.458zm7.569-3.213c1.256-.601 2.482-1.222 3.678-1.861l-1.886-3.528c-1.143.612-2.315 1.206-3.517 1.78zm7.268-3.887c1.196-.712 2.36-1.442 3.491-2.187l-2.2-3.341c-1.081.712-2.193 1.41-3.336 2.09zm6.877-4.528c1.125-.817 2.215-1.648 3.271-2.49l-2.494-3.128c-1.01.806-2.052 1.6-3.127 2.381zm6.436-5.134c1.051-.918 2.063-1.845 3.039-2.778l-2.764-2.891c-.934.892-1.903 1.78-2.907 2.658zm5.944-5.68c.97-1.013 1.899-2.027 2.788-3.04l-3.007-2.639c-.851.97-1.74 1.942-2.669 2.911zm5.429-6.182c.884-1.099 1.721-2.189 2.515-3.265l-3.22-2.373c-.761 1.032-1.564 2.077-2.411 3.13zm4.882-6.622c.794-1.179 1.534-2.332 2.222-3.451l-3.408-2.095c-.66 1.074-1.369 2.18-2.131 3.31z"/><path d="m706 314.5-19.693 12.064 20.294 11.022zm-179-10.5c-1.89.653-1.89.654-1.89.654v.002c.001 0 .001.001.002.003 0 .002.001.005.003.009.002.007.006.016.01.029.008.024.021.058.036.102.032.087.078.213.139.374.123.324.306.792.553 1.389l3.695-1.534c-.231-.556-.398-.985-.507-1.271-.054-.143-.093-.25-.118-.319-.013-.034-.021-.059-.027-.075-.003-.008-.004-.013-.005-.016-.001-.001-.001-.002-.001-.002v.001s0 .001-1.89.654zm.517 6.259c.515 1.068 1.118 2.262 1.817 3.561l3.522-1.895c-.669-1.244-1.245-2.386-1.736-3.403zm3.786 7.045c.645 1.09 1.347 2.227 2.107 3.401l3.358-2.173c-.73-1.129-1.404-2.221-2.024-3.267zm4.356 6.73c.742 1.054 1.529 2.128 2.361 3.218l3.178-2.429c-.8-1.047-1.556-2.08-2.269-3.093zm4.848 6.343c.831 1.004 1.701 2.014 2.611 3.028l2.977-2.671c-.873-.973-1.709-1.944-2.507-2.908zm5.341 5.952c.914.94 1.863 1.879 2.848 2.813l2.753-2.902c-.945-.896-1.856-1.797-2.732-2.699zm5.809 5.509c.991.865 2.015 1.724 3.072 2.572l2.504-3.119c-1.013-.813-1.994-1.636-2.945-2.466zm6.25 5.016c1.062.781 2.155 1.551 3.278 2.307l2.233-3.319c-1.076-.724-2.123-1.461-3.14-2.21zm6.641 4.467c1.122.688 2.273 1.361 3.453 2.017l1.944-3.495c-1.13-.629-2.232-1.273-3.307-1.932zm6.992 3.889c1.18.592 2.386 1.167 3.62 1.723l1.643-3.648c-1.182-.532-2.338-1.083-3.468-1.65zm7.318 3.296c1.218.488 2.461.958 3.729 1.408l1.336-3.771c-1.216-.431-2.408-.881-3.576-1.35zm7.52 2.665c1.26.391 2.544.761 3.851 1.11l1.031-3.865c-1.256-.335-2.489-.691-3.699-1.066zm7.739 2.067c1.277.289 2.575.557 3.895.804l.736-3.932c-1.271-.238-2.521-.496-3.75-.774zm7.84 1.467c1.301.195 2.623.369 3.964.522l.453-3.974c-1.295-.148-2.57-.316-3.825-.504zm7.915.904c1.314.105 2.646.189 3.997.252l.187-3.995c-1.307-.061-2.596-.143-3.866-.244zm7.963.375c.669.011 1.343.016 2.021.016v-4c-.657 0-1.311-.005-1.96-.015zm2.021.016c.693 0 1.382-.005 2.066-.016l-.064-4c-.662.011-1.33.016-2.002.016zm6.15-.147c1.38-.066 2.739-.155 4.079-.265l-.328-3.986c-1.294.106-2.609.192-3.944.256zm8.151-.671c1.378-.163 2.734-.348 4.068-.555l-.613-3.953c-1.286.2-2.593.378-3.923.535zm8.113-1.262c1.363-.265 2.701-.554 4.016-.864l-.919-3.893c-1.263.298-2.55.576-3.861.831zm7.995-1.888c1.337-.374 2.649-.771 3.934-1.189l-1.237-3.804c-1.232.401-2.49.782-3.774 1.14zm7.816-2.544c1.301-.486 2.575-.994 3.82-1.523l-1.563-3.682c-1.191.506-2.41.992-3.657 1.458zm7.569-3.213c1.256-.601 2.482-1.222 3.678-1.861l-1.886-3.528c-1.143.612-2.315 1.206-3.517 1.78zm7.268-3.887c1.196-.712 2.36-1.442 3.491-2.187l-2.2-3.341c-1.081.712-2.193 1.41-3.336 2.09zm6.877-4.528c1.125-.817 2.215-1.648 3.271-2.49l-2.494-3.128c-1.01.806-2.052 1.6-3.127 2.381zm6.436-5.134c1.051-.918 2.063-1.845 3.039-2.778l-2.764-2.891c-.934.892-1.903 1.78-2.907 2.658zm5.944-5.68c.97-1.013 1.899-2.027 2.788-3.04l-3.007-2.639c-.851.97-1.74 1.942-2.669 2.911zm5.429-6.182c.884-1.099 1.721-2.189 2.515-3.265l-3.22-2.373c-.761 1.032-1.564 2.077-2.411 3.13zm4.882-6.622c.794-1.179 1.534-2.332 2.222-3.451l-3.408-2.095c-.66 1.074-1.369 2.18-2.131 3.31z"/><path d="m742 327.625-20.567 10.503 19.379 12.56zm-488-23.625c-1.845.773-1.845.773-1.845.773h.001v.001c0 .001.001.002.001.003.001.002.002.005.003.008.003.006.007.015.012.026.009.022.023.054.04.095.036.083.088.202.157.358.138.311.344.765.622 1.354l3.618-1.707c-.265-.56-.458-.987-.585-1.272-.063-.142-.109-.248-.139-.317-.015-.035-.026-.06-.032-.076-.004-.008-.006-.013-.007-.016-.001-.002-.001-.003-.002-.003 0-.001 0-.001 0 0h.001s0 0-1.845.773zm.792 6.248c.551 1.064 1.193 2.268 1.93 3.599l3.499-1.938c-.718-1.297-1.343-2.468-1.877-3.5zm3.92 7.09c.633 1.082 1.317 2.222 2.051 3.414l3.406-2.096c-.718-1.168-1.387-2.283-2.006-3.34zm4.18 6.796c.702 1.089 1.441 2.214 2.219 3.37l3.319-2.232c-.763-1.135-1.487-2.237-2.175-3.305zm4.515 6.713c.739 1.054 1.508 2.13 2.306 3.226l3.233-2.355c-.784-1.076-1.538-2.132-2.263-3.167zm4.721 6.477c.787 1.039 1.599 2.094 2.438 3.163l3.146-2.471c-.824-1.05-1.622-2.086-2.395-3.106zm4.948 6.302c.831 1.021 1.686 2.053 2.564 3.094l3.058-2.578c-.863-1.024-1.703-2.038-2.52-3.041zm5.172 6.134c.869.995 1.759 1.998 2.671 3.007l2.968-2.681c-.896-.992-1.771-1.978-2.625-2.956zm5.382 5.958c.901.965 1.822 1.935 2.763 2.908l2.877-2.779c-.925-.958-1.831-1.911-2.717-2.86zm5.582 5.778c.931.931 1.879 1.866 2.846 2.802l2.783-2.873c-.951-.921-1.884-1.84-2.799-2.756zm5.778 5.595c.956.896 1.929 1.794 2.919 2.692l2.687-2.963c-.974-.883-1.931-1.766-2.871-2.647zm5.941 5.388c.988.867 1.992 1.734 3.012 2.601l2.59-3.049c-1.004-.852-1.992-1.705-2.964-2.559zm6.094 5.176c1.029.846 2.073 1.69 3.133 2.534l2.49-3.131c-1.043-.83-2.071-1.661-3.083-2.493zm6.268 4.986c1.061.816 2.136 1.63 3.226 2.442l2.388-3.209c-1.073-.799-2.131-1.6-3.174-2.402zm6.442 4.797c1.075.774 2.165 1.545 3.268 2.314l2.286-3.283c-1.086-.756-2.158-1.516-3.216-2.277zm6.614 4.605c1.089.732 2.19 1.461 3.305 2.187l2.182-3.353c-1.098-.714-2.182-1.432-3.253-2.153zm6.69 4.352c1.131.711 2.275 1.418 3.432 2.121l2.076-3.419c-1.139-.692-2.266-1.388-3.379-2.088zm6.843 4.157c1.15.674 2.312 1.344 3.488 2.009l1.97-3.48c-1.157-.656-2.302-1.315-3.434-1.979zm7.006 3.965c1.155.632 2.323 1.258 3.503 1.879l1.864-3.539c-1.162-.612-2.312-1.229-3.45-1.85zm7.078 3.729c1.19.603 2.391 1.202 3.604 1.796l1.757-3.594c-1.195-.584-2.378-1.174-3.55-1.769zm7.185 3.514c1.205.568 2.421 1.13 3.649 1.686l1.651-3.643c-1.21-.548-2.408-1.102-3.596-1.662zm7.342 3.327c1.204.525 2.419 1.044 3.645 1.557l1.545-3.69c-1.208-.506-2.406-1.017-3.592-1.534zm7.354 3.079c1.247.501 2.505.997 3.774 1.486l1.439-3.732c-1.251-.483-2.492-.971-3.721-1.466zm7.48 2.885c1.242.459 2.493.912 3.755 1.359l1.335-3.771c-1.244-.441-2.479-.887-3.703-1.34zm7.572 2.68c1.257.425 2.524.845 3.8 1.258l1.231-3.806c-1.259-.408-2.509-.821-3.748-1.241zm7.588 2.455c1.272.393 2.554.779 3.846 1.159l1.129-3.837c-1.275-.375-2.54-.757-3.795-1.144zm7.75 2.28c1.26.352 2.529.699 3.807 1.039l1.029-3.866c-1.262-.335-2.515-.677-3.758-1.025zm7.669 2.04c1.296.327 2.602.648 3.916.962l.93-3.891c-1.298-.31-2.587-.627-3.867-.95zm7.836 1.872c1.28.289 2.568.571 3.865.847l.833-3.912c-1.281-.273-2.554-.552-3.818-.837zm7.782 1.656c1.314.263 2.637.519 3.968.769l.737-3.932c-1.315-.247-2.622-.5-3.92-.76zm7.905 1.482c1.294.227 2.595.447 3.905.661l.645-3.947c-1.295-.212-2.581-.43-3.86-.654zm7.859 1.283c1.326.201 2.659.395 4.002.583l.553-3.962c-1.327-.185-2.646-.377-3.956-.576zm7.964 1.113c1.302.167 2.611.328 3.928.482l.465-3.973c-1.302-.152-2.597-.311-3.884-.476zm7.901.926c1.332.141 2.672.276 4.019.404l.379-3.982c-1.333-.127-2.658-.26-3.976-.4zm8.02.762c1.305.11 2.616.214 3.935.312l.295-3.989c-1.305-.097-2.603-.2-3.894-.308zm7.913.585c1.333.085 2.672.163 4.02.235l.213-3.994c-1.334-.071-2.66-.149-3.979-.233zm8.076.431c1.303.056 2.613.107 3.929.151l.134-3.998c-1.304-.044-2.6-.093-3.89-.149zm7.896.264c1.329.032 2.665.058 4.007.077l.057-4c-1.329-.019-2.652-.044-3.968-.075zm8.054.115c.678.003 1.357.005 2.038.005v-4c-.675 0-1.348-.002-2.019-.005zm2.038.005c.68 0 1.358-.002 2.034-.005l-.019-4c-.67.003-1.342.005-2.015.005zm6.07-.043c1.339-.019 2.671-.044 3.996-.076l-.096-3.999c-1.312.031-2.631.056-3.957.075zm7.973-.19c1.356-.045 2.705-.097 4.047-.156l-.174-3.996c-1.329.058-2.664.109-4.007.154zm8.05-.351c1.327-.071 2.648-.148 3.961-.232l-.255-3.992c-1.3.083-2.606.16-3.92.23zm8.003-.512c1.342-.1 2.677-.206 4.004-.319l-.34-3.986c-1.313.112-2.633.218-3.961.316zm7.962-.677c1.348-.129 2.688-.265 4.021-.408l-.426-3.977c-1.318.141-2.643.275-3.977.403zm8.016-.858c1.324-.156 2.639-.32 3.947-.489l-.514-3.967c-1.293.168-2.594.329-3.903.484zm7.951-1.032c1.334-.188 2.66-.384 3.977-.586l-.606-3.954c-1.302.2-2.612.393-3.931.58zm7.904-1.212c1.339-.221 2.669-.449 3.989-.684l-.7-3.938c-1.305.232-2.619.457-3.941.676zm7.939-1.411c1.31-.25 2.612-.506 3.905-.769l-.797-3.92c-1.277.26-2.562.513-3.857.759zm7.871-1.601c1.313-.285 2.617-.576 3.911-.873l-.896-3.898c-1.278.293-2.565.581-3.861.861zm7.806-1.795c1.316-.32 2.622-.647 3.919-.981l-.997-3.874c-1.28.33-2.569.653-3.868.969zm7.78-2.003c1.304-.354 2.598-.715 3.882-1.082l-1.1-3.846c-1.267.363-2.544.719-3.83 1.068zm7.743-2.216c1.28-.385 2.551-.777 3.811-1.176l-1.206-3.814c-1.243.393-2.495.78-3.758 1.16zm7.664-2.424c1.274-.423 2.537-.852 3.79-1.287l-1.313-3.779c-1.235.43-2.481.853-3.737 1.269zm7.583-2.636c1.269-.462 2.526-.929 3.773-1.404l-1.422-3.738c-1.229.467-2.468.928-3.718 1.383zm7.498-2.852c1.261-.501 2.511-1.008 3.749-1.521l-1.532-3.695c-1.22.506-2.451 1.005-3.693 1.499zm7.43-3.079c1.244-.538 2.476-1.082 3.697-1.632l-1.643-3.647c-1.202.541-2.416 1.077-3.642 1.607zm7.343-3.308c1.222-.573 2.431-1.152 3.628-1.736l-1.754-3.595c-1.179.575-2.37 1.145-3.573 1.709zm7.233-3.531c1.2-.609 2.386-1.223 3.561-1.842l-1.867-3.538c-1.155.609-2.324 1.214-3.504 1.813zm7.117-3.755c1.177-.645 2.341-1.295 3.492-1.95l-1.978-3.477c-1.133.645-2.278 1.285-3.437 1.919zm6.992-3.98c1.155-.682 2.296-1.369 3.423-2.06l-2.09-3.41c-1.109.68-2.231 1.355-3.367 2.026zm6.86-4.205c1.132-.719 2.25-1.443 3.354-2.171l-2.201-3.34c-1.086.716-2.186 1.428-3.299 2.135zm6.719-4.429c1.107-.757 2.201-1.517 3.28-2.281l-2.311-3.264c-1.061.75-2.136 1.498-3.226 2.243zm6.568-4.65c1.083-.795 2.152-1.593 3.205-2.393l-2.42-3.185c-1.035.787-2.086 1.571-3.151 2.353zm6.407-4.869c1.059-.834 2.102-1.669 3.129-2.506l-2.526-3.101c-1.01.823-2.035 1.644-3.076 2.463zm6.238-5.084c1.033-.872 2.05-1.745 3.05-2.619l-2.632-3.012c-.983.859-1.982 1.717-2.998 2.574zm6.056-5.292c1.007-.912 1.997-1.823 2.968-2.733l-2.735-2.919c-.955.894-1.927 1.79-2.916 2.685zm5.864-5.494c.98-.951 1.941-1.9 2.883-2.847l-2.835-2.821c-.926.93-1.871 1.863-2.833 2.797zm5.691-5.719c.94-.979 1.86-1.954 2.761-2.926l-2.933-2.719c-.885.954-1.789 1.912-2.713 2.874zm5.482-5.913c.903-1.011 1.786-2.016 2.648-3.015l-3.029-2.613c-.846.981-1.713 1.968-2.601 2.961zm5.25-6.088c.875-1.052 1.727-2.097 2.556-3.132l-3.122-2.5c-.814 1.016-1.65 2.041-2.51 3.075zm5.042-6.295c.831-1.078 1.637-2.144 2.417-3.196l-3.212-2.383c-.766 1.033-1.557 2.078-2.373 3.136zm4.793-6.463c.801-1.124 1.572-2.229 2.314-3.315l-3.301-2.257c-.728 1.064-1.485 2.148-2.27 3.25z"/><path d="m549 137.5 19.693-12.064-20.294-11.022zm179 10.5c1.89-.653 1.89-.654 1.89-.654 0-.001 0-.001 0-.002-.001 0-.001-.001-.002-.003 0-.002-.001-.005-.003-.009-.002-.007-.006-.016-.01-.029-.008-.024-.021-.058-.036-.102-.032-.087-.078-.213-.139-.374-.123-.324-.306-.792-.553-1.389l-3.695 1.534c.231.556.398.985.507 1.271.054.143.093.25.118.319.013.034.021.059.027.075.003.008.004.013.005.016.001.001.001.002.001.002v-.001s0-.001 1.89-.654zm-.517-6.259c-.515-1.068-1.118-2.262-1.817-3.561l-3.522 1.895c.669 1.244 1.245 2.386 1.736 3.403zm-3.786-7.045c-.645-1.09-1.347-2.227-2.107-3.401l-3.358 2.173c.73 1.129 1.404 2.221 2.024 3.267zm-4.356-6.73c-.742-1.054-1.529-2.128-2.361-3.218l-3.178 2.429c.8 1.047 1.556 2.08 2.269 3.093zm-4.848-6.343c-.831-1.004-1.701-2.014-2.611-3.028l-2.977 2.671c.873.973 1.709 1.944 2.507 2.908zm-5.341-5.952c-.914-.94-1.863-1.879-2.848-2.813l-2.753 2.902c.945.896 1.856 1.797 2.732 2.699zm-5.809-5.509c-.991-.865-2.015-1.724-3.072-2.572l-2.504 3.119c1.013.813 1.994 1.636 2.945 2.466zm-6.25-5.016c-1.062-.781-2.155-1.551-3.278-2.307l-2.233 3.319c1.076.724 2.123 1.461 3.14 2.21zm-6.641-4.467c-1.122-.6881-2.273-1.3613-3.453-2.0174l-1.944 3.4954c1.13.629 2.232 1.273 3.307 1.932zm-6.992-3.8887c-1.18-.5923-2.386-1.1672-3.62-1.7229l-1.643 3.6471c1.182.5325 2.338 1.0833 3.468 1.6505zm-7.318-3.2961c-1.218-.4886-2.461-.9584-3.729-1.4078l-1.336 3.7703c1.216.4311 2.408.8816 3.576 1.35zm-7.52-2.6656c-1.26-.3904-2.544-.7606-3.851-1.1094l-1.031 3.8648c1.256.3352 2.489.6908 3.699 1.0655zm-7.739-2.0666c-1.277-.2886-2.575-.557-3.895-.8039l-.736 3.9318c1.271.2378 2.521.4961 3.75.7737zm-7.84-1.4673c-1.301-.1948-2.623-.3691-3.964-.5218l-.453 3.9744c1.295.1474 2.57.3155 3.825.5033zm-7.915-.9036c-1.314-.1048-2.646-.1893-3.997-.2525l-.187 3.9956c1.307.0612 2.596.1429 3.866.2442zm-7.963-.3755c-.669-.0104-1.343-.0156-2.021-.0156v4c.657 0 1.311.0051 1.96.0151zm-2.021-.0156c-.693 0-1.382.0055-2.066.0163l.064 3.9995c.662-.0105 1.33-.0158 2.002-.0158zm-6.15.1466c-1.38.0665-2.739.1553-4.079.2653l.328 3.9866c1.294-.1064 2.609-.1922 3.944-.2566zm-8.151.6718c-1.378.1623-2.734.3476-4.068.5548l.613 3.9526c1.286-.1996 2.593-.3783 3.923-.5349zm-8.113 1.2616c-1.363.2652-2.701.5535-4.016.8637l.919 3.8931c1.263-.2981 2.55-.5753 3.861-.8304zm-7.995 1.8883c-1.337.3738-2.649.7705-3.934 1.1887l1.237 3.8038c1.232-.4008 2.49-.7814 3.774-1.1401zm-7.816 2.5438c-1.301.4861-2.575.9943-3.82 1.5227l1.563 3.6822c1.191-.5057 2.41-.9922 3.657-1.4577zm-7.569 3.213c-1.256.6006-2.482 1.2217-3.678 1.8612l1.886 3.5277c1.143-.612 2.315-1.2056 3.517-1.78zm-7.268 3.8872c-1.196.7117-2.36 1.4417-3.491 2.1867l2.2 3.341c1.081-.712 2.193-1.41 3.336-2.09zm-6.877 4.5277c-1.125.817-2.215 1.648-3.271 2.49l2.494 3.128c1.01-.806 2.052-1.6 3.127-2.381zm-6.436 5.134c-1.051.918-2.063 1.845-3.039 2.778l2.764 2.891c.934-.892 1.903-1.78 2.907-2.658zm-5.944 5.68c-.97 1.013-1.899 2.027-2.788 3.04l3.007 2.639c.851-.97 1.74-1.942 2.669-2.911zm-5.429 6.182c-.884 1.099-1.721 2.189-2.515 3.265l3.22 2.373c.761-1.032 1.564-2.077 2.411-3.13zm-4.882 6.622c-.794 1.179-1.534 2.332-2.222 3.451l3.408 2.095c.66-1.074 1.369-2.18 2.131-3.31z"/><path d="m306 137.5 19.693-12.064-20.294-11.022zm179 10.5c1.89-.653 1.89-.654 1.89-.654 0-.001 0-.001 0-.002-.001 0-.001-.001-.002-.003 0-.002-.001-.005-.003-.009-.002-.007-.006-.016-.01-.029-.008-.024-.021-.058-.036-.102-.032-.087-.078-.213-.139-.374-.123-.324-.306-.792-.553-1.389l-3.695 1.534c.231.556.398.985.507 1.271.054.143.093.25.118.319.013.034.021.059.027.075.003.008.004.013.005.016.001.001.001.002.001.002v-.001s0-.001 1.89-.654zm-.517-6.259c-.515-1.068-1.118-2.262-1.817-3.561l-3.522 1.895c.669 1.244 1.245 2.386 1.736 3.403zm-3.786-7.045c-.645-1.09-1.347-2.227-2.107-3.401l-3.358 2.173c.73 1.129 1.404 2.221 2.024 3.267zm-4.356-6.73c-.742-1.054-1.529-2.128-2.361-3.218l-3.178 2.429c.8 1.047 1.556 2.08 2.269 3.093zm-4.848-6.343c-.831-1.004-1.701-2.014-2.611-3.028l-2.977 2.671c.873.973 1.709 1.944 2.507 2.908zm-5.341-5.952c-.914-.94-1.863-1.879-2.848-2.813l-2.753 2.902c.945.896 1.856 1.797 2.732 2.699zm-5.809-5.509c-.991-.865-2.015-1.724-3.072-2.572l-2.504 3.119c1.013.813 1.994 1.636 2.945 2.466zm-6.25-5.016c-1.062-.781-2.155-1.551-3.278-2.307l-2.233 3.319c1.076.724 2.123 1.461 3.14 2.21zm-6.641-4.467c-1.122-.6881-2.273-1.3613-3.453-2.0174l-1.944 3.4954c1.13.629 2.232 1.273 3.307 1.932zm-6.992-3.8887c-1.18-.5923-2.386-1.1672-3.62-1.7229l-1.643 3.6471c1.182.5325 2.338 1.0833 3.468 1.6505zm-7.318-3.2961c-1.218-.4886-2.461-.9584-3.729-1.4078l-1.336 3.7703c1.216.4311 2.408.8816 3.576 1.35zm-7.52-2.6656c-1.26-.3904-2.544-.7606-3.851-1.1094l-1.031 3.8648c1.256.3352 2.489.6908 3.699 1.0655zm-7.739-2.0666c-1.277-.2886-2.575-.557-3.895-.8039l-.736 3.9318c1.271.2378 2.521.4961 3.75.7737zm-7.84-1.4673c-1.301-.1948-2.623-.3691-3.964-.5218l-.453 3.9744c1.295.1474 2.57.3155 3.825.5033zm-7.915-.9036c-1.314-.1048-2.646-.1893-3.997-.2525l-.187 3.9956c1.307.0612 2.596.1429 3.866.2442zm-7.963-.3755c-.669-.0104-1.343-.0156-2.021-.0156v4c.657 0 1.311.0051 1.96.0151zm-2.021-.0156c-.693 0-1.382.0055-2.066.0163l.064 3.9995c.662-.0105 1.33-.0158 2.002-.0158zm-6.15.1466c-1.38.0665-2.739.1553-4.079.2653l.328 3.9866c1.294-.1064 2.609-.1922 3.944-.2566zm-8.151.6718c-1.378.1623-2.734.3476-4.068.5548l.613 3.9526c1.286-.1996 2.593-.3783 3.923-.5349zm-8.113 1.2616c-1.363.2652-2.701.5535-4.016.8637l.919 3.8931c1.263-.2981 2.55-.5753 3.861-.8304zm-7.995 1.8883c-1.337.3738-2.649.7705-3.934 1.1887l1.237 3.8038c1.232-.4008 2.49-.7814 3.774-1.1401zm-7.816 2.5438c-1.301.4861-2.575.9943-3.82 1.5227l1.563 3.6822c1.191-.5057 2.41-.9922 3.657-1.4577zm-7.569 3.213c-1.256.6006-2.482 1.2217-3.678 1.8612l1.886 3.5277c1.143-.612 2.315-1.2056 3.517-1.78zm-7.268 3.8872c-1.196.7117-2.36 1.4417-3.491 2.1867l2.2 3.341c1.081-.712 2.193-1.41 3.336-2.09zm-6.877 4.5277c-1.125.817-2.215 1.648-3.271 2.49l2.494 3.128c1.01-.806 2.052-1.6 3.127-2.381zm-6.436 5.134c-1.051.918-2.063 1.845-3.039 2.778l2.764 2.891c.934-.892 1.903-1.78 2.907-2.658zm-5.944 5.68c-.97 1.013-1.899 2.027-2.788 3.04l3.007 2.639c.851-.97 1.74-1.942 2.669-2.911zm-5.429 6.182c-.884 1.099-1.721 2.189-2.515 3.265l3.22 2.373c.761-1.032 1.564-2.077 2.411-3.13zm-4.882 6.622c-.794 1.179-1.534 2.332-2.222 3.451l3.408 2.095c.66-1.074 1.369-2.18 2.131-3.31z"/><path d="m270 124.375 20.567-10.503-19.379-12.56zm488 23.625c1.845-.773 1.845-.773 1.845-.773h-.001c0-.001 0-.001 0-.001 0-.001-.001-.002-.001-.003-.001-.002-.002-.005-.003-.008-.003-.006-.007-.015-.012-.026-.009-.022-.023-.054-.04-.095-.036-.083-.088-.202-.157-.358-.138-.311-.344-.765-.622-1.354l-3.618 1.707c.265.56.458.987.585 1.272.063.142.109.248.139.317.015.035.026.06.032.076.004.008.006.013.007.016.001.002.001.003.002.003 0 .001 0 .001 0 0-.001 0-.001 0-.001 0s0 0 1.845-.773zm-.792-6.248c-.551-1.064-1.193-2.268-1.93-3.599l-3.499 1.938c.718 1.297 1.343 2.468 1.877 3.5zm-3.92-7.09c-.633-1.082-1.317-2.222-2.051-3.414l-3.406 2.096c.718 1.168 1.387 2.283 2.006 3.34zm-4.18-6.796c-.702-1.089-1.441-2.214-2.219-3.37l-3.319 2.232c.763 1.135 1.487 2.237 2.175 3.305zm-4.515-6.713c-.739-1.054-1.508-2.13-2.306-3.226l-3.233 2.355c.784 1.076 1.538 2.132 2.263 3.167zm-4.721-6.477c-.787-1.039-1.599-2.094-2.438-3.163l-3.146 2.471c.824 1.05 1.622 2.086 2.395 3.106zm-4.948-6.302c-.831-1.021-1.686-2.053-2.564-3.094l-3.058 2.578c.863 1.024 1.703 2.038 2.52 3.041zm-5.172-6.134c-.869-.995-1.759-1.998-2.671-3.0071l-2.968 2.6811c.896.992 1.771 1.978 2.625 2.956zm-5.382-5.9582c-.901-.9647-1.822-1.9344-2.763-2.9082l-2.877 2.7793c.925.9576 1.831 1.9111 2.717 2.8598zm-5.582-5.7779c-.931-.9314-1.879-1.8657-2.846-2.8022l-2.783 2.873c.951.9211 1.884 1.8401 2.799 2.7561zm-5.778-5.5953c-.956-.896-1.929-1.7935-2.919-2.6916l-2.687 2.9627c.974.8835 1.931 1.7663 2.871 2.6477zm-5.941-5.3876c-.988-.8671-1.992-1.7343-3.012-2.601l-2.59 3.0486c1.004.8527 1.992 1.7059 2.964 2.5589zm-6.094-5.176c-1.029-.8457-2.073-1.6904-3.133-2.5336l-2.49 3.1307c1.043.8297 2.071 1.6609 3.083 2.493zm-6.268-4.9864c-1.061-.8159-2.136-1.6299-3.226-2.4415l-2.388 3.2087c1.073.7988 2.131 1.5998 3.174 2.4027zm-6.442-4.7962c-1.075-.7741-2.165-1.5457-3.268-2.3141l-2.286 3.2825c1.086.7563 2.158 1.5157 3.216 2.2776zm-6.614-4.605c-1.089-.7324-2.19-1.4615-3.305-2.1871l-2.182 3.3526c1.098.7143 2.182 1.432 3.253 2.1529zm-6.69-4.3525c-1.131-.711-2.275-1.4181-3.432-2.1209l-2.076 3.419c1.139.692 2.266 1.3882 3.379 2.0881zm-6.843-4.1567c-1.15-.6744-2.312-1.3444-3.488-2.0097l-1.97 3.481c1.157.6552 2.302 1.3149 3.434 1.979zm-7.006-3.9656c-1.155-.6311-2.323-1.2575-3.503-1.879l-1.864 3.539c1.162.6121 2.312 1.2291 3.45 1.8506zm-7.078-3.7282c-1.19-.6039-2.391-1.2026-3.604-1.796l-1.757 3.5934c1.195.5845 2.378 1.1744 3.55 1.7693zm-7.185-3.5146c-1.205-.5675-2.421-1.1296-3.649-1.686l-1.651 3.6433c1.21.5484 2.408 1.1023 3.596 1.6615zm-7.342-3.3269c-1.204-.5245-2.419-1.0434-3.645-1.5566l-1.545 3.6896c1.208.5058 2.406 1.0173 3.592 1.5342zm-7.354-3.0786c-1.247-.5015-2.505-.9969-3.774-1.4861l-1.439 3.7323c1.251.4823 2.492.9707 3.721 1.4651zm-7.48-2.8852c-1.242-.459-2.493-.9119-3.755-1.3587l-1.335 3.7707c1.244.4406 2.479.8873 3.703 1.3398zm-7.572-2.6801c-1.257-.4254-2.524-.8447-3.8-1.2576l-1.231 3.8059c1.259.4073 2.509.8209 3.748 1.2405zm-7.588-2.4548c-1.272-.3929-2.554-.7794-3.846-1.1594l-1.129 3.8373c1.275.375 2.54.7564 3.795 1.144zm-7.75-2.2799c-1.26-.3525-2.529-.699-3.807-1.039l-1.029 3.8655c1.262.3357 2.515.6776 3.758 1.0256zm-7.669-2.04c-1.296-.3272-2.602-.6479-3.916-.962l-.93 3.8906c1.298.3101 2.587.6267 3.867.9497zm-7.836-1.8721c-1.28-.2888-2.568-.5713-3.865-.8473l-.833 3.9124c1.281.2726 2.554.5516 3.818.8368zm-7.782-1.6558c-1.314-.2629-2.637-.5193-3.968-.7689l-.737 3.9315c1.315.2466 2.622.4999 3.92.7597zm-7.905-1.4828c-1.294-.2267-2.595-.447-3.905-.6609l-.645 3.9477c1.295.2114 2.581.4292 3.86.6532zm-7.859-1.2829c-1.326-.2008-2.659-.395-4.002-.5824l-.553 3.9615c1.327.1853 2.646.3773 3.956.5758zm-7.964-1.1131c-1.302-.167-2.611-.3276-3.928-.4818l-.465 3.9728c1.302.1525 2.597.3114 3.884.4765zm-7.901-.9251c-1.332-.1413-2.672-.276-4.019-.4041l-.379 3.9821c1.333.1267 2.658.2599 3.976.3997zm-8.02-.7629c-1.305-.11-2.616-.2138-3.935-.3114l-.295 3.9892c1.305.0965 2.603.1992 3.894.3081zm-7.913-.5849c-1.333-.0848-2.672-.1632-4.02-.2351l-.213 3.9944c1.334.0711 2.66.1487 3.979.2326zm-8.076-.4309c-1.303-.0562-2.613-.1065-3.929-.1505l-.134 3.9977c1.304.0437 2.6.0934 3.89.1491zm-7.896-.2642c-1.329-.0317-2.665-.0572-4.007-.0764l-.057 3.9996c1.329.019 2.652.0442 3.968.0756zm-8.054-.1148c-.678-.0032-1.357-.0048-2.038-.0048v4c.675 0 1.348.0016 2.019.0048zm-2.038-.0048c-.68 0-1.358.0016-2.034.0048l.019 4c.67-.0032 1.342-.0048 2.015-.0048zm-6.07.0431c-1.339.019-2.671.0444-3.996.076l.096 3.9988c1.312-.0312 2.631-.0564 3.957-.0752zm-7.973.1899c-1.356.0455-2.705.0975-4.047.1559l.174 3.9963c1.329-.0579 2.664-.1094 4.007-.1544zm-8.05.3505c-1.327.0713-2.648.1489-3.961.2327l.255 3.9919c1.3-.083 2.606-.1598 3.92-.2303zm-8.003.5121c-1.342.0999-2.677.2064-4.004.3193l.34 3.9856c1.313-.1117 2.633-.2171 3.961-.3159zm-7.962.6775c-1.348.1292-2.688.2652-4.021.4078l.426 3.9773c1.318-.141 2.643-.2755 3.977-.4034zm-8.016.8578c-1.324.1565-2.639.3197-3.947.4893l.514 3.9668c1.293-.1677 2.594-.329 3.903-.4838zm-7.951 1.0319c-1.334.1887-2.66.3841-3.977.5861l.606 3.9538c1.302-.1997 2.612-.3928 3.931-.5793zm-7.904 1.2119c-1.339.2214-2.669.4496-3.989.6845l.7 3.9382c1.305-.2321 2.619-.4576 3.941-.6763zm-7.939 1.4118c-1.31.2496-2.612.5058-3.905.7686l.797 3.9199c1.277-.2595 2.562-.5126 3.857-.7592zm-7.871 1.6009c-1.313.2842-2.617.5751-3.911.8726l.896 3.8984c1.278-.2937 2.565-.581 3.861-.8616zm-7.806 1.7943c-1.316.3204-2.622.6476-3.919.9815l.997 3.8737c1.28-.3295 2.569-.6525 3.868-.9687zm-7.78 2.003c-1.304.3542-2.598.7152-3.882 1.0827l1.1 3.8456c1.267-.3626 2.544-.7187 3.83-1.0682zm-7.743 2.2162c-1.28.3855-2.551.7776-3.811 1.176l1.206 3.8139c1.243-.3928 2.495-.7795 3.758-1.1597zm-7.664 2.4241c-1.274.4227-2.537.8518-3.79 1.2872l1.313 3.7783c1.235-.4292 2.481-.8523 3.737-1.2689zm-7.583 2.636c-1.269.4615-2.526.9294-3.773 1.4036l1.422 3.7387c1.229-.4672 2.468-.9284 3.718-1.3833zm-7.498 2.8516c-1.261.5009-2.511 1.0082-3.749 1.5216l1.532 3.695c1.22-.5058 2.451-1.0055 3.693-1.4991zm-7.43 3.0798c-1.244.5378-2.476 1.0817-3.697 1.6315l1.643 3.6471c1.202-.5415 2.416-1.0772 3.642-1.6069zm-7.343 3.3078c-1.222.573-2.431 1.1518-3.628 1.7362l1.754 3.5947c1.179-.5754 2.37-1.1453 3.573-1.7095zm-7.233 3.5307c-1.2.6088-2.386 1.2231-3.561 1.8425l1.867 3.5379c1.155-.6097 2.324-1.2143 3.504-1.8136zm-7.117 3.7551c-1.177.6451-2.341 1.2953-3.492 1.9503l1.978 3.4765c1.133-.6445 2.278-1.2843 3.437-1.9192zm-6.992 3.98c-1.155.682-2.296 1.3686-3.423 2.0595l2.09 3.4106c1.109-.6797 2.231-1.3552 3.367-2.0262zm-6.86 4.2049c-1.132.7195-2.25 1.4432-3.354 2.1707l2.201 3.3399c1.086-.7155 2.186-1.4273 3.299-2.135zm-6.719 4.4287c-1.107.7569-2.201 1.5174-3.28 2.2811l2.311 3.2648c1.061-.751 2.136-1.4988 3.226-2.2431zm-6.568 4.6506c-1.083.7949-2.152 1.5927-3.205 2.3931l2.42 3.185c1.035-.7868 2.086-1.5713 3.151-2.3529zm-6.407 4.8692c-1.059.8333-2.102 1.6688-3.129 2.5059l2.526 3.1008c1.01-.8229 2.035-1.6442 3.076-2.4634zm-6.238 5.0837c-1.033.8721-2.05 1.7453-3.05 2.6192l2.632 3.0121c.983-.8589 1.982-1.7172 2.998-2.5744zm-6.056 5.2924c-1.007.9112-1.997 1.8224-2.968 2.733l2.735 2.9189c.955-.8949 1.927-1.7903 2.916-2.6858zm-5.864 5.4935c-.98.9506-1.941 1.8998-2.883 2.8468l2.835 2.8214c.926-.9305 1.871-1.8632 2.833-2.7972zm-5.691 5.7191c-.94.9786-1.86 1.9541-2.761 2.9255l2.933 2.7194c.885-.9542 1.789-1.9125 2.713-2.8739zm-5.482 5.9133c-.903 1.0107-1.786 2.016-2.648 3.015l3.029 2.6126c.846-.981 1.713-1.9684 2.601-2.9611zm-5.25 6.0876c-.875 1.052-1.727 2.097-2.556 3.132l3.122 2.5c.814-1.016 1.65-2.041 2.51-3.075zm-5.042 6.295c-.831 1.078-1.637 2.144-2.417 3.196l3.212 2.383c.766-1.033 1.557-2.078 2.373-3.136zm-4.793 6.463c-.801 1.124-1.572 2.229-2.314 3.315l3.301 2.257c.728-1.064 1.485-2.148 2.27-3.25z"/></g><circle cx="246" cy="225" fill="#fff" r="88" stroke="#00a2ff" stroke-width="4"/><path d="m211.215 227.64v12.36h5.32v-27.64h-5.32v11.08h-9.84v-11.08h-5.28v27.64h5.28v-12.36zm20.235-9.4c-6.28 0-10 4.52-10 11.16 0 6.96 3.72 11.2 9.96 11.2s9.96-4.52 9.96-11.2c0-6.92-3.68-11.16-9.92-11.16zm0 3.88c2.96 0 4.52 2.24 4.52 7.28s-1.56 7.32-4.56 7.32-4.56-2.24-4.56-7.32c0-5 1.6-7.28 4.6-7.28zm37.16-3.88c-2.8 0-4.76 1.36-6.36 3.56-.8-2.24-2.64-3.56-5.12-3.56-2.68 0-4.6 1.24-6.12 3.36l-.4-2.76h-4.44v21.16h5.12v-14.72c1.16-1.96 2.24-3.2 4.04-3.2 1.24 0 2.32.76 2.32 3.4v14.52h5.12v-14.72c1.16-1.96 2.24-3.2 4-3.2 1.28 0 2.32.76 2.32 3.4v14.52h5.12v-15.32c0-4-2.24-6.44-5.6-6.44zm28.904 10.68c0-6.68-3.4-10.68-9.32-10.68-6 0-9.4 4.88-9.4 11.32 0 6.68 3.52 11.04 10.08 11.04 3.2 0 5.76-1.16 7.84-2.84l-2.12-2.92c-1.84 1.28-3.4 1.88-5.28 1.88-2.8 0-4.84-1.4-5.2-5.72h13.28c.04-.56.12-1.4.12-2.08zm-5.08-1.24h-8.32c.28-4.2 1.8-5.8 4.2-5.8 2.88 0 4.12 2.08 4.12 5.56z" fill="#00a2ff"/><circle cx="506" cy="225" fill="#fff" r="89" stroke="#000" stroke-width="2"/><path d="m480.968 240v-27.64h-4.8v12.96c0 3.92.48 7.92.72 9.44l-9.64-22.4h-6.68v27.64h4.8v-11.28c0-5.12-.44-8.64-.72-11.08l9.48 22.36zm23.675-11.08c0-6.68-3.4-10.68-9.32-10.68-6 0-9.4 4.88-9.4 11.32 0 6.68 3.52 11.04 10.08 11.04 3.2 0 5.76-1.16 7.84-2.84l-2.12-2.92c-1.84 1.28-3.4 1.88-5.28 1.88-2.8 0-4.84-1.4-5.2-5.72h13.28c.04-.56.12-1.4.12-2.08zm-5.08-1.24h-8.32c.28-4.2 1.8-5.8 4.2-5.8 2.88 0 4.12 2.08 4.12 5.56zm31.03 12.32 4.6-21.16h-4.92l-3.16 17.4-3.36-17.4h-5.24l-3.68 17.4-2.96-17.4h-5.12l4.68 21.16h6.28l3.28-16.6 3.2 16.6zm14.815-21.76c-4.92 0-8.16 2.64-8.16 6.16 0 3.12 1.92 5.2 6.28 6.4 3.96 1.12 4.8 1.68 4.8 3.52 0 1.48-1.48 2.48-3.8 2.48-2.12 0-4.08-.84-5.68-2.12l-2.6 2.92c1.96 1.76 4.8 3 8.44 3 4.84 0 8.92-2.32 8.92-6.72 0-3.76-2.44-5.52-6.76-6.68-3.6-1-4.44-1.64-4.44-3.04 0-1.28 1.16-2.12 3.32-2.12 1.76 0 3.44.6 5.2 1.8l2-3.08c-2-1.56-4.48-2.52-7.52-2.52z" fill="#000"/><circle cx="766" cy="225" fill="#fff" r="89" stroke="#000" stroke-width="2"/><path d="m717.654 212.36h-8.16v27.64h5.28v-9.64h3.24c6.24 0 10.84-2.84 10.84-9.2 0-5.96-4.24-8.8-11.2-8.8zm-.04 14.04h-2.84v-10.16h2.84c3.6 0 5.72 1.44 5.72 4.92 0 4.04-2.2 5.24-5.72 5.24zm25.793-8.12c-2.48 0-4.52 1.68-5.52 4.72l-.48-4.16h-4.44v21.16h5.12v-11.28c.8-3.56 2.12-5.44 4.68-5.44.72 0 1.24.08 1.88.24l.88-4.96c-.68-.2-1.36-.28-2.12-.28zm13.551-.04c-6.28 0-10 4.52-10 11.16 0 6.96 3.72 11.2 9.96 11.2s9.96-4.52 9.96-11.2c0-6.92-3.68-11.16-9.92-11.16zm0 3.88c2.96 0 4.52 2.24 4.52 7.28s-1.56 7.32-4.56 7.32-4.56-2.24-4.56-7.32c0-5 1.6-7.28 4.6-7.28zm23.48-12.32c-5.76 0-8.16 2.92-8.16 6.8v2.24h-3.28v3.68h3.28v17.48h5.12v-17.48h6.68v17.48h5.12v-21.16h-11.8v-2.16c0-2 .76-2.96 3.52-2.96 1.64 0 3.16.4 4.44 1l1.56-3.4c-1.72-.84-3.8-1.52-6.48-1.52zm19.832 25.04v-25.04l-5.12.56v24.84c0 3.52 1.8 5.4 4.96 5.4 1.32 0 2.6-.28 3.64-.72l-1.08-3.6c-.36.12-.8.2-1.2.2-.84 0-1.2-.48-1.2-1.64zm23.846-5.92c0-6.68-3.4-10.68-9.32-10.68-6 0-9.4 4.88-9.4 11.32 0 6.68 3.52 11.04 10.08 11.04 3.2 0 5.76-1.16 7.84-2.84l-2.12-2.92c-1.84 1.28-3.4 1.88-5.28 1.88-2.8 0-4.84-1.4-5.2-5.72h13.28c.04-.56.12-1.4.12-2.08zm-5.08-1.24h-8.32c.28-4.2 1.8-5.8 4.2-5.8 2.88 0 4.12 2.08 4.12 5.56z" fill="#000"/></svg>