<svg fill="none" height="328" viewBox="0 0 1012 328" width="1012" xmlns="http://www.w3.org/2000/svg"><path d="m0 0h1012v328h-1012z" fill="#fff"/><circle cx="246" cy="220" fill="#fff" r="88" stroke="#00a2ff" stroke-width="4"/><path d="m211.215 222.64v12.36h5.32v-27.64h-5.32v11.08h-9.84v-11.08h-5.28v27.64h5.28v-12.36zm20.235-9.4c-6.28 0-10 4.52-10 11.16 0 6.96 3.72 11.2 9.96 11.2s9.96-4.52 9.96-11.2c0-6.92-3.68-11.16-9.92-11.16zm0 3.88c2.96 0 4.52 2.24 4.52 7.28s-1.56 7.32-4.56 7.32-4.56-2.24-4.56-7.32c0-5 1.6-7.28 4.6-7.28zm37.16-3.88c-2.8 0-4.76 1.36-6.36 3.56-.8-2.24-2.64-3.56-5.12-3.56-2.68 0-4.6 1.24-6.12 3.36l-.4-2.76h-4.44v21.16h5.12v-14.72c1.16-1.96 2.24-3.2 4.04-3.2 1.24 0 2.32.76 2.32 3.4v14.52h5.12v-14.72c1.16-1.96 2.24-3.2 4-3.2 1.28 0 2.32.76 2.32 3.4v14.52h5.12v-15.32c0-4-2.24-6.44-5.6-6.44zm28.904 10.68c0-6.68-3.4-10.68-9.32-10.68-6 0-9.4 4.88-9.4 11.32 0 6.68 3.52 11.04 10.08 11.04 3.2 0 5.76-1.16 7.84-2.84l-2.12-2.92c-1.84 1.28-3.4 1.88-5.28 1.88-2.8 0-4.84-1.4-5.2-5.72h13.28c.04-.56.12-1.4.12-2.08zm-5.08-1.24h-8.32c.28-4.2 1.8-5.8 4.2-5.8 2.88 0 4.12 2.08 4.12 5.56z" fill="#00a2ff"/><circle cx="506" cy="220" fill="#fff" r="89" stroke="#000" stroke-width="2"/><path d="m480.968 235v-27.64h-4.8v12.96c0 3.92.48 7.92.72 9.44l-9.64-22.4h-6.68v27.64h4.8v-11.28c0-5.12-.44-8.64-.72-11.08l9.48 22.36zm23.675-11.08c0-6.68-3.4-10.68-9.32-10.68-6 0-9.4 4.88-9.4 11.32 0 6.68 3.52 11.04 10.08 11.04 3.2 0 5.76-1.16 7.84-2.84l-2.12-2.92c-1.84 1.28-3.4 1.88-5.28 1.88-2.8 0-4.84-1.4-5.2-5.72h13.28c.04-.56.12-1.4.12-2.08zm-5.08-1.24h-8.32c.28-4.2 1.8-5.8 4.2-5.8 2.88 0 4.12 2.08 4.12 5.56zm31.03 12.32 4.6-21.16h-4.92l-3.16 17.4-3.36-17.4h-5.24l-3.68 17.4-2.96-17.4h-5.12l4.68 21.16h6.28l3.28-16.6 3.2 16.6zm14.815-21.76c-4.92 0-8.16 2.64-8.16 6.16 0 3.12 1.92 5.2 6.28 6.4 3.96 1.12 4.8 1.68 4.8 3.52 0 1.48-1.48 2.48-3.8 2.48-2.12 0-4.08-.84-5.68-2.12l-2.6 2.92c1.96 1.76 4.8 3 8.44 3 4.84 0 8.92-2.32 8.92-6.72 0-3.76-2.44-5.52-6.76-6.68-3.6-1-4.44-1.64-4.44-3.04 0-1.28 1.16-2.12 3.32-2.12 1.76 0 3.44.6 5.2 1.8l2-3.08c-2-1.56-4.48-2.52-7.52-2.52z" fill="#000"/><circle cx="766" cy="220" fill="#fff" r="89" stroke="#000" stroke-width="2"/><path d="m717.654 207.36h-8.16v27.64h5.28v-9.64h3.24c6.24 0 10.84-2.84 10.84-9.2 0-5.96-4.24-8.8-11.2-8.8zm-.04 14.04h-2.84v-10.16h2.84c3.6 0 5.72 1.44 5.72 4.92 0 4.04-2.2 5.24-5.72 5.24zm25.793-8.12c-2.48 0-4.52 1.68-5.52 4.72l-.48-4.16h-4.44v21.16h5.12v-11.28c.8-3.56 2.12-5.44 4.68-5.44.72 0 1.24.08 1.88.24l.88-4.96c-.68-.2-1.36-.28-2.12-.28zm13.551-.04c-6.28 0-10 4.52-10 11.16 0 6.96 3.72 11.2 9.96 11.2s9.96-4.52 9.96-11.2c0-6.92-3.68-11.16-9.92-11.16zm0 3.88c2.96 0 4.52 2.24 4.52 7.28s-1.56 7.32-4.56 7.32-4.56-2.24-4.56-7.32c0-5 1.6-7.28 4.6-7.28zm23.48-12.32c-5.76 0-8.16 2.92-8.16 6.8v2.24h-3.28v3.68h3.28v17.48h5.12v-17.48h6.68v17.48h5.12v-21.16h-11.8v-2.16c0-2 .76-2.96 3.52-2.96 1.64 0 3.16.4 4.44 1l1.56-3.4c-1.72-.84-3.8-1.52-6.48-1.52zm19.832 25.04v-25.04l-5.12.56v24.84c0 3.52 1.8 5.4 4.96 5.4 1.32 0 2.6-.28 3.64-.72l-1.08-3.6c-.36.12-.8.2-1.2.2-.84 0-1.2-.48-1.2-1.64zm23.846-5.92c0-6.68-3.4-10.68-9.32-10.68-6 0-9.4 4.88-9.4 11.32 0 6.68 3.52 11.04 10.08 11.04 3.2 0 5.76-1.16 7.84-2.84l-2.12-2.92c-1.84 1.28-3.4 1.88-5.28 1.88-2.8 0-4.84-1.4-5.2-5.72h13.28c.04-.56.12-1.4.12-2.08zm-5.08-1.24h-8.32c.28-4.2 1.8-5.8 4.2-5.8 2.88 0 4.12 2.08 4.12 5.56z" fill="#000"/><path d="m387.576 37.0133c.722 0 1.411-.1312 2.068-.3938.667-.2626 1.346-.6345 2.035-1.1159l1.969 2.7733c-.788.6783-1.729 1.2199-2.823 1.6246-1.094.3939-2.237.5908-3.429.5908-1.794 0-3.348-.3774-4.661-1.1323-1.302-.7549-2.303-1.8161-3.003-3.1836-.689-1.3675-1.034-2.9538-1.034-4.759 0-1.7942.35-3.3914 1.051-4.7918.711-1.4112 1.728-2.5107 3.052-3.2984 1.324-.7987 2.877-1.198 4.66-1.198 1.237 0 2.358.1751 3.364.5252 1.018.35 1.953.8806 2.807 1.5918l-1.92 2.6584c-1.346-.919-2.719-1.3784-4.119-1.3784-1.346 0-2.407.4813-3.184 1.4441-.766.9627-1.149 2.4451-1.149 4.4471 0 1.9583.383 3.3805 1.149 4.2667.777.8862 1.833 1.3292 3.167 1.3292zm15.273-2.3466c0 .9189.181 1.5754.542 1.9692s.908.5908 1.641.5908c.667 0 1.324-.2024 1.969-.6072.657-.4048 1.187-.9299 1.592-1.5754v-12.4226h4.332v17.3785h-3.774l-.23-2.1333c-.612.8424-1.4 1.4933-2.363 1.9528-.963.4485-1.98.6728-3.052.6728-1.652 0-2.899-.4649-3.742-1.3949-.831-.9299-1.247-2.2318-1.247-3.9056v-12.5703h4.332zm28.09-12.5211c.525 0 1.001.0438 1.428.1313.437.0766.869.1915 1.296.3446l-.771 6.7775h-2.888v-3.3969c-1.105.0875-2.074.5853-2.905 1.4933-.821.908-1.472 2.1388-1.953 3.6923v5.8092h3.463v3.0031h-10.24v-3.0031h2.445v-11.3887h-2.445v-2.9867h5.743l.804 3.9877c.646-1.4988 1.45-2.6147 2.413-3.3477.973-.7439 2.177-1.1159 3.61-1.1159zm19.687 0c.526 0 1.001.0438 1.428.1313.438.0766.87.1915 1.297.3446l-.772 6.7775h-2.888v-3.3969c-1.105.0875-2.073.5853-2.905 1.4933-.82.908-1.471 2.1388-1.952 3.6923v5.8092h3.462v3.0031h-10.24v-3.0031h2.445v-11.3887h-2.445v-2.9867h5.744l.804 3.9877c.645-1.4988 1.449-2.6147 2.412-3.3477.974-.7439 2.177-1.1159 3.61-1.1159zm10.646 10.4862c.12 1.5644.58 2.7241 1.378 3.479.81.7548 1.844 1.1323 3.102 1.1323.798 0 1.564-.1258 2.297-.3775.733-.2516 1.472-.6235 2.216-1.1159l1.805 2.478c-.843.7111-1.827 1.2691-2.954 1.6738-1.127.3939-2.341.5908-3.643.5908-1.849 0-3.424-.3829-4.726-1.1487-1.291-.7658-2.27-1.838-2.938-3.2164-.656-1.3785-.984-2.9757-.984-4.7918 0-1.7395.322-3.3039.968-4.6933.656-1.4004 1.597-2.4999 2.822-3.2985 1.237-.8096 2.692-1.2144 4.366-1.2144 1.575 0 2.948.3501 4.119 1.0503 1.17.7002 2.073 1.7121 2.707 3.0359.635 1.3128.952 2.8773.952 4.6933 0 .6236-.027 1.198-.082 1.7231zm3.725-7.4503c-1.083 0-1.958.3884-2.626 1.1652-.656.7658-1.039 1.9364-1.148 3.5118h7.319c-.022-1.4988-.334-2.653-.936-3.4626-.591-.8096-1.46-1.2144-2.609-1.2144zm12.27 14.8185v-17.3785h3.774l.312 2.1498c.744-.8752 1.581-1.5316 2.511-1.9692.93-.4486 1.931-.6729 3.003-.6729 1.554 0 2.741.4486 3.561 1.3457.832.8971 1.247 2.1661 1.247 3.8072v12.7179h-4.332v-11.0277c0-.919-.06-1.6301-.181-2.1333-.109-.5142-.317-.8862-.623-1.1159-.296-.2407-.733-.361-1.313-.361-1.269 0-2.478.7712-3.627 2.3138v12.3241zm34.687-.9682c-.679.4485-1.483.8041-2.413 1.0667-.919.2625-1.892.3938-2.921.3938-1.389 0-2.565-.2461-3.528-.7385-.952-.4923-1.668-1.187-2.15-2.0841-.481-.908-.722-1.9801-.722-3.2164v-8.763h-3.774v-3.0688h3.774v-3.8236l4.332-.5251v4.3487h5.744l-.443 3.0688h-5.301v8.7466c0 .9081.219 1.5699.657 1.9857.438.4048 1.143.6071 2.117.6071 1.116 0 2.161-.2625 3.134-.7876zm24.507-14.3097h14.145v3.4625h-14.145zm0 6.6789h14.145v3.4462h-14.145zm54.226 8.599h-4.496v-9.9774h-6.564v9.9774h-4.497v-22.6954h4.497v9.0257h6.564v-9.0257h4.496zm11.926-17.8708c1.706 0 3.167.3775 4.381 1.1323 1.214.744 2.133 1.8052 2.757 3.1836.635 1.3675.952 2.9758.952 4.8246 0 1.8818-.317 3.5173-.952 4.9067-.635 1.3785-1.564 2.4451-2.79 3.2-1.214.7439-2.669 1.1159-4.365 1.1159-1.707 0-3.167-.3665-4.381-1.0995-1.215-.733-2.139-1.7887-2.774-3.1672-.634-1.3784-.952-3.0194-.952-4.923 0-1.8161.318-3.4134.952-4.7918.646-1.3894 1.576-2.467 2.79-3.2328 1.225-.7659 2.686-1.1488 4.382-1.1488zm0 3.2657c-1.226 0-2.134.4813-2.725 1.4441-.59.9518-.886 2.4396-.886 4.4636 0 2.0458.296 3.5446.886 4.4964.591.9518 1.494 1.4277 2.708 1.4277 1.215 0 2.117-.4759 2.708-1.4277.591-.9628.886-2.4725.886-4.5293 0-2.002-.295-3.4789-.886-4.4307-.591-.9628-1.488-1.4441-2.691-1.4441zm24.823-3.2657c1.16 0 2.041.3829 2.643 1.1488.601.7658.902 2.0458.902 3.8399v12.8821h-3.774v-12.3405c0-.558-.028-.9846-.082-1.28-.044-.3063-.143-.5306-.296-.6728-.142-.1423-.361-.2134-.656-.2134-.799 0-1.543.4869-2.232 1.4605v13.0462h-3.266v-12.3405c0-.558-.027-.9846-.082-1.28-.043-.3063-.142-.5306-.295-.6728-.142-.1423-.361-.2134-.656-.2134-.394 0-.772.1149-1.133.3446-.361.2189-.727.5908-1.099 1.1159v13.0462h-3.824v-17.3785h3.233l.279 1.8052c.558-.7658 1.116-1.3402 1.674-1.7231.569-.3829 1.236-.5744 2.002-.5744.7 0 1.296.1751 1.789.5252.492.3391.842.8752 1.05 1.6082.547-.6783 1.127-1.2035 1.739-1.5754.624-.372 1.319-.558 2.084-.558zm11.023 10.5026c.121 1.5644.58 2.7241 1.379 3.479.809.7548 1.843 1.1323 3.101 1.1323.799 0 1.565-.1258 2.298-.3775.733-.2516 1.471-.6235 2.215-1.1159l1.805 2.478c-.842.7111-1.827 1.2691-2.954 1.6738-1.126.3939-2.341.5908-3.643.5908-1.849 0-3.424-.3829-4.726-1.1487-1.291-.7658-2.27-1.838-2.937-3.2164-.657-1.3785-.985-2.9757-.985-4.7918 0-1.7395.323-3.3039.968-4.6933.657-1.4004 1.598-2.4999 2.823-3.2985 1.236-.8096 2.691-1.2144 4.365-1.2144 1.575 0 2.948.3501 4.119 1.0503s2.073 1.7121 2.708 3.0359c.634 1.3128.952 2.8773.952 4.6933 0 .6236-.028 1.198-.083 1.7231zm3.725-7.4503c-1.083 0-1.958.3884-2.625 1.1652-.657.7658-1.039 1.9364-1.149 3.5118h7.319c-.022-1.4988-.334-2.653-.935-3.4626-.591-.8096-1.461-1.2144-2.61-1.2144z" fill="#815cff"/></svg>